<svg xmlns="http://www.w3.org/2000/svg" width="83.2" height="18.469" viewBox="0 0 83.2 18.469">
  <g id="Frame" transform="translate(0 0)">
    <path id="Vector" d="M6.722,13.009A6.623,6.623,0,0,1,0,6.5V0H13.443V6.5A6.623,6.623,0,0,1,6.722,13.009ZM1.222,1.183V6.5a5.419,5.419,0,0,0,5.5,5.322,5.419,5.419,0,0,0,5.5-5.322V1.183Z" transform="translate(69.757 0)" fill="#989898"/>
    <path id="Vector-2" data-name="Vector" d="M6.11,0H0V1.183H.835L.412,4.46H1.644l.424-3.277H4.043L4.467,4.46H5.7L5.275,1.183H6.11Z" transform="translate(73.423 3.942)" fill="#989898"/>
    <path id="Vector-3" data-name="Vector" d="M7.211,0c3.606,0,5.529,1.628,5.529,3.954A4.08,4.08,0,0,1,9.374,7.723v.047c3,.721,4.086,2.419,4.086,4.21,0,2.558-1.923,4.3-5.528,4.3H0v-.465c1.442,0,1.442,0,1.442-1.512V1.977C1.442.465,1.442.465,0,.465V0H7.211ZM5.769,7.676c2.163,0,3-1.4,3-3.605C8.773,2.093,7.932.465,6.49.465h-1.2V7.676Zm-.481.465v7.676H6.97c1.923,0,2.524-1.861,2.524-3.954S8.413,8.141,6.249,8.141H5.288Z" transform="translate(0 1.954)" fill="#989898"/>
    <path id="Vector-4" data-name="Vector" d="M0,6.164A6.227,6.227,0,0,1,6.37,0c2.764,0,5.264,1.163,4.543,5.117H3.8c0,3.14,1.851,4.3,3.654,4.3a3.863,3.863,0,0,0,3.606-1.977h.24c-.481,2.326-2.163,4.652-5.168,4.652A5.764,5.764,0,0,1,0,6.164ZM3.8,4.652H7.331C7.74,3.07,8.076.465,6.25.465,4.879.465,3.894,1.7,3.8,4.652Z" transform="translate(14.42 6.374)" fill="#989898"/>
    <path id="Vector-5" data-name="Vector" d="M9.134,3.256a1.3,1.3,0,0,0-1.442-1.4,3.882,3.882,0,0,0-2.4,1.047V9.885c0,1.512,0,1.512,1.442,1.512v.465H0V11.4c1.442,0,1.442,0,1.442-1.512V2.558c0-1.163,0-1.163-1.2-1.163V1.047L5.168,0H5.36L5.288,2.442h.048A5.2,5.2,0,0,1,9.735,0c1.61,0,3.245.93,3.245,3.489v6.4c0,1.512,0,1.512,1.442,1.512v.465H8.172V11.4c.961,0,.961,0,.961-1.512Z" transform="translate(26.437 6.374)" fill="#989898"/>
    <path id="Vector-6" data-name="Vector" d="M7.451,9.421a3.863,3.863,0,0,0,3.606-1.977H11.3C10.816,9.769,9.134,12.1,6.129,12.1A5.765,5.765,0,0,1,0,6.164,6.227,6.227,0,0,1,6.37,0c3,0,4.591,1.419,4.591,2.908,0,.814-.385,1.628-1.827,1.628-1.2,0-1.466-.721-1.442-1.209.121-1.7,0-2.861-1.442-2.861C4.567.465,3.8,2.628,3.8,5.326,3.8,8.374,5.648,9.421,7.451,9.421Z" transform="translate(41.339 6.374)" fill="#989898"/>
    <path id="Vector-7" data-name="Vector" d="M9.134,9.3a1.3,1.3,0,0,0-1.442-1.4,3.882,3.882,0,0,0-2.4,1.047v6.978c0,1.512,0,1.512,1.442,1.512v.465H0v-.465c1.442,0,1.442,0,1.442-1.512V2.559c0-1.163,0-1.163-1.2-1.163V1.047L5.1,0h.192V8.49h.048a5.2,5.2,0,0,1,4.4-2.442c1.611,0,3.245.93,3.245,3.489v6.4c0,1.512,0,1.512,1.443,1.512v.465H8.172v-.465c.961,0,.961,0,.961-1.512Z" transform="translate(53.356 0.326)" fill="#989898"/>
  </g>
</svg>
