<svg xmlns="http://www.w3.org/2000/svg" width="64.836" height="27.842" viewBox="0 0 64.836 27.842">
  <g id="Frame" transform="translate(0)">
    <g id="mask0">
      <path id="Vector" d="M0,0H14.073V25.728H0Z" fill="none"/>
    </g>
    <g id="Group">
      <path id="Vector-2" data-name="Vector" d="M11.352,12.149a.826.826,0,0,0-.772-.158l-7.3,2.2,10.434-9.54a.747.747,0,0,0,.024-1.09c-.015-.015-.03-.029-.046-.042L9.8.2A.832.832,0,0,0,8.657.258a.8.8,0,0,0-.09.118L.087,13.984a.575.575,0,0,0,.12.747L1.86,16.144a.827.827,0,0,0,.747.166l5.916-1.576L1.713,24.961a.51.51,0,0,0,.8.624L13.884,15.162a.575.575,0,0,0,.016-.839l-.033-.03Z" transform="translate(0 0)" fill="#fff"/>
    </g>
    <g id="mask1">
      <path id="Vector-3" data-name="Vector" d="M0,0H16.417V24.971H0Z" transform="translate(48.418 2.871)" fill="none"/>
    </g>
    <g id="Group-2" data-name="Group">
      <path id="Vector-4" data-name="Vector" d="M16.04,7.82l-1.13-.963a.384.384,0,0,0-.526.028A.355.355,0,0,0,14.314,7l-2.323,5.99c-1.113,2.87-2.432,3.852-3.259,3.852-.264,0-.641-.184-.641-.8A3.8,3.8,0,0,1,8.4,14.7L10.612,9A1.046,1.046,0,0,0,10.3,7.82l-1.13-.963a.384.384,0,0,0-.526.028A.355.355,0,0,0,8.578,7l-2.323,5.99C5.143,15.858,3.823,16.841,3,16.841c-.265,0-.641-.184-.641-.8A3.815,3.815,0,0,1,2.663,14.7L7.5,2.233a1.047,1.047,0,0,0-.306-1.18L6.059.09a.384.384,0,0,0-.525.028.361.361,0,0,0-.072.113L.516,12.989A7.289,7.289,0,0,0,0,15.353a2.674,2.674,0,0,0,2.663,2.856,4.343,4.343,0,0,0,3.213-1.936A2.6,2.6,0,0,0,8.4,18.209a3.4,3.4,0,0,0,1.949-.7L8.72,21.7a7.744,7.744,0,0,0-5.38-.366.2.2,0,0,0,.052.386,7.707,7.707,0,0,1,5.625,2.961.783.783,0,0,0,1.063.143.724.724,0,0,0,.255-.326L16.346,9A1.047,1.047,0,0,0,16.04,7.82Z" transform="translate(48.418 2.871)" fill="#fff"/>
    </g>
    <path id="Vector-5" data-name="Vector" d="M3.256,17.162c-.453,0-.791-.426-.791-1.06a4.464,4.464,0,0,1,.341-1.425C4.359,10.8,6.473,8.7,7.421,8.7c.626,0,.722.623.722,1.365,0,3.023-2.821,7.093-4.886,7.093ZM8.285,6.895A4.477,4.477,0,0,0,5.2,8.446l2.373-6.17a1.073,1.073,0,0,0-.309-1.2L6.118.092a.385.385,0,0,0-.53.029.362.362,0,0,0-.072.116l-4.995,13A7.485,7.485,0,0,0,0,15.644a2.845,2.845,0,0,0,3.043,2.911c4.136,0,7.868-4.687,7.868-8.468C10.909,8.235,9.976,6.895,8.285,6.895Z" transform="translate(36.957 2.541)" fill="#fff"/>
    <path id="Vector-6" data-name="Vector" d="M14.863,17.162c-.454,0-.792-.426-.792-1.06a4.459,4.459,0,0,1,.341-1.425C15.967,10.8,18.084,8.7,19.033,8.7c.627,0,.723.623.723,1.365,0,3.023-2.823,7.093-4.893,7.093Zm1.944-8.716,2.376-6.17a1.071,1.071,0,0,0-.31-1.2L17.728.092A.386.386,0,0,0,17.2.121a.356.356,0,0,0-.072.116l-5,13C11,16.158,9.664,17.16,8.828,17.16c-.268,0-.648-.187-.648-.811a3.9,3.9,0,0,1,.311-1.368L10.727,9.17a1.072,1.072,0,0,0-.309-1.2L9.275,6.986a.387.387,0,0,0-.531.029.364.364,0,0,0-.072.116l-2.349,6.1C5.2,16.159,3.864,17.16,3.028,17.16c-.268,0-.648-.187-.648-.811a3.9,3.9,0,0,1,.311-1.368L4.926,9.17a1.071,1.071,0,0,0-.311-1.2L3.473,6.987a.387.387,0,0,0-.531.029.365.365,0,0,0-.072.116l-2.348,6.1A7.492,7.492,0,0,0,0,15.644a2.715,2.715,0,0,0,2.691,2.911A4.386,4.386,0,0,0,5.94,16.582a2.628,2.628,0,0,0,2.55,1.972,4.387,4.387,0,0,0,3.257-1.984,2.87,2.87,0,0,0,2.9,1.984c4.142,0,7.881-4.687,7.881-8.468,0-1.851-.935-3.192-2.627-3.192A4.483,4.483,0,0,0,16.807,8.446Z" transform="translate(14.783 2.541)" fill="#fff"/>
  </g>
</svg>
