<svg id="Frame" xmlns="http://www.w3.org/2000/svg" width="123.123" height="26.836" viewBox="0 0 123.123 26.836">
  <path id="Vector" d="M9.947,18.9A9.72,9.72,0,0,1,0,9.451V0H19.893V9.451A9.72,9.72,0,0,1,9.947,18.9ZM1.808,1.718V9.451a7.953,7.953,0,0,0,8.139,7.733,7.953,7.953,0,0,0,8.138-7.733V1.718Z" transform="translate(103.23)" fill="#28293e"/>
  <path id="Vector-2" data-name="Vector" d="M9.042,0H0V1.718H1.236L.61,6.48H2.433l.627-4.762H5.983L6.61,6.48H8.433L7.807,1.718H9.042Z" transform="translate(108.656 5.728)" fill="#28293e"/>
  <path id="Vector-3" data-name="Vector" d="M10.671,0c5.336,0,8.182,2.366,8.182,5.745,0,2.7-2.135,4.732-4.98,5.476v.068c4.447,1.048,6.047,3.515,6.047,6.117,0,3.717-2.846,6.252-8.181,6.252H0v-.676c2.135,0,2.135,0,2.135-2.2V2.873c0-2.2,0-2.2-2.135-2.2V0H10.671ZM8.537,11.153c3.2,0,4.446-2.028,4.446-5.239C12.983,3.041,11.738.676,9.6.676H7.825V11.153Zm-.711.676V22.983h2.49c2.845,0,3.735-2.7,3.735-5.746s-1.6-5.408-4.8-5.408H7.825Z" transform="translate(0 2.839)" fill="#28293e"/>
  <path id="Vector-4" data-name="Vector" d="M0,8.957C0,3.211,4.98,0,9.426,0c4.091,0,7.79,1.69,6.723,7.435H5.62c0,4.563,2.739,6.252,5.407,6.252a5.733,5.733,0,0,0,5.336-2.873h.356c-.711,3.379-3.2,6.759-7.647,6.759C3.2,17.575,0,13.519,0,8.957Zm5.62-2.2h5.229c.6-2.3,1.1-6.084-1.6-6.084C7.221.676,5.763,2.467,5.62,6.759Z" transform="translate(21.34 9.261)" fill="#28293e"/>
  <path id="Vector-5" data-name="Vector" d="M13.517,4.731A1.912,1.912,0,0,0,11.383,2.7,5.8,5.8,0,0,0,7.826,4.224V14.363c0,2.2,0,2.2,2.134,2.2v.676H0V16.56c2.134,0,2.134,0,2.134-2.2V3.717c0-1.69,0-1.69-1.778-1.69V1.521L7.648,0h.285L7.825,3.548H7.9A7.73,7.73,0,0,1,14.406,0c2.383,0,4.8,1.352,4.8,5.07v9.295c0,2.2,0,2.2,2.134,2.2v.676H12.094v-.676c1.423,0,1.423,0,1.423-2.2Z" transform="translate(39.123 9.261)" fill="#28293e"/>
  <path id="Vector-6" data-name="Vector" d="M11.027,13.688a5.733,5.733,0,0,0,5.336-2.873h.356c-.712,3.379-3.2,6.759-7.648,6.759C3.2,17.575,0,13.519,0,8.957,0,3.211,4.98,0,9.426,0S16.22,2.062,16.22,4.225c0,1.182-.569,2.366-2.7,2.366-1.778,0-2.17-1.048-2.135-1.757.179-2.468,0-4.157-2.134-4.157C6.759.676,5.62,3.819,5.62,7.739,5.62,12.168,8.359,13.688,11.027,13.688Z" transform="translate(61.175 9.261)" fill="#28293e"/>
  <path id="Vector-7" data-name="Vector" d="M13.517,13.519a1.912,1.912,0,0,0-2.134-2.028,5.8,5.8,0,0,0-3.557,1.521V23.151c0,2.2,0,2.2,2.135,2.2v.676H0v-.676c2.135,0,2.135,0,2.135-2.2V3.718c0-1.69,0-1.69-1.778-1.69V1.521L7.541,0h.285V12.336H7.9a7.729,7.729,0,0,1,6.51-3.548c2.383,0,4.8,1.352,4.8,5.07v9.295c0,2.2,0,2.2,2.135,2.2v.676h-9.25v-.676c1.423,0,1.423,0,1.423-2.2Z" transform="translate(78.959 0.474)" fill="#28293e"/>
</svg>
