<svg xmlns="http://www.w3.org/2000/svg" width="120.891" height="26.836" viewBox="0 0 120.891 26.836">
  <g id="Frame" transform="translate(0 -0.505)">
    <path id="Vector" d="M9.767,18.9A9.624,9.624,0,0,1,0,9.451V0H19.533V9.451A9.624,9.624,0,0,1,9.767,18.9ZM1.776,1.718V9.451a7.874,7.874,0,0,0,7.991,7.733,7.874,7.874,0,0,0,7.99-7.733V1.718Z" transform="translate(101.359 0.505)" fill="#fff"/>
    <path id="Vector-2" data-name="Vector" d="M8.879,0H0V1.718H1.214L.6,6.48h1.79L3,1.718H5.875L6.49,6.48H8.28L7.665,1.718H8.879Z" transform="translate(106.686 6.233)" fill="#fff"/>
    <path id="Vector-3" data-name="Vector" d="M10.477,0c5.239,0,8.033,2.366,8.033,5.745,0,2.7-2.1,4.732-4.89,5.476v.068c4.366,1.048,5.937,3.515,5.937,6.117,0,3.717-2.794,6.252-8.033,6.252H0v-.676c2.1,0,2.1,0,2.1-2.2V2.873c0-2.2,0-2.2-2.1-2.2V0H10.477Zm-2.1,11.153c3.144,0,4.365-2.028,4.365-5.239,0-2.873-1.222-5.239-3.318-5.239H7.684V11.153Zm-.7.676V22.983h2.445c2.794,0,3.667-2.7,3.667-5.746S12.224,11.83,9.08,11.83h-1.4Z" transform="translate(0 3.345)" fill="#fff"/>
    <path id="Vector-4" data-name="Vector" d="M0,8.957A9.047,9.047,0,0,1,9.255,0c4.017,0,7.649,1.69,6.6,7.435H5.518c0,4.563,2.689,6.252,5.309,6.252a5.613,5.613,0,0,0,5.239-2.873h.349c-.7,3.379-3.144,6.759-7.509,6.759C3.144,17.575,0,13.519,0,8.957Zm5.518-2.2h5.134c.594-2.3,1.083-6.084-1.572-6.084C7.09.676,5.658,2.467,5.518,6.759Z" transform="translate(20.953 9.766)" fill="#fff"/>
    <path id="Vector-5" data-name="Vector" d="M13.272,4.731a1.891,1.891,0,0,0-2.1-2.028A5.641,5.641,0,0,0,7.684,4.224V14.363c0,2.2,0,2.2,2.1,2.2v.676H0V16.56c2.1,0,2.1,0,2.1-2.2V3.717c0-1.69,0-1.69-1.746-1.69V1.521L7.509,0h.279l-.1,3.548h.07A7.558,7.558,0,0,1,14.145,0c2.34,0,4.715,1.352,4.715,5.07v9.295c0,2.2,0,2.2,2.1,2.2v.676h-9.08v-.676c1.4,0,1.4,0,1.4-2.2Z" transform="translate(38.414 9.767)" fill="#fff"/>
    <path id="Vector-6" data-name="Vector" d="M10.827,13.688a5.613,5.613,0,0,0,5.239-2.873h.35c-.7,3.379-3.144,6.759-7.509,6.759C3.143,17.575,0,13.519,0,8.957A9.047,9.047,0,0,1,9.255,0c4.366,0,6.671,2.062,6.671,4.225,0,1.182-.559,2.366-2.654,2.366-1.746,0-2.131-1.048-2.1-1.757.175-2.468,0-4.157-2.1-4.157-2.445,0-3.563,3.143-3.563,7.064C5.518,12.168,8.207,13.688,10.827,13.688Z" transform="translate(60.066 9.766)" fill="#fff"/>
    <path id="Vector-7" data-name="Vector" d="M13.272,13.519a1.891,1.891,0,0,0-2.1-2.028,5.641,5.641,0,0,0-3.492,1.521V23.151c0,2.2,0,2.2,2.1,2.2v.676H0v-.676c2.1,0,2.1,0,2.1-2.2V3.718c0-1.69,0-1.69-1.746-1.69V1.521L7.4,0h.279V12.336h.07a7.556,7.556,0,0,1,6.392-3.548c2.34,0,4.715,1.352,4.715,5.07v9.295c0,2.2,0,2.2,2.1,2.2v.676H11.875v-.676c1.4,0,1.4,0,1.4-2.2Z" transform="translate(77.528 0.979)" fill="#fff"/>
  </g>
</svg>
