<svg xmlns="http://www.w3.org/2000/svg" width="50.767" height="50.767" viewBox="0 0 50.767 50.767">
  <g id="Group_6079" data-name="Group 6079" transform="translate(-142.062 -48.598)">
    <path id="Path_2" data-name="Path 2" d="M40.7,64.028h0a26.24,26.24,0,0,1-26.24-26.24A24.526,24.526,0,0,1,38.985,13.261H60.162a5.063,5.063,0,0,1,5.063,5.063V39.5A24.527,24.527,0,0,1,40.7,64.028" transform="translate(127.604 35.337)" fill="#fff"/>
    <path id="Path_3" data-name="Path 3" d="M33.018,46.866a10.249,10.249,0,0,1-.23-20.495,2.726,2.726,0,0,1,.121,5.451,4.824,4.824,0,0,0-4.688,4.8,4.832,4.832,0,0,0,4.8,4.8,2.726,2.726,0,1,1,0,5.452Z" transform="translate(128.356 36.523)" fill="#ef6d58"/>
    <path id="Path_4" data-name="Path 4" d="M55.969,37.123A9.926,9.926,0,1,1,46.043,27.2a9.926,9.926,0,0,1,9.926,9.926" transform="translate(129.563 36.597)" fill="#f7cc47"/>
  </g>
</svg>
