<svg xmlns="http://www.w3.org/2000/svg" width="18.893" height="13.807" viewBox="0 0 18.893 13.807">
  <path id="Path" d="M16.828.412A2.42,2.42,0,0,1,18.5,2.156,26.768,26.768,0,0,1,18.893,6.9a26.768,26.768,0,0,1-.395,4.747,2.421,2.421,0,0,1-1.67,1.744c-1.473.412-7.381.412-7.381.412s-5.908,0-7.381-.412a2.421,2.421,0,0,1-1.67-1.744A26.776,26.776,0,0,1,0,6.9,26.775,26.775,0,0,1,.395,2.156,2.42,2.42,0,0,1,2.065.412C3.539,0,9.447,0,9.447,0S15.355,0,16.828.412ZM7.675,4.2v6l4.723-3Z" fill="#fff"/>
</svg>
