<svg id="Group_6023" data-name="Group 6023" xmlns="http://www.w3.org/2000/svg" width="66.416" height="66.417" viewBox="0 0 66.416 66.417">
  <path id="Path_117" data-name="Path 117" d="M331.753,145.423a4.151,4.151,0,0,0,4.151-4.151V104.95a4.151,4.151,0,1,0-8.3,0v36.322a4.151,4.151,0,0,0,4.151,4.151Z" transform="translate(-298.545 -100.799)" fill="#f7cc47"/>
  <path id="Path_118" data-name="Path 118" d="M428.4,412.953a4.152,4.152,0,0,0,4.152,4.152h10.378a4.151,4.151,0,0,0,0-8.3H432.552a4.151,4.151,0,0,0-4.152,4.151Z" transform="translate(-380.663 -351.725)" fill="#28293e"/>
  <path id="Path_119" data-name="Path 119" d="M421.337,295.556a4.153,4.153,0,0,0,2.937-1.214l7.264-7.264h0a4.153,4.153,0,1,0-5.874-5.874l-7.264,7.264h0a4.151,4.151,0,0,0,2.937,7.088Z" transform="translate(-371.525 -246.781)" fill="#28293e"/>
  <path id="Path_120" data-name="Path 120" d="M212.866,294.343a4.153,4.153,0,1,0,5.874-5.874l-7.264-7.264h0a4.153,4.153,0,1,0-5.874,5.874Z" transform="translate(-198.162 -246.782)" fill="#28293e"/>
  <path id="Path_121" data-name="Path 121" d="M174.953,417.1H185.33a4.151,4.151,0,0,0,0-8.3H174.953a4.151,4.151,0,0,0,0,8.3Z" transform="translate(-170.802 -351.723)" fill="#28293e"/>
  <path id="Path_122" data-name="Path 122" d="M332.378,408.389a5.189,5.189,0,1,1-5.189-5.189,5.189,5.189,0,0,1,5.189,5.189" transform="translate(-293.981 -347.161)" fill="#ef6d58"/>
</svg>
