<svg xmlns="http://www.w3.org/2000/svg" width="60.597" height="56.811" viewBox="0 0 60.597 56.811">
  <g id="noun-triforce-4669932" transform="translate(-170.928 -112.235)">
    <path id="Path_741" data-name="Path 741" d="M230.6,157.837l-22.74-41.691h0a7.58,7.58,0,0,0-13.265,0l-22.74,41.691h0a7.58,7.58,0,0,0,6.633,11.209h45.481a7.58,7.58,0,0,0,6.633-11.209Zm-29.373-38.062,8.272,15.161H192.956Zm-22.74,41.691L186.4,146.95l8.3,14.516Zm14.108-18.95h17.263l-8.632,15.1Zm15.161,18.95,8.291-14.516,7.921,14.516Z" transform="translate(0 0)" fill="#28293e"/>
    <path id="Path_743" data-name="Path 743" d="M73.255,102.548l8.608,15.4,8.834-15.4Z" transform="translate(119.193 39.825)" fill="#f7cc47"/>
  </g>
</svg>
