<svg xmlns="http://www.w3.org/2000/svg" width="60.615" height="60.619" viewBox="0 0 60.615 60.619">
  <g id="noun-strike-4669938" transform="translate(-170.627 -100.776)">
    <path id="Path_744" data-name="Path 744" d="M321.7,236.433a11.416,11.416,0,1,0,4.552,4.195,11.37,11.37,0,0,0-4.552-4.195Zm-5.127,13.939a3.791,3.791,0,1,1,2.68-1.11A3.788,3.788,0,0,1,316.576,250.372Z" transform="translate(-111.806 -111.688)" fill="#ef6d58"/>
    <path id="Path_745" data-name="Path 745" d="M200.258,101.083a7.579,7.579,0,0,0-9.163,4.435l-7.458-3.108a8.67,8.67,0,0,0-11.371,11.371l3.127,7.439a7.579,7.579,0,0,0-4.463,9.162c.208.73,5.326,17.825,18.857,26.419h0a26.532,26.532,0,0,0,36.86-36.86c-8.613-13.532-25.669-18.649-26.39-18.857Zm4.51,52.76a18.844,18.844,0,0,1-10.774-3.373c-11.361-7.135-15.758-22.212-15.758-22.212l7.581-1.895-6.548-15.54a1.089,1.089,0,0,1,1.422-1.421l15.55,6.538,1.895-7.581s15.076,4.4,22.212,15.758a18.952,18.952,0,0,1-15.579,29.726Z" fill="#28293e"/>
  </g>
</svg>
