<svg xmlns="http://www.w3.org/2000/svg" width="61.615" height="61.658" viewBox="0 0 61.615 61.658">
  <g id="noun-developer-4735648" transform="translate(-70.001)">
    <path id="Path_25740" data-name="Path 25740" d="M229,29.368a14.9,14.9,0,0,0,15.084-14.653,15.09,15.09,0,0,0-30.169-.062A14.915,14.915,0,0,0,229,29.368Zm0-7.142A7.512,7.512,0,1,0,229,7.2a7.448,7.448,0,0,0-7.511,7.45A7.554,7.554,0,0,0,229,22.226Z" transform="translate(-128.096)" fill="#28293e" fill-rule="evenodd"/>
    <path id="Path_25741" data-name="Path 25741" d="M77.574,311.559v1.847H70v-1.785c0-3.264,0-6.588.308-9.543a20.687,20.687,0,0,1,3.325-9.974c4.372-6.219,12.991-8.743,27.275-8.743,1.293,0,2.524,0,3.756.061a40.711,40.711,0,0,0-7.019,7.142c-11.513.369-15.823,2.832-17.732,5.541a13.929,13.929,0,0,0-2.093,6.711,64.874,64.874,0,0,0-.247,8.743Z" transform="translate(0 -252.206)" fill="#28293e"/>
    <path id="Path_25742" data-name="Path 25742" d="M447.954,281.46a1.217,1.217,0,0,1,.123.677L441.3,308.858a.782.782,0,0,1-.431.554l-1.047.616a.9.9,0,0,1-1.231-.308l-.554-.923a1.217,1.217,0,0,1-.123-.677l6.649-26.844a.782.782,0,0,1,.431-.554l1.047-.616a.9.9,0,0,1,1.231.308Z" transform="translate(-327.467 -249.197)" fill="#28293e" fill-rule="evenodd"/>
    <path id="Path_25743" data-name="Path 25743" d="M436.343,308.28a.556.556,0,0,1-.308-.061,1.1,1.1,0,0,1-.739-.554l-.554-.924a1.374,1.374,0,0,1-.185-.862v-.061l6.711-26.783a.953.953,0,0,1,.616-.739l1.047-.616a1.248,1.248,0,0,1,1.662.431l.677,1.047a1.374,1.374,0,0,1,.185.862v.061l-6.835,26.659a.953.953,0,0,1-.616.739l-1.047.616a1.039,1.039,0,0,1-.615.185ZM435.235,306a1.2,1.2,0,0,0,.061.493l.554.923a.547.547,0,0,0,.8.185l1.047-.616c.185-.061.246-.185.308-.369l6.773-26.659a1.2,1.2,0,0,0-.061-.493l-.677-1.046a.547.547,0,0,0-.8-.185l-1.047.616c-.185.061-.246.185-.308.369Z" transform="translate(-324.476 -247.019)" fill="#28293e"/>
    <path id="Path_25744" data-name="Path 25744" d="M535.151,382.467a.866.866,0,0,0-1.478.369l-.739,2.463a.915.915,0,0,0,.246.862l3.94,4a.935.935,0,0,1,0,1.231l-4,4.372a.934.934,0,0,0-.185.8l.616,2.34a.9.9,0,0,0,1.539.369l7.635-7.942a.936.936,0,0,0,0-1.231Z" transform="translate(-412.016 -340.169)" fill="#f6cb47"/>
    <path id="Path_25745" data-name="Path 25745" d="M531.721,398.275a.371.371,0,0,1-.246-.061,1.3,1.3,0,0,1-.923-.862l-.616-2.34a1.237,1.237,0,0,1,.246-1.047l4-4.372a.646.646,0,0,0,0-.8l-3.94-4a1.067,1.067,0,0,1-.308-1.108l.739-2.463a1.061,1.061,0,0,1,.8-.8,1.172,1.172,0,0,1,1.17.308l7.635,7.511a1.23,1.23,0,0,1,0,1.662l-7.634,7.942a1.109,1.109,0,0,1-.924.431Zm.062-17.424h-.123a.539.539,0,0,0-.369.431l-.739,2.463a.5.5,0,0,0,.185.554l3.94,4a1.229,1.229,0,0,1,0,1.662l-4,4.372a.827.827,0,0,0-.123.554l.616,2.34a.744.744,0,0,0,.431.431.5.5,0,0,0,.554-.185l7.635-7.942a.648.648,0,0,0,0-.8l-7.574-7.635A.622.622,0,0,0,531.782,380.851Z" transform="translate(-409.324 -338.553)" fill="#28293e"/>
    <path id="Path_25746" data-name="Path 25746" d="M351.721,311.907a.866.866,0,0,1,1.478.369l.739,2.463a.915.915,0,0,1-.246.862l-3.94,4a.935.935,0,0,0,0,1.231l4,4.372a.934.934,0,0,1,.185.8l-.616,2.34a.9.9,0,0,1-1.539.369l-7.573-7.881a.936.936,0,0,1,0-1.231Z" transform="translate(-243.855 -277.366)" fill="#ef6d58"/>
    <path id="Path_25747" data-name="Path 25747" d="M349.718,326.713a1,1,0,0,1-.862-.431l-7.635-7.881a1.23,1.23,0,0,1,0-1.662l7.511-7.7a1.172,1.172,0,0,1,1.17-.308,1.051,1.051,0,0,1,.8.862l.739,2.463a1.137,1.137,0,0,1-.308,1.17l-3.879,4a.646.646,0,0,0,0,.8l4,4.372a1.339,1.339,0,0,1,.246,1.047l-.616,2.34a1.2,1.2,0,0,1-.923.862.369.369,0,0,1-.246.061Zm-.493-17.178-7.511,7.635a.648.648,0,0,0,0,.8l7.573,7.942a.527.527,0,0,0,.554.185.609.609,0,0,0,.431-.431l.616-2.34a.628.628,0,0,0-.123-.554l-4-4.372a1.229,1.229,0,0,1,0-1.662l3.94-4a.744.744,0,0,0,.185-.616l-.739-2.463a.652.652,0,0,0-.369-.431,1,1,0,0,0-.554.308Z" transform="translate(-241.113 -274.748)" fill="#28293e"/>
    <path id="Path_25748" data-name="Path 25748" d="M360.1,276.634l-6.773,26.721a1.7,1.7,0,0,1-.739.985l-1.047.616a1.591,1.591,0,0,1-2.155-.554l-.493-1.047a1.777,1.777,0,0,1-.185-1.108l6.649-26.844a1.7,1.7,0,0,1,.739-.985l1.047-.616a1.591,1.591,0,0,1,2.155.554l.616,1.108a1.321,1.321,0,0,1,.185,1.17Zm-.924,11.821.739-2.463a1.587,1.587,0,0,1,2.647-.616l7.511,7.7a1.525,1.525,0,0,1,0,2.093l-7.7,8a1.577,1.577,0,0,1-2.647-.677l-.616-2.34a1.5,1.5,0,0,1,.369-1.416l4-4.372a.28.28,0,0,0,0-.308l-3.94-4a1.728,1.728,0,0,1-.369-1.6Zm-10.282-10.221.739,2.463a1.577,1.577,0,0,1-.369,1.478l-3.94,4a.28.28,0,0,0,0,.308l4,4.372a1.5,1.5,0,0,1,.369,1.416l-.616,2.34a1.555,1.555,0,0,1-2.647.677l-7.634-7.881a1.525,1.525,0,0,1,0-2.093l7.511-7.7a1.54,1.54,0,0,1,2.586.615Zm10.467-2.463a1.217,1.217,0,0,1,.123.677l-6.773,26.721a.782.782,0,0,1-.431.554l-1.047.616a.9.9,0,0,1-1.231-.308l-.554-.923a1.217,1.217,0,0,1-.123-.677l6.649-26.844a.782.782,0,0,1,.431-.554l1.047-.616a.9.9,0,0,1,1.231.308ZM362,285.808a.866.866,0,0,0-1.478.369l-.739,2.463a.915.915,0,0,0,.246.862l.559.568,3.381,3.434a.935.935,0,0,1,0,1.231l-4,4.372a.934.934,0,0,0-.185.8l.616,2.34a.9.9,0,0,0,1.539.369l7.635-7.942a.936.936,0,0,0,0-1.231Zm-13.73-7.388a.871.871,0,0,0-1.478-.369l-7.511,7.7a.936.936,0,0,0,0,1.231l7.635,7.942a.917.917,0,0,0,1.539-.369l.616-2.34a.889.889,0,0,0-.185-.8l-4-4.372a.936.936,0,0,1,0-1.231l3.94-4a.914.914,0,0,0,.246-.862Z" transform="translate(-238.87 -243.51)" fill="#28293e" fill-rule="evenodd"/>
  </g>
</svg>
