<svg xmlns="http://www.w3.org/2000/svg" width="31" height="31" viewBox="0 0 31 31">
  <g id="Group_6178" data-name="Group 6178" transform="translate(-1002 -527)">
    <circle id="Ellipse_356" data-name="Ellipse 356" cx="15.5" cy="15.5" r="15.5" transform="translate(1002 527)" fill="#5384a3"/>
    <circle id="Ellipse_357" data-name="Ellipse 357" cx="10.5" cy="10.5" r="10.5" transform="translate(1007 532)" fill="#fff"/>
    <path id="Icon_ionic-logo-linkedin" data-name="Icon ionic-logo-linkedin" d="M24.1,4.5H6.32A1.738,1.738,0,0,0,4.5,6.16V23.981a1.875,1.875,0,0,0,1.82,1.826H24.1a1.78,1.78,0,0,0,1.709-1.826V6.16A1.634,1.634,0,0,0,24.1,4.5Zm-13,17.761H8.052V12.77H11.1ZM9.684,11.327H9.662A1.567,1.567,0,0,1,8.052,9.69,1.576,1.576,0,0,1,9.7,8.052,1.572,1.572,0,0,1,11.332,9.69,1.576,1.576,0,0,1,9.684,11.327ZM22.261,22.261H19.208v-5.19c0-1.243-.444-2.092-1.549-2.092a1.67,1.67,0,0,0-1.565,1.127,2.055,2.055,0,0,0-.105.749v5.406H12.936V12.77h3.053v1.321a3.09,3.09,0,0,1,2.753-1.543c2,0,3.519,1.321,3.519,4.168v5.545Z" transform="translate(1002.347 527.346)" fill="#5384a3"/>
  </g>
</svg>
