<svg xmlns="http://www.w3.org/2000/svg" xmlns:xlink="http://www.w3.org/1999/xlink" width="138" height="183" viewBox="0 0 138 183">
  <defs>
    <clipPath id="clip-path">
      <rect id="Rectangle_258" data-name="Rectangle 258" width="138" height="183" rx="7" transform="translate(-0.014 55.374)" fill="#fff"/>
    </clipPath>
    <clipPath id="clip-path-2">
      <path id="Path_583" data-name="Path 583" d="M131.316,0h0A131.317,131.317,0,0,0,0,131.316,122.74,122.74,0,0,0,122.743,254.059H228.722a25.338,25.338,0,0,0,25.337-25.337V122.743A122.743,122.743,0,0,0,131.316,0" transform="translate(0 0)" fill="#36374d"/>
    </clipPath>
  </defs>
  <g id="Mask_Group_16" data-name="Mask Group 16" transform="translate(0.013 -55.374)" clip-path="url(#clip-path)">
    <g id="Mask_Group_15" data-name="Mask Group 15" transform="translate(428.28 146.874) rotate(135)" clip-path="url(#clip-path-2)">
      <g id="Group_6050" data-name="Group 6050" transform="translate(13.875 -39.081)">
        <path id="Path_526" data-name="Path 526" d="M18.8,0h0A18.8,18.8,0,0,0,0,18.8a17.57,17.57,0,0,0,17.57,17.57H32.741a3.627,3.627,0,0,0,3.627-3.627V17.57A17.571,17.571,0,0,0,18.8,0" transform="translate(42.065 120.913)" fill="#36374d" opacity="0.454"/>
        <path id="Path_527" data-name="Path 527" d="M18.8,0h0A18.8,18.8,0,0,0,0,18.8a17.57,17.57,0,0,0,17.57,17.57H32.741a3.627,3.627,0,0,0,3.627-3.627V17.57A17.571,17.571,0,0,0,18.8,0" transform="translate(42.065 40.305)" fill="#36374d" opacity="0.454"/>
        <path id="Path_528" data-name="Path 528" d="M18.8,0h0A18.8,18.8,0,0,0,0,18.8a17.57,17.57,0,0,0,17.57,17.57H32.741a3.627,3.627,0,0,0,3.627-3.627V17.57A17.571,17.571,0,0,0,18.8,0" transform="translate(126.196 80.609)" fill="#36374d" opacity="0.454"/>
        <path id="Path_529" data-name="Path 529" d="M18.8,0h0A18.8,18.8,0,0,0,0,18.8a17.57,17.57,0,0,0,17.57,17.57H32.741a3.627,3.627,0,0,0,3.627-3.627V17.57A17.571,17.571,0,0,0,18.8,0" transform="translate(168.262 38.229)" fill="#36374d" opacity="0.454"/>
        <path id="Path_530" data-name="Path 530" d="M18.8,0h0A18.8,18.8,0,0,0,0,18.8a17.57,17.57,0,0,0,17.57,17.57H32.741a3.627,3.627,0,0,0,3.627-3.627V17.57A17.571,17.571,0,0,0,18.8,0" transform="translate(210.327 40.304)" fill="#36374d" opacity="0.454"/>
        <path id="Path_531" data-name="Path 531" d="M18.8,0h0A18.8,18.8,0,0,0,0,18.8a17.57,17.57,0,0,0,17.57,17.57H32.741a3.627,3.627,0,0,0,3.627-3.627V17.57A17.571,17.571,0,0,0,18.8,0" transform="translate(294.458 0)" fill="#36374d" opacity="0.454"/>
        <path id="Path_532" data-name="Path 532" d="M18.8,0h0A18.8,18.8,0,0,0,0,18.8a17.57,17.57,0,0,0,17.57,17.57H32.741a3.627,3.627,0,0,0,3.627-3.627V17.57A17.571,17.571,0,0,0,18.8,0" transform="translate(42.065 203.598)" fill="#36374d" opacity="0.454"/>
        <path id="Path_533" data-name="Path 533" d="M18.8,0h0A18.8,18.8,0,0,0,0,18.8a17.57,17.57,0,0,0,17.57,17.57H32.741a3.627,3.627,0,0,0,3.627-3.627V17.57A17.571,17.571,0,0,0,18.8,0" transform="translate(126.196 243.902)" fill="#36374d" opacity="0.454"/>
        <path id="Path_534" data-name="Path 534" d="M18.8,0h0A18.8,18.8,0,0,0,0,18.8a17.57,17.57,0,0,0,17.57,17.57H32.741a3.627,3.627,0,0,0,3.627-3.627V17.57A17.571,17.571,0,0,0,18.8,0" transform="translate(210.327 243.902)" fill="#36374d" opacity="0.454"/>
        <path id="Path_535" data-name="Path 535" d="M18.8,0h0A18.8,18.8,0,0,0,0,18.8a17.57,17.57,0,0,0,17.57,17.57H32.741a3.627,3.627,0,0,0,3.627-3.627V17.57A17.571,17.571,0,0,0,18.8,0" transform="translate(42.065 286.282)" fill="#36374d" opacity="0.454"/>
        <path id="Path_536" data-name="Path 536" d="M18.8,0h0A18.8,18.8,0,0,0,0,18.8a17.57,17.57,0,0,0,17.57,17.57H32.741a3.627,3.627,0,0,0,3.627-3.627V17.57A17.571,17.571,0,0,0,18.8,0" transform="translate(126.196 163.293)" fill="#36374d" opacity="0.454"/>
        <path id="Path_537" data-name="Path 537" d="M18.8,0h0A18.8,18.8,0,0,0,0,18.8a17.57,17.57,0,0,0,17.57,17.57H32.741a3.627,3.627,0,0,0,3.627-3.627V17.57A17.571,17.571,0,0,0,18.8,0" transform="translate(210.327 122.989)" fill="#36374d" opacity="0.454"/>
        <path id="Path_538" data-name="Path 538" d="M18.8,0h0A18.8,18.8,0,0,0,0,18.8a17.57,17.57,0,0,0,17.57,17.57H32.741a3.627,3.627,0,0,0,3.627-3.627V17.57A17.571,17.571,0,0,0,18.8,0" transform="translate(294.458 82.684)" fill="#36374d" opacity="0.454"/>
        <path id="Path_539" data-name="Path 539" d="M18.8,36.368h0A18.8,18.8,0,0,1,0,17.57,17.57,17.57,0,0,1,17.57,0H32.741a3.627,3.627,0,0,1,3.627,3.627V18.8A17.571,17.571,0,0,1,18.8,36.368" transform="translate(84.131 161.218)" fill="#36374d" opacity="0.454"/>
        <path id="Path_540" data-name="Path 540" d="M18.8,36.368h0A18.8,18.8,0,0,1,0,17.57,17.57,17.57,0,0,1,17.57,0H32.741a3.627,3.627,0,0,1,3.627,3.627V18.8A17.571,17.571,0,0,1,18.8,36.368" transform="translate(0 161.218)" fill="#36374d" opacity="0.454"/>
        <path id="Path_541" data-name="Path 541" d="M18.8,36.368h0A18.8,18.8,0,0,1,0,17.57,17.57,17.57,0,0,1,17.57,0H32.741a3.627,3.627,0,0,1,3.627,3.627V18.8A17.571,17.571,0,0,1,18.8,36.368" transform="translate(84.131 80.609)" fill="#36374d" opacity="0.454"/>
        <path id="Path_542" data-name="Path 542" d="M18.8,36.368h0A18.8,18.8,0,0,1,0,17.57,17.57,17.57,0,0,1,17.57,0H32.741a3.627,3.627,0,0,1,3.627,3.627V18.8A17.571,17.571,0,0,1,18.8,36.368" transform="translate(0 80.609)" fill="#36374d" opacity="0.454"/>
        <path id="Path_543" data-name="Path 543" d="M18.8,36.368h0A18.8,18.8,0,0,1,0,17.57,17.57,17.57,0,0,1,17.57,0H32.741a3.627,3.627,0,0,1,3.627,3.627V18.8A17.571,17.571,0,0,1,18.8,36.368" transform="translate(168.262 120.913)" fill="#36374d" opacity="0.454"/>
        <path id="Path_544" data-name="Path 544" d="M18.8,36.368h0A18.8,18.8,0,0,1,0,17.57,17.57,17.57,0,0,1,17.57,0H32.741a3.627,3.627,0,0,1,3.627,3.627V18.8A17.571,17.571,0,0,1,18.8,36.368" transform="translate(252.393 80.609)" fill="#36374d" opacity="0.454"/>
        <path id="Path_545" data-name="Path 545" d="M18.8,36.368h0A18.8,18.8,0,0,1,0,17.57,17.57,17.57,0,0,1,17.57,0H32.741a3.627,3.627,0,0,1,3.627,3.627V18.8A17.571,17.571,0,0,1,18.8,36.368" transform="translate(336.523 40.304)" fill="#36374d" opacity="0.454"/>
        <path id="Path_546" data-name="Path 546" d="M18.8,36.368h0A18.8,18.8,0,0,1,0,17.57,17.57,17.57,0,0,1,17.57,0H32.741a3.627,3.627,0,0,1,3.627,3.627V18.8A17.571,17.571,0,0,1,18.8,36.368" transform="translate(84.131 243.902)" fill="#36374d" opacity="0.454"/>
        <path id="Path_547" data-name="Path 547" d="M18.8,36.368h0A18.8,18.8,0,0,1,0,17.57,17.57,17.57,0,0,1,17.57,0H32.741a3.627,3.627,0,0,1,3.627,3.627V18.8A17.571,17.571,0,0,1,18.8,36.368" transform="translate(0 243.902)" fill="#36374d" opacity="0.454"/>
        <path id="Path_548" data-name="Path 548" d="M18.8,36.368h0A18.8,18.8,0,0,1,0,17.57,17.57,17.57,0,0,1,17.57,0H32.741a3.627,3.627,0,0,1,3.627,3.627V18.8A17.571,17.571,0,0,1,18.8,36.368" transform="translate(168.262 284.207)" fill="#36374d" opacity="0.454"/>
        <path id="Path_549" data-name="Path 549" d="M18.8,36.368h0A18.8,18.8,0,0,1,0,17.57,17.57,17.57,0,0,1,17.57,0H32.741a3.627,3.627,0,0,1,3.627,3.627V18.8A17.571,17.571,0,0,1,18.8,36.368" transform="translate(84.131 326.587)" fill="#36374d" opacity="0.454"/>
        <path id="Path_550" data-name="Path 550" d="M18.8,36.368h0A18.8,18.8,0,0,1,0,17.57,17.57,17.57,0,0,1,17.57,0H32.741a3.627,3.627,0,0,1,3.627,3.627V18.8A17.571,17.571,0,0,1,18.8,36.368" transform="translate(168.262 203.598)" fill="#36374d" opacity="0.454"/>
        <path id="Path_551" data-name="Path 551" d="M18.8,36.368h0A18.8,18.8,0,0,1,0,17.57,17.57,17.57,0,0,1,17.57,0H32.741a3.627,3.627,0,0,1,3.627,3.627V18.8A17.571,17.571,0,0,1,18.8,36.368" transform="translate(252.393 203.598)" fill="#36374d" opacity="0.454"/>
        <path id="Path_552" data-name="Path 552" d="M18.8,36.368h0A18.8,18.8,0,0,1,0,17.57,17.57,17.57,0,0,1,17.57,0H32.741a3.627,3.627,0,0,1,3.627,3.627V18.8A17.571,17.571,0,0,1,18.8,36.368" transform="translate(252.393 163.293)" fill="#36374d" opacity="0.454"/>
        <path id="Path_553" data-name="Path 553" d="M18.8,36.368h0A18.8,18.8,0,0,1,0,17.57,17.57,17.57,0,0,1,17.57,0H32.741a3.627,3.627,0,0,1,3.627,3.627V18.8A17.571,17.571,0,0,1,18.8,36.368" transform="translate(336.523 122.989)" fill="#36374d" opacity="0.454"/>
        <path id="Path_554" data-name="Path 554" d="M18.8,0h0A18.8,18.8,0,0,0,0,18.8a17.57,17.57,0,0,0,17.57,17.57H32.741a3.627,3.627,0,0,0,3.627-3.627V17.57A17.571,17.571,0,0,0,18.8,0" transform="translate(42.065 161.218)" fill="#36374d"/>
        <path id="Path_555" data-name="Path 555" d="M18.8,0h0A18.8,18.8,0,0,0,0,18.8a17.57,17.57,0,0,0,17.57,17.57H32.741a3.627,3.627,0,0,0,3.627-3.627V17.57A17.571,17.571,0,0,0,18.8,0" transform="translate(42.065 80.609)" fill="#36374d"/>
        <path id="Path_556" data-name="Path 556" d="M18.8,0h0A18.8,18.8,0,0,0,0,18.8a17.57,17.57,0,0,0,17.57,17.57H32.741a3.627,3.627,0,0,0,3.627-3.627V17.57A17.571,17.571,0,0,0,18.8,0" transform="translate(126.196 120.913)" fill="#36374d"/>
        <path id="Path_557" data-name="Path 557" d="M18.8,0h0A18.8,18.8,0,0,0,0,18.8a17.57,17.57,0,0,0,17.57,17.57H32.741a3.627,3.627,0,0,0,3.627-3.627V17.57A17.571,17.571,0,0,0,18.8,0" transform="translate(210.327 80.609)" fill="#36374d"/>
        <path id="Path_558" data-name="Path 558" d="M18.8,0h0A18.8,18.8,0,0,0,0,18.8a17.57,17.57,0,0,0,17.57,17.57H32.741a3.627,3.627,0,0,0,3.627-3.627V17.57A17.571,17.571,0,0,0,18.8,0" transform="translate(294.458 40.304)" fill="#36374d"/>
        <path id="Path_559" data-name="Path 559" d="M18.8,0h0A18.8,18.8,0,0,0,0,18.8a17.57,17.57,0,0,0,17.57,17.57H32.741a3.627,3.627,0,0,0,3.627-3.627V17.57A17.571,17.571,0,0,0,18.8,0" transform="translate(42.065 243.902)" fill="#36374d"/>
        <path id="Path_560" data-name="Path 560" d="M18.8,0h0A18.8,18.8,0,0,0,0,18.8a17.57,17.57,0,0,0,17.57,17.57H32.741a3.627,3.627,0,0,0,3.627-3.627V17.57A17.571,17.571,0,0,0,18.8,0" transform="translate(126.196 284.207)" fill="#36374d"/>
        <path id="Path_561" data-name="Path 561" d="M18.8,0h0A18.8,18.8,0,0,0,0,18.8a17.57,17.57,0,0,0,17.57,17.57H32.741a3.627,3.627,0,0,0,3.627-3.627V17.57A17.571,17.571,0,0,0,18.8,0" transform="translate(42.065 326.587)" fill="#36374d"/>
        <path id="Path_562" data-name="Path 562" d="M18.8,0h0A18.8,18.8,0,0,0,0,18.8a17.57,17.57,0,0,0,17.57,17.57H32.741a3.627,3.627,0,0,0,3.627-3.627V17.57A17.571,17.571,0,0,0,18.8,0" transform="translate(126.196 203.598)" fill="#36374d"/>
        <path id="Path_563" data-name="Path 563" d="M18.8,0h0A18.8,18.8,0,0,0,0,18.8a17.57,17.57,0,0,0,17.57,17.57H32.741a3.627,3.627,0,0,0,3.627-3.627V17.57A17.571,17.571,0,0,0,18.8,0" transform="translate(210.327 203.598)" fill="#36374d"/>
        <path id="Path_564" data-name="Path 564" d="M18.8,0h0A18.8,18.8,0,0,0,0,18.8a17.57,17.57,0,0,0,17.57,17.57H32.741a3.627,3.627,0,0,0,3.627-3.627V17.57A17.571,17.571,0,0,0,18.8,0" transform="translate(210.327 163.293)" fill="#36374d"/>
        <path id="Path_565" data-name="Path 565" d="M18.8,0h0A18.8,18.8,0,0,0,0,18.8a17.57,17.57,0,0,0,17.57,17.57H32.741a3.627,3.627,0,0,0,3.627-3.627V17.57A17.571,17.571,0,0,0,18.8,0" transform="translate(294.458 122.989)" fill="#36374d"/>
        <path id="Path_566" data-name="Path 566" d="M18.8,36.368h0A18.8,18.8,0,0,1,0,17.57,17.57,17.57,0,0,1,17.57,0H32.741a3.627,3.627,0,0,1,3.627,3.627V18.8A17.571,17.571,0,0,1,18.8,36.368" transform="translate(84.131 120.913)" fill="#36374d"/>
        <path id="Path_567" data-name="Path 567" d="M18.8,36.368h0A18.8,18.8,0,0,1,0,17.57,17.57,17.57,0,0,1,17.57,0H32.741a3.627,3.627,0,0,1,3.627,3.627V18.8A17.571,17.571,0,0,1,18.8,36.368" transform="translate(0 120.913)" fill="#36374d"/>
        <path id="Path_568" data-name="Path 568" d="M18.8,36.368h0A18.8,18.8,0,0,1,0,17.57,17.57,17.57,0,0,1,17.57,0H32.741a3.627,3.627,0,0,1,3.627,3.627V18.8A17.571,17.571,0,0,1,18.8,36.368" transform="translate(84.131 40.305)" fill="#36374d"/>
        <path id="Path_569" data-name="Path 569" d="M18.8,36.368h0A18.8,18.8,0,0,1,0,17.57,17.57,17.57,0,0,1,17.57,0H32.741a3.627,3.627,0,0,1,3.627,3.627V18.8A17.571,17.571,0,0,1,18.8,36.368" transform="translate(0 40.305)" fill="#36374d"/>
        <path id="Path_570" data-name="Path 570" d="M18.8,36.368h0A18.8,18.8,0,0,1,0,17.57,17.57,17.57,0,0,1,17.57,0H32.741a3.627,3.627,0,0,1,3.627,3.627V18.8A17.571,17.571,0,0,1,18.8,36.368" transform="translate(126.196 40.305)" fill="#36374d"/>
        <path id="Path_571" data-name="Path 571" d="M18.8,36.368h0A18.8,18.8,0,0,1,0,17.57,17.57,17.57,0,0,1,17.57,0H32.741a3.627,3.627,0,0,1,3.627,3.627V18.8A17.571,17.571,0,0,1,18.8,36.368" transform="translate(168.262 80.609)" fill="#36374d"/>
        <path id="Path_572" data-name="Path 572" d="M18.8,36.368h0A18.8,18.8,0,0,1,0,17.57,17.57,17.57,0,0,1,17.57,0H32.741a3.627,3.627,0,0,1,3.627,3.627V18.8A17.571,17.571,0,0,1,18.8,36.368" transform="translate(252.393 40.304)" fill="#36374d"/>
        <path id="Path_573" data-name="Path 573" d="M18.8,36.368h0A18.8,18.8,0,0,1,0,17.57,17.57,17.57,0,0,1,17.57,0H32.741a3.627,3.627,0,0,1,3.627,3.627V18.8A17.571,17.571,0,0,1,18.8,36.368" transform="translate(336.523 0)" fill="#36374d"/>
        <path id="Path_574" data-name="Path 574" d="M18.8,36.368h0A18.8,18.8,0,0,1,0,17.57,17.57,17.57,0,0,1,17.57,0H32.741a3.627,3.627,0,0,1,3.627,3.627V18.8A17.571,17.571,0,0,1,18.8,36.368" transform="translate(84.131 203.598)" fill="#36374d"/>
        <path id="Path_575" data-name="Path 575" d="M18.8,36.368h0A18.8,18.8,0,0,1,0,17.57,17.57,17.57,0,0,1,17.57,0H32.741a3.627,3.627,0,0,1,3.627,3.627V18.8A17.571,17.571,0,0,1,18.8,36.368" transform="translate(0 203.598)" fill="#36374d"/>
        <path id="Path_576" data-name="Path 576" d="M18.8,36.368h0A18.8,18.8,0,0,1,0,17.57,17.57,17.57,0,0,1,17.57,0H32.741a3.627,3.627,0,0,1,3.627,3.627V18.8A17.571,17.571,0,0,1,18.8,36.368" transform="translate(168.262 243.902)" fill="#36374d"/>
        <path id="Path_577" data-name="Path 577" d="M18.8,36.368h0A18.8,18.8,0,0,1,0,17.57,17.57,17.57,0,0,1,17.57,0H32.741a3.627,3.627,0,0,1,3.627,3.627V18.8A17.571,17.571,0,0,1,18.8,36.368" transform="translate(210.327 286.282)" fill="#36374d"/>
        <path id="Path_578" data-name="Path 578" d="M18.8,36.368h0A18.8,18.8,0,0,1,0,17.57,17.57,17.57,0,0,1,17.57,0H32.741a3.627,3.627,0,0,1,3.627,3.627V18.8A17.571,17.571,0,0,1,18.8,36.368" transform="translate(252.393 243.902)" fill="#36374d"/>
        <path id="Path_579" data-name="Path 579" d="M18.8,36.368h0A18.8,18.8,0,0,1,0,17.57,17.57,17.57,0,0,1,17.57,0H32.741a3.627,3.627,0,0,1,3.627,3.627V18.8A17.571,17.571,0,0,1,18.8,36.368" transform="translate(84.131 286.282)" fill="#36374d"/>
        <path id="Path_580" data-name="Path 580" d="M18.8,36.368h0A18.8,18.8,0,0,1,0,17.57,17.57,17.57,0,0,1,17.57,0H32.741a3.627,3.627,0,0,1,3.627,3.627V18.8A17.571,17.571,0,0,1,18.8,36.368" transform="translate(168.262 163.293)" fill="#36374d"/>
        <path id="Path_581" data-name="Path 581" d="M18.8,36.368h0A18.8,18.8,0,0,1,0,17.57,17.57,17.57,0,0,1,17.57,0H32.741a3.627,3.627,0,0,1,3.627,3.627V18.8A17.571,17.571,0,0,1,18.8,36.368" transform="translate(252.393 122.989)" fill="#36374d"/>
        <path id="Path_582" data-name="Path 582" d="M18.8,36.368h0A18.8,18.8,0,0,1,0,17.57,17.57,17.57,0,0,1,17.57,0H32.741a3.627,3.627,0,0,1,3.627,3.627V18.8A17.571,17.571,0,0,1,18.8,36.368" transform="translate(336.523 82.684)" fill="#36374d"/>
      </g>
    </g>
  </g>
</svg>
