<svg xmlns="http://www.w3.org/2000/svg" xmlns:xlink="http://www.w3.org/1999/xlink" width="76.65" height="79.372" viewBox="0 0 76.65 79.372">
  <defs>
    <clipPath id="clip-path">
      <rect id="Rectangle_246" data-name="Rectangle 246" width="46" height="48" transform="translate(0 -0.317)" fill="#fff"/>
    </clipPath>
  </defs>
  <g id="Group_6216" data-name="Group 6216" transform="translate(0 -2227.628)">
    <g id="Mask_Group_10" data-name="Mask Group 10" transform="translate(0 2259.317)" clip-path="url(#clip-path)">
      <path id="Path_499" data-name="Path 499" d="M45.124,72.591h0A30.666,30.666,0,0,1,14.458,41.925,28.663,28.663,0,0,1,43.122,13.261H67.871a5.917,5.917,0,0,1,5.917,5.917V43.927A28.664,28.664,0,0,1,45.124,72.591" transform="translate(-35.963 -6.816)" fill="none" stroke="#28293e" stroke-width="1"/>
    </g>
    <path id="Path_500" data-name="Path 500" d="M19.043,0h0A19.043,19.043,0,0,0,0,19.043a17.8,17.8,0,0,0,17.8,17.8H33.168a3.674,3.674,0,0,0,3.674-3.674V17.8A17.8,17.8,0,0,0,19.043,0" transform="translate(76.15 2228.128) rotate(90)" fill="none" stroke="#ef6d58" stroke-width="1"/>
  </g>
</svg>
