<svg xmlns="http://www.w3.org/2000/svg" width="190" height="65" viewBox="0 0 190 65">
  <g id="Group_6233" data-name="Group 6233" transform="translate(-726 -3727)">
    <rect id="Rectangle_1685" data-name="Rectangle 1685" width="190" height="65" rx="5" transform="translate(726 3727)" fill="#fff"/>
    <path id="Path_1" data-name="Path 1" d="M774.948,950.035a12.136,12.136,0,0,0,3.561-.652V953.6a12.64,12.64,0,0,1-5.187.949q-3.4,0-4.941-1.714a7.472,7.472,0,0,1-1.55-5.143V937.7h-2.7v-2.4l3.112-1.891,1.632-4.371h3.612v4.409h5.8V937.7h-5.8v9.982a2.2,2.2,0,0,0,.677,1.778,2.641,2.641,0,0,0,1.784.576" transform="translate(-4.271 2816.357)" fill="#28293e"/>
    <path id="Path_2" data-name="Path 2" d="M801.236,957.361q-5.01,0-7.825-2.765t-2.815-7.819q0-5.209,2.6-8.053a9.28,9.28,0,0,1,7.205-2.846,9.141,9.141,0,0,1,6.838,2.5,9.45,9.45,0,0,1,2.449,6.908v2.739H796.321a5.488,5.488,0,0,0,1.423,3.77,5.034,5.034,0,0,0,3.752,1.354,15.6,15.6,0,0,0,3.542-.392,17.8,17.8,0,0,0,3.486-1.24v4.378A13.415,13.415,0,0,1,805.348,957a19.961,19.961,0,0,1-4.112.361m-.8-17.46a3.6,3.6,0,0,0-2.821,1.138,5.29,5.29,0,0,0-1.17,3.227h7.939a4.681,4.681,0,0,0-1.095-3.227A3.7,3.7,0,0,0,800.439,939.9Z" transform="translate(-15.144 2813.547)" fill="#28293e"/>
    <path id="Path_3" data-name="Path 3" d="M835.413,957.361q-9.669,0-9.666-10.621,0-5.285,2.625-8.072t7.541-2.789a14.432,14.432,0,0,1,6.452,1.4l-1.67,4.372c-.892-.354-1.715-.652-2.48-.88a8.024,8.024,0,0,0-2.3-.341q-4.413,0-4.409,6.263,0,6.073,4.409,6.072a10.072,10.072,0,0,0,3.017-.436,11.073,11.073,0,0,0,2.777-1.361v4.846a9,9,0,0,1-2.771,1.208,15.573,15.573,0,0,1-3.53.336" transform="translate(-29.583 2813.547)" fill="#28293e"/>
    <path id="Path_4" data-name="Path 4" d="M876.058,951.583H870.4v-12.1c0-2.992-1.107-4.485-3.333-4.485a3.787,3.787,0,0,0-3.423,1.613,9.867,9.867,0,0,0-1.056,5.225v9.748h-5.649V922.736h5.649v5.883c0,.455-.044,1.531-.126,3.227l-.133,1.67h.3a6.542,6.542,0,0,1,6-3.036,7.33,7.33,0,0,1,5.536,1.961,7.815,7.815,0,0,1,1.891,5.637Z" transform="translate(-42.396 2818.946)" fill="#28293e"/>
    <path id="Path_5" data-name="Path 5" d="M889.309,936.522H895.5l3.91,11.659a16.153,16.153,0,0,1,.689,3.593h.108a16.152,16.152,0,0,1,.8-3.593l3.84-11.659h6.06l-8.768,23.368a10.054,10.054,0,0,1-3.442,4.852,8.667,8.667,0,0,1-5.219,1.613,13.247,13.247,0,0,1-2.872-.316V961.56a9.857,9.857,0,0,0,2.227.24,4,4,0,0,0,2.619-.917,5.905,5.905,0,0,0,1.752-2.771l.335-1.018Z" transform="translate(-55.693 2813.283)" fill="#28293e"/>
    <path id="Path_6" data-name="Path 6" d="M935.342,950.035a12.138,12.138,0,0,0,3.562-.652V953.6a12.643,12.643,0,0,1-5.187.949q-3.4,0-4.941-1.714a7.472,7.472,0,0,1-1.55-5.143V937.7h-2.7v-2.4l3.112-1.891,1.632-4.371h3.613v4.409h5.8V937.7h-5.8v9.982a2.2,2.2,0,0,0,.676,1.778,2.642,2.642,0,0,0,1.784.576" transform="translate(-70.159 2816.357)" fill="#28293e"/>
    <path id="Path_7" data-name="Path 7" d="M958.079,950.035a12.139,12.139,0,0,0,3.562-.652V953.6a12.644,12.644,0,0,1-5.187.949q-3.4,0-4.941-1.714a7.473,7.473,0,0,1-1.549-5.143V937.7h-2.7v-2.4l3.112-1.891,1.632-4.371h3.612v4.409h5.8V937.7h-5.8v9.982a2.2,2.2,0,0,0,.676,1.778,2.643,2.643,0,0,0,1.784.576" transform="translate(-79.5 2816.357)" fill="#28293e"/>
    <path id="Path_8" data-name="Path 8" d="M914.542,936.06l32.92.011v5.184H912.9Z" transform="translate(-65.382 2813.473)" fill="#d23538" fill-rule="evenodd"/>
    <path id="Path_9" data-name="Path 9" d="M938.7,936.06l19.352.011v5.184H938.677Z" transform="translate(-75.973 2813.473)" fill="#f7973a" fill-rule="evenodd"/>
  </g>
</svg>
