<svg xmlns="http://www.w3.org/2000/svg" width="44.621" height="19.161" viewBox="0 0 44.621 19.161">
  <g id="Frame" transform="translate(0 0)">
    <g id="mask0" transform="translate(0 0)">
      <path id="Vector" d="M0,0H9.686V17.706H0Z" fill="none"/>
    </g>
    <g id="Group" transform="translate(0 0)">
      <path id="Vector-2" data-name="Vector" d="M7.813,8.361a.569.569,0,0,0-.531-.108L2.256,9.769,9.437,3.2a.514.514,0,0,0,.017-.75c-.01-.01-.021-.02-.032-.029L6.741.135a.573.573,0,0,0-.784.043A.547.547,0,0,0,5.9.259L.06,9.624a.4.4,0,0,0,.083.514l1.137.973a.569.569,0,0,0,.514.114l4.071-1.085L1.179,17.179a.351.351,0,0,0,.547.429l7.829-7.173a.4.4,0,0,0,.011-.577l-.022-.021Z" transform="translate(0)" fill="#989898"/>
    </g>
    <g id="mask1" transform="translate(33.323 1.976)">
      <path id="Vector-3" data-name="Vector" d="M0,0H11.3V17.185H0Z" fill="none"/>
    </g>
    <g id="Group-2" data-name="Group" transform="translate(33.323 1.976)">
      <path id="Vector-4" data-name="Vector" d="M11.039,5.382l-.777-.663a.265.265,0,0,0-.362.02.244.244,0,0,0-.049.078l-1.6,4.122c-.766,1.975-1.674,2.651-2.243,2.651-.182,0-.441-.126-.441-.548a2.613,2.613,0,0,1,.212-.924L7.3,6.194a.72.72,0,0,0-.211-.812l-.778-.663a.265.265,0,0,0-.362.02.244.244,0,0,0-.049.078L4.3,8.939c-.766,1.975-1.674,2.651-2.242,2.651-.182,0-.441-.126-.441-.548a2.626,2.626,0,0,1,.212-.924L5.159,1.537A.721.721,0,0,0,4.948.725L4.17.062a.264.264,0,0,0-.361.02A.248.248,0,0,0,3.759.16L.355,8.939A5.016,5.016,0,0,0,0,10.566a1.841,1.841,0,0,0,1.832,1.966A2.989,2.989,0,0,0,4.044,11.2,1.787,1.787,0,0,0,5.78,12.532a2.337,2.337,0,0,0,1.341-.483L6,14.934a5.329,5.329,0,0,0-3.7-.252.136.136,0,0,0,.035.266,5.3,5.3,0,0,1,3.871,2.038.539.539,0,0,0,.732.1.5.5,0,0,0,.175-.225L11.249,6.2A.721.721,0,0,0,11.039,5.382Z" transform="translate(0 0)" fill="#989898"/>
    </g>
    <path id="Vector-5" data-name="Vector" d="M2.241,11.811c-.312,0-.544-.293-.544-.73a3.072,3.072,0,0,1,.234-.98C3,7.436,4.455,5.989,5.107,5.989c.431,0,.5.429.5.939,0,2.081-1.942,4.881-3.363,4.881ZM5.7,4.745A3.081,3.081,0,0,0,3.577,5.812L5.211,1.566A.738.738,0,0,0,5,.739L4.21.063a.265.265,0,0,0-.365.02.249.249,0,0,0-.05.08L.358,9.108A5.151,5.151,0,0,0,0,10.766a1.958,1.958,0,0,0,2.094,2c2.847,0,5.415-3.226,5.415-5.828C7.508,5.667,6.866,4.745,5.7,4.745Z" transform="translate(25.435 1.748)" fill="#989898"/>
    <path id="Vector-6" data-name="Vector" d="M10.229,11.811c-.312,0-.545-.293-.545-.73a3.069,3.069,0,0,1,.235-.98c1.07-2.665,2.527-4.112,3.18-4.112.432,0,.5.429.5.939,0,2.081-1.943,4.881-3.368,4.881Zm1.338-6L13.2,1.566a.737.737,0,0,0-.213-.827L12.2.063a.266.266,0,0,0-.366.02.245.245,0,0,0-.05.08L8.344,9.108c-.775,2.012-1.693,2.7-2.268,2.7-.184,0-.446-.128-.446-.558a2.681,2.681,0,0,1,.214-.942l1.539-4a.738.738,0,0,0-.213-.828l-.787-.675a.266.266,0,0,0-.365.02.25.25,0,0,0-.05.08l-1.617,4.2c-.774,2.012-1.692,2.7-2.268,2.7-.184,0-.446-.128-.446-.558a2.685,2.685,0,0,1,.214-.942l1.539-4a.737.737,0,0,0-.214-.827L2.39,4.808a.266.266,0,0,0-.365.02.251.251,0,0,0-.05.08L.359,9.108A5.156,5.156,0,0,0,0,10.766a1.869,1.869,0,0,0,1.852,2,3.018,3.018,0,0,0,2.236-1.357,1.809,1.809,0,0,0,1.755,1.357A3.019,3.019,0,0,0,8.084,11.4a1.975,1.975,0,0,0,1.994,1.365c2.851,0,5.424-3.226,5.424-5.828,0-1.274-.643-2.2-1.808-2.2A3.085,3.085,0,0,0,11.567,5.812Z" transform="translate(10.174 1.748)" fill="#989898"/>
  </g>
</svg>
