<svg xmlns="http://www.w3.org/2000/svg" width="56.959" height="57.057" viewBox="0 0 56.959 57.057">
  <path id="Icon_feather-phone-call" data-name="Icon feather-phone-call" d="M34.991,11.339a12.3,12.3,0,0,1,9.716,9.716M34.991,1.5A22.137,22.137,0,0,1,54.546,21.03m-2.46,19.628v7.379a4.919,4.919,0,0,1-5.362,4.919A48.677,48.677,0,0,1,25.5,45.405,47.964,47.964,0,0,1,10.739,30.647,48.677,48.677,0,0,1,3.188,9.322,4.919,4.919,0,0,1,8.083,3.96h7.379A4.919,4.919,0,0,1,20.381,8.19,31.582,31.582,0,0,0,22.1,15.1,4.919,4.919,0,0,1,21,20.292l-3.124,3.124A39.355,39.355,0,0,0,32.63,38.174l3.124-3.124a4.919,4.919,0,0,1,5.19-1.107,31.582,31.582,0,0,0,6.912,1.722A4.919,4.919,0,0,1,52.086,40.658Z" transform="translate(-0.516 1.426)" fill="none" stroke="#28293e" stroke-linecap="round" stroke-linejoin="round" stroke-width="5.3"/>
</svg>
