<svg xmlns="http://www.w3.org/2000/svg" xmlns:xlink="http://www.w3.org/1999/xlink" width="43.37" height="45.5" viewBox="0 0 43.37 45.5">
  <defs>
    <clipPath id="clip-path">
      <rect id="Rectangle_1690" data-name="Rectangle 1690" width="36" height="38" transform="translate(0 0)" fill="#fff"/>
    </clipPath>
  </defs>
  <g id="Group_6212" data-name="Group 6212" transform="translate(0.5 0.5)">
    <g id="Mask_Group_42" data-name="Mask Group 42" transform="translate(6.87 7)" clip-path="url(#clip-path)">
      <path id="Path_25729" data-name="Path 25729" d="M36.892,59.7h0a24,24,0,0,0,24-24A22.434,22.434,0,0,0,38.459,13.261H19.089a4.631,4.631,0,0,0-4.631,4.631v19.37A22.434,22.434,0,0,0,36.892,59.7" transform="translate(-8.062 -7.537)" fill="none" stroke="#28293e" stroke-width="1"/>
    </g>
    <path id="Path_25730" data-name="Path 25730" d="M6.256,12.1h0A6.256,6.256,0,0,1,0,5.848,5.848,5.848,0,0,1,5.848,0H10.9A1.207,1.207,0,0,1,12.1,1.207V6.256A5.848,5.848,0,0,1,6.256,12.1" transform="translate(12.104 0) rotate(90)" fill="none" stroke="#ef6d58" stroke-width="1"/>
  </g>
</svg>
