<svg id="Group_6164" data-name="Group 6164" xmlns="http://www.w3.org/2000/svg" xmlns:xlink="http://www.w3.org/1999/xlink" width="80.7" height="82.781" viewBox="0 0 80.7 82.781">
  <defs>
    <clipPath id="clip-path">
      <rect id="Rectangle_266" data-name="Rectangle 266" width="80.7" height="82.781" fill="#f7cc47"/>
    </clipPath>
  </defs>
  <g id="Group_6084" data-name="Group 6084" clip-path="url(#clip-path)">
    <path id="Path_621" data-name="Path 621" d="M80.561,60.589c.309-.861.117-1.285-.691-1.455-4.345-.912-8.694-1.8-13.039-2.713a1.052,1.052,0,0,0-1.4.821c-.293.939-.65,1.857-.962,2.735l-2.761-3.052c1.419-.746,1.56-1.068,1.151-2.671q-1.093-4.287-2.188-8.575c-.447-1.76-.887-3.521-1.345-5.341.234,0,.369-.009.5,0,1.212.1,1.524-.307,1.145-1.493-.134-.419-.262-.839-.4-1.294.284-.1.491-.175.7-.238,2.366-.715,4.729-1.442,7.1-2.135.775-.226,1.347-.6,1.366-1.474.016-.744-.488-1.21-1.491-1.44-2.766-.635-5.526-1.3-8.3-1.888a1.648,1.648,0,0,1-1.5-1.294,8.4,8.4,0,0,0-.911-2.077,1.083,1.083,0,0,1,.044-1.293c1.854-2.985,3.677-5.99,5.506-8.991.552-.906.547-1.528.007-2.071s-1.145-.552-2.064.01c-2.639,1.613-5.328,3.15-7.888,4.88-1.312.886-2.479,1.275-3.871.371a.365.365,0,0,0-.157-.061c-.55-.051-.706-.418-.818-.9q-1.223-5.3-2.487-10.585c-.245-1.034-.683-1.456-1.464-1.444-.761.011-1.192.458-1.44,1.491-.835,3.469-1.658,6.941-2.527,10.4a1.349,1.349,0,0,1-.712.753c-.69.305-1.471.417-2.135.763a1.563,1.563,0,0,1-1.764-.159c-2.979-1.864-5.987-3.68-8.978-5.525a1.6,1.6,0,0,0-1.732-.236c-.786.43-.945,1.261-.385,2.183,1.825,3,3.65,6.007,5.5,8.993a1.265,1.265,0,0,1,.08,1.517,11.425,11.425,0,0,0-1,2.314,1.132,1.132,0,0,1-.983.852c-2.962.655-5.916,1.349-8.873,2.031a1.43,1.43,0,0,0-.086,2.838c.971.282,1.94.572,2.908.864,1.661.5,3.322,1,5.04,1.524a11.433,11.433,0,0,0-.463,1.507c-.054.326-.054.859.134.988.5.338.332.7.229,1.089s-.215.757-.323,1.135l-1.808,6.307c-1.661-.963-3.248-1.851-4.8-2.8a1.938,1.938,0,0,1-.778-.993Q16.8,36.049,14.223,27.32a4.673,4.673,0,0,1-.178-1.652c.159-2.047.379-4.089.577-6.132.04-.412.028-.8.608-.94.219-.054.441-.563.461-.877.06-.953.022-1.912.022-2.869,0-1.647-.006-1.652-1.614-1.723-.044,0-.087-.049-.176-.1.124-.243.253-.484.372-.73a6.709,6.709,0,0,0,.484-4.92c-.244-.855-.858-.995-1.524-.483-.36.277-.958.608-1.275.481a1.985,1.985,0,0,1-.839-1.187c-.581-1.788-1.052-3.61-1.633-5.4C9.214-.118,8.56-.247,7.922.422A21.319,21.319,0,0,0,3.99,5.873a7.843,7.843,0,0,0-.922,4.481A22.856,22.856,0,0,0,3.8,13.143c-.559,0-1.142.008-1.724,0a.9.9,0,0,0-1.046,1.018c0,1.182,0,2.364,0,3.546a.959.959,0,0,0,.783,1.041c.551.153.7.629.31,1.033A7.819,7.819,0,0,0,.206,27.135C.615,29.27,1.6,31.051,3.862,31.8c.183.061.353.4.391.627.3,1.8.525,3.617.845,5.416.148.829-.093,1.875,1.029,2.3.1.037.115.3.158.462q2.079,7.776,4.141,15.556a1.2,1.2,0,0,1-.114.932c-.633.766-.43,1.363.108,2.093,3.3,4.485,6.609,8.967,9.806,13.526a11.593,11.593,0,0,1,1.79,3.942,23.364,23.364,0,0,1,.261,4.615c.035,1.357.14,1.49,1.507,1.49H71.225c.169,0,.368.058.5-.012a2.559,2.559,0,0,0,1.025-.676c.221-.353.366-.537.811-.51a4.484,4.484,0,0,0,3.415-1.378c2.1-1.961,3.15-6.6-.142-9.23.084-.248.169-.512.263-.773q1.732-4.8,3.463-9.591M61.215,54.622c.041.16.066.325.116.576l-7.975,2.946c-.34-1.315-.584-2.611-1.016-3.841a3.243,3.243,0,0,1,.848-3.893,10.477,10.477,0,0,0,2.861-7.537c.016-.864,0-1.728,0-2.614,1.533.1,1.53.1,1.858,1.388q1.651,6.488,3.3,12.974m-.029,3.962c-1.873,1.348-3.454,2.632-5.623,2.753-1.492.083-1.568.025-1.706-1.571,1.761-.653,3.518-1.4,5.341-1.916.492-.14,1.181.416,1.989.735m-26.9-15.6c-.018-1.041-.036-2.084.015-3.123a1.254,1.254,0,0,1,.45-.772c1.477-1.247,2.974-2.469,4.477-3.685a4.093,4.093,0,0,1,1.03-.672,6.537,6.537,0,0,0,3.483-3.275c.216-.42.4-.858.662-1.434a9.027,9.027,0,0,0,.505,1.246,12.386,12.386,0,0,0,1.711,2.575c1.653,1.59,3.431,3.053,5.2,4.518a9.814,9.814,0,0,0,1.937,1.182.905.905,0,0,1,.622.941c0,2.225.043,4.441-.939,6.534A10.029,10.029,0,0,1,34.29,42.988m2.485,9.3c-.209.92-.464,1.83-.728,2.84-.627-.406-1.208-.735-1.725-1.146a.97.97,0,0,1-.214-.731c.092-1.257.227-2.512.354-3.844.777.825,1.476,1.544,2.144,2.292a.77.77,0,0,1,.168.589M35.636,32.8c.731-2.515,4.785-5.326,7.585-5.213-.791,4.737-3.57,6.969-7.585,5.213m10.048-5.178c2.819-.015,6.57,2.785,7.477,5.54a4.223,4.223,0,0,1-5.842-1.011,9.246,9.246,0,0,1-1.636-4.529m-8.105,28.4c.246-.977.5-1.953.773-3.019a11.948,11.948,0,0,0,11.937-.007l2.026,7.976c-4.282-.9-8.4-1.668-12.452-2.674-.876-.217-1.546-1.273-2.3-1.957-.051-.046-.012-.214.014-.319M66.812,33.67l.037.192-6.979,2.1L59.154,31.9l7.659,1.765m-9.073.806c.449,1.32.88,2.647,1.318,3.98a7.62,7.62,0,0,1-7.6-2.693,22.212,22.212,0,0,1,3.135-1.427,11.549,11.549,0,0,1,2.838-.191c.1,0,.265.2.311.33m3.13-17.738.143.128-4.783,7.841-3.291-3.1,7.931-4.865M44.282,9.907l.154-.017L46.6,19.112H42.075l2.206-9.205m-17.463,6.97.124-.148,7.945,4.87L31.6,24.706l-4.781-7.829m15.553,3.905c8.674-.729,14.23,4.988,15.179,11.563a.847.847,0,0,1-.138.064A3.227,3.227,0,0,1,53.7,30.743a11.425,11.425,0,0,0-19.452.882,1.282,1.282,0,0,1-1.376.781c-.838-.052-1.681-.012-2.516-.012-.444-5.042,5.88-11.1,12.015-11.611M30.122,34.372c.058-.16.45-.256.7-.28a12.433,12.433,0,0,1,6.289,1.043c-2.269,2.313-4.856,3.8-8.358,3.349.454-1.386.882-2.76,1.373-4.112m2.344,18.512c-.779-.451-1.424-.786-2.019-1.195a.821.821,0,0,1-.252-.673q.785-5.157,1.636-10.3c.046-.279.322-.52.492-.779l.189.138a36.444,36.444,0,0,0,.3,4.772c.509,2.7-.335,5.264-.342,8.04M20.99,33.871l.02-.2,7.627-1.764c-.229,1.381-.44,2.654-.672,4.052L20.99,33.871m7.944,7.075c.17-.624.473-.834,1.232-.6L28.527,50.6l-1.983-1.157c.8-2.845,1.619-5.663,2.389-8.492M4.813,8.691C5.3,6.3,6.7,4.415,8.384,2.425c.383,1.437.765,2.683,1.041,3.951C9.914,8.62,10.988,9.4,13.342,9.052a5.029,5.029,0,0,1-1.507,3.795,1.278,1.278,0,0,1-.825.282c-1.378.028-2.758.043-4.135-.008a1.672,1.672,0,0,1-1.013-.449A4.1,4.1,0,0,1,4.813,8.691M2.766,14.879h11.2V17H2.766ZM2.96,29.242A6.776,6.776,0,0,1,3,21.308,2.132,2.132,0,0,1,6.484,21.3,6.013,6.013,0,0,1,7.8,25.32a5.987,5.987,0,0,1-1.258,3.909,2.127,2.127,0,0,1-3.582.013m3.132,3.915A3.932,3.932,0,0,0,6,32.574c-.176-.565-.045-.884.54-1.18a5.157,5.157,0,0,0,2.442-3.1,8.868,8.868,0,0,0,.04-5.873,5.586,5.586,0,0,0-3.279-3.627h7.249c-.626,6.524-1.246,13-1.871,19.512H6.871q-.39-2.573-.779-5.148m1.8,6.878c1.27,0,2.446-.029,3.619.01a1.05,1.05,0,0,0,1.256-1.108c.18-2.072.388-4.142.588-6.213a5,5,0,0,1,.277-1.353c.083.246.172.491.247.74,1.3,4.33,2.584,8.663,3.906,12.986a1.451,1.451,0,0,1-.215,1.4c-1.883,2.726-3.739,5.471-5.728,8.392L7.891,40.034m28.8,41.048c-3.683-.023-7.366-.012-11.265-.012.322-.326.518-.534.724-.731q4.272-4.084,8.546-8.166c.142-.136.287-.27.424-.411a.839.839,0,1,0-1.132-1.239c-.194.163-.37.346-.553.521l-9.5,9.073a9.567,9.567,0,0,0-.033-2.4,3.956,3.956,0,0,1,1.072-3.964c.6-.7,1.085-1.5,1.626-2.259.324-.452.383-.9-.1-1.256-.512-.374-.95-.188-1.293.3-.745,1.051-1.491,2.1-2.215,3.121L17.35,65.779c1.3-1.9,2.581-3.784,3.852-5.672.168-.25.41-.578.36-.816-.063-.3-.359-.733-.608-.773a1.209,1.209,0,0,0-.966.426c-.9,1.222-1.728,2.5-2.583,3.752-.348.51-.7,1.018-1.128,1.645-1.485-2.044-2.912-3.992-4.31-5.961-.1-.147-.024-.442.007-.664.014-.1.117-.188.18-.281l7.025-10.323,11.566,6.732c-.145.245-.256.461-.392.659Q28.11,57.774,25.86,61.04c-.344.5-.637,1.03-.017,1.47.662.47,1.07-.009,1.431-.536,1.634-2.39,3.277-4.773,4.969-7.234,3.627,2.109,6.843,4.5,7.788,8.9.029.137.057.275.093.411a.807.807,0,0,0,.98.7.759.759,0,0,0,.647-1c-.214-.9-.488-1.784-.751-2.671-.071-.238-.193-.461-.348-.824l8.059,1.687c-.158.309-.258.53-.38.738Q43.1,71.544,37.884,80.413a1.179,1.179,0,0,1-1.194.669m14.842-.034c-3.967.03-7.933.022-12.062.022.171-.311.288-.541.419-.762q5.122-8.68,10.237-17.363c.259-.441.47-.638,1.043-.5,2.191.538,4.4.966,6.8.082-1.956,6.153-3.839,12.1-5.753,18.028a.912.912,0,0,1-.683.491m6.046,0c-1.205.048-2.413.023-3.717.023.662-2.1,1.3-4.123,1.941-6.149,1.272-4.013,2.577-8.016,3.8-12.043a3.355,3.355,0,0,1,1.738-2.313,8.682,8.682,0,0,0,.923-.6A6.517,6.517,0,0,1,63.277,66.1c-1.659,4.831-3.373,9.643-5.089,14.454a.871.871,0,0,1-.609.494m19.29-7.489a5.015,5.015,0,0,1-1.165,5.5,2.389,2.389,0,0,1-4.179-1.187,8.487,8.487,0,0,1-.184-1.176,4.908,4.908,0,0,1,2.079-4.113,2.232,2.232,0,0,1,3.448.972M76.8,66.066c-.457,1.268-.9,2.54-1.394,3.794a.971.971,0,0,1-.573.564,5.988,5.988,0,0,0-5.146,6.427,5.272,5.272,0,0,0,1.485,3.657,1.771,1.771,0,0,1,.219.255c.025.038,0,.106,0,.234H59.875c.1-.323.189-.657.3-.982C61.694,75.7,63.264,71.4,64.7,67.054a21.671,21.671,0,0,0,.575-3.793,2.4,2.4,0,0,1,.009-.415c.524-1.535,1.06-3.066,1.619-4.673l11.845,2.453c-.67,1.868-1.308,3.654-1.951,5.439" transform="translate(0 0)" fill="#f7cc47"/>
  </g>
</svg>
