<svg id="Group_6087" data-name="Group 6087" xmlns="http://www.w3.org/2000/svg" xmlns:xlink="http://www.w3.org/1999/xlink" width="82.765" height="82.781" viewBox="0 0 82.765 82.781">
  <defs>
    <clipPath id="clip-path">
      <rect id="Rectangle_267" data-name="Rectangle 267" width="82.765" height="82.781" fill="#f7cc47"/>
    </clipPath>
  </defs>
  <g id="Group_6086" data-name="Group 6086" clip-path="url(#clip-path)">
    <path id="Path_622" data-name="Path 622" d="M81.064,80.332c-1.692.042-3.386.013-5.132.013V34.794c.945-.076,2.2.173,2.2-1.245s-1.244-1.187-2.251-1.234c0-.756,0-1.451,0-2.146-.007-2.822-1.381-4.187-4.225-4.2h-1.1c0-.665,0-1.273,0-1.88,0-.808.019-1.617-.024-2.423a3.375,3.375,0,0,0-2.039-3.057.92.92,0,0,1-.611-1.034c.032-1.049.012-2.1.009-3.15a3.628,3.628,0,0,0-3.905-3.942c-1.315,0-2.629,0-4.073,0,0-.535.009-1.008,0-1.481A3.574,3.574,0,0,0,56.046,5.2a4.833,4.833,0,0,1-3.671-1.3A15.983,15.983,0,0,0,43.684.151,3.506,3.506,0,0,1,43.159,0H39.6c-1.274.3-2.567.543-3.817.925a15.691,15.691,0,0,0-6.216,3.636A1.841,1.841,0,0,1,28,5.177a10.849,10.849,0,0,0-1.372-.009,3.63,3.63,0,0,0-3.775,3.6c-.029.534,0,1.071,0,1.717-1.328,0-2.591.073-3.842-.015A3.754,3.754,0,0,0,14.86,14.6c.05.561-.01,1.131.011,1.7.042,1.143.136,2.161-1.275,2.793A2.958,2.958,0,0,0,12.2,22c0,1.287,0,2.573,0,3.986-.67,0-1.255-.026-1.836,0A3.536,3.536,0,0,0,6.9,29.456c-.045.935-.008,1.874-.008,2.795-1.872.251-2.308.51-2.3,1.314.011.823.489,1.1,2.218,1.243V80.295c-.229.017-.46.048-.691.048-1.535,0-3.07,0-4.606,0-.952,0-1.5.443-1.517,1.188-.014.768.56,1.225,1.553,1.235H1.8q39.593,0,79.186.011a1.8,1.8,0,0,0,1.783-.819v-.808a1.732,1.732,0,0,0-1.7-.822M68.13,22.231c.012,1.05-.006,2.1.006,3.15,0,.384-.089.6-.537.6-4.253-.016-8.507-.019-12.76-.028-.048,0-.1-.042-.2-.088V20.712c.256-.017.49-.047.724-.047q5.573,0,11.146,0c1.236,0,1.6.355,1.617,1.566M25.316,8.653A1.13,1.13,0,0,1,26.533,7.6a19.174,19.174,0,0,1,2.1.006,2.56,2.56,0,0,0,2.146-.855A14.669,14.669,0,0,1,41.735,2.439,14.465,14.465,0,0,1,51.849,6.63a2.915,2.915,0,0,0,2.5.973,13.369,13.369,0,0,1,1.7-.008c.955.018,1.39.425,1.435,1.362.023.477,0,.956,0,1.488H25.3a16.156,16.156,0,0,1,.014-1.791m-8.014,5.5a1.162,1.162,0,0,1,1.207-1.237c.215-.014.431-.005.646-.005H63.607c1.582,0,1.861.285,1.862,1.89,0,1.1,0,2.207,0,3.372H17.295c0-1.383-.018-2.7.007-4.02M52.1,25.908H30.632V20.723H52.1Zm-37.39-4.349c.049-.739.717-.9,1.4-.9,3.8.01,7.592,0,11.388.006.184,0,.368.018.607.031v5.233H14.686c0-1.486-.067-2.934.028-4.37M22.8,74.985H9.353V62.009H22.8ZM9.363,51.668H22.791v7.807H9.363ZM22.815,80.289H9.368V77.523H22.815Zm5.355-1v1.03h-2.9v-.876q0-18.256,0-36.512c0-1.476.328-1.8,1.816-1.8q6.059,0,12.117,0h.955c0,.983.03,1.868-.028,2.747-.01.156-.375.379-.6.417a13.153,13.153,0,0,0-10,7.1,12.613,12.613,0,0,0-1.36,6q0,10.945,0,21.891m29.318.252c0,.238-.024.475-.041.772H54.631c-.014-.311-.038-.6-.038-.882q0-5.131-.006-10.262a3.6,3.6,0,0,0-.093-.958,1.184,1.184,0,0,0-2.3.183,5.6,5.6,0,0,0-.027.806q0,5.091,0,10.181V80.3h-21.5a4.44,4.44,0,0,1-.066-.544c0-7.569-.035-15.138.009-22.706A10.53,10.53,0,0,1,39.74,46.729a10.727,10.727,0,0,1,12.028,7.634,12.739,12.739,0,0,1,.38,2.949c.057,2.019.013,4.04.02,6.06,0,1.011.461,1.574,1.23,1.551.732-.022,1.185-.584,1.189-1.534.009-2.155.041-4.311-.008-6.464A12.935,12.935,0,0,0,43.308,44.34c-.614-.092-.75-.313-.723-.861.036-.723.009-1.448.009-2.272.325-.027.6-.071.881-.071q6.141-.006,12.282,0c1.376,0,1.731.352,1.731,1.724q0,18.343,0,36.686m15.92.759H59.959v-2.8H73.409Zm-.018-5.33H59.976V62H73.392Zm-13.411-23.3H73.386v7.825H59.981Zm13.474-19.33H53.985a3.845,3.845,0,0,0-.806.026,1.2,1.2,0,0,0,0,2.369,3.935,3.935,0,0,0,.806.028H73.406V49.15H59.958c-.014-.281-.04-.565-.04-.848,0-1.886.011-3.772-.006-5.658a3.655,3.655,0,0,0-3.939-3.934q-14.589-.012-29.177,0a3.651,3.651,0,0,0-3.945,3.927c-.017,2.149,0,4.3,0,6.5H9.358V34.763h37.76c1.3,0,1.884-.39,1.867-1.239-.017-.826-.574-1.186-1.837-1.186H9.315c0-.977-.026-1.839.008-2.7a1.149,1.149,0,0,1,1.212-1.229c.241-.019.485-.012.727-.012H71.475c1.755,0,1.979.23,1.98,2.025,0,.612,0,1.223,0,1.915" transform="translate(-0.001)" fill="#f7cc47"/>
  </g>
</svg>
