<svg xmlns="http://www.w3.org/2000/svg" width="105.332" height="28" viewBox="0 0 105.332 28">
  <g id="Frame" transform="translate(0 0)">
    <path id="Vector" d="M25.666,7V7l0-.005c-.03-.048-.061-.094-.095-.14l-.027-.035c-.027-.034-.054-.067-.083-.1l-.051-.054c-.024-.024-.047-.047-.072-.07s-.046-.041-.07-.061L25.2,6.484c-.027-.021-.055-.04-.083-.06l-.065-.042c-.03-.018-.061-.036-.092-.053l-.067-.035c-.032-.016-.065-.031-.1-.045l-.068-.028c-.036-.014-.072-.026-.108-.038l-.063-.019c-.042-.012-.085-.023-.129-.032l-.045-.009c-.053-.01-.108-.018-.162-.024l-.016,0a1.98,1.98,0,0,0-1.15.233L12.96,11.891,5.743,7.914l7.223-3.98,4.816,2.651A1.965,1.965,0,0,0,20.4,5.918a1.782,1.782,0,0,0-.7-2.495L13.923.245a1.994,1.994,0,0,0-1.914,0l-11,6.063A1.868,1.868,0,0,0,.257,7a1.78,1.78,0,0,0,.7,2.494L12,15.581l0,0a1.883,1.883,0,0,0,.179.084c.017.007.033.016.05.023.037.014.075.024.112.036a1.991,1.991,0,0,0,.61.1h0a1.984,1.984,0,0,0,.623-.1c.033-.011.066-.019.1-.032s.038-.018.057-.026a1.863,1.863,0,0,0,.172-.081l0,0,8.18-4.507v7.959l-9.134,5.032L3.83,19.034V14a1.871,1.871,0,0,0-1.913-1.826A1.871,1.871,0,0,0,0,14v6.087a1.811,1.811,0,0,0,.957,1.581l11.047,6.087a2,2,0,0,0,1.913,0l11.047-6.087a1.811,1.811,0,0,0,.957-1.581V7.914A1.752,1.752,0,0,0,25.666,7Z" transform="translate(0 0)" fill="#fff"/>
    <path id="Vector-2" data-name="Vector" d="M.319,10.55a7.787,7.787,0,0,0,1.945.9,6.827,6.827,0,0,0,1.945.293,2.565,2.565,0,0,0,1.546-.429A1.318,1.318,0,0,0,6.345,10.2a1.019,1.019,0,0,0-.469-.887A5.152,5.152,0,0,0,4.7,8.736q-.708-.253-1.526-.517a6.9,6.9,0,0,1-1.526-.7A3.744,3.744,0,0,1,.469,6.357,3.421,3.421,0,0,1,0,4.466,3.543,3.543,0,0,1,.379,2.828,3.853,3.853,0,0,1,1.437,1.55,4.942,4.942,0,0,1,3.063.722,7.044,7.044,0,0,1,5.148.429,10.445,10.445,0,0,1,7.053.6a10.661,10.661,0,0,1,1.905.546V4a7.826,7.826,0,0,0-1.8-.751A6.757,6.757,0,0,0,5.387,3a2.579,2.579,0,0,0-1.486.39,1.2,1.2,0,0,0-.569,1.034.978.978,0,0,0,.469.858,5.209,5.209,0,0,0,1.167.556q.7.244,1.526.507a6.393,6.393,0,0,1,1.526.712,3.85,3.85,0,0,1,1.167,1.18,3.512,3.512,0,0,1,.469,1.921,3.687,3.687,0,0,1-.389,1.687A3.918,3.918,0,0,1,8.19,13.163a5.078,5.078,0,0,1-1.646.848,6.932,6.932,0,0,1-2.1.3,10.343,10.343,0,0,1-4.13-.877ZM10.626.059h3.252V5.012A4.661,4.661,0,0,1,16.612,4.1a3.835,3.835,0,0,1,1.437.263,3.351,3.351,0,0,1,1.137.741,3.4,3.4,0,0,1,.748,1.141A3.8,3.8,0,0,1,20.2,7.683v6.4H16.951V8.268a1.333,1.333,0,0,0-1.377-1.385,2.407,2.407,0,0,0-1.7.78v6.416H10.626ZM21.532,4.329h3.252v9.75H21.532Zm-.16-2.594a1.662,1.662,0,0,1,.5-1.258,1.958,1.958,0,0,1,2.564,0,1.645,1.645,0,0,1,.509,1.258,1.63,1.63,0,0,1-.509,1.229,1.929,1.929,0,0,1-2.564,0A1.646,1.646,0,0,1,21.373,1.736ZM33,9.2a2.594,2.594,0,0,0-.549-1.726,1.775,1.775,0,0,0-1.427-.653,2.2,2.2,0,0,0-1.576.683V10.9a2.2,2.2,0,0,0,1.576.682,1.764,1.764,0,0,0,1.427-.663A2.6,2.6,0,0,0,33,9.2Zm-6.8-4.875h3.252v.527A4.151,4.151,0,0,1,31.78,4.1a4.391,4.391,0,0,1,1.836.38,4.25,4.25,0,0,1,1.437,1.053,4.771,4.771,0,0,1,.928,1.609A6.186,6.186,0,0,1,36.309,9.2a6.186,6.186,0,0,1-.329,2.067,4.771,4.771,0,0,1-.928,1.609,4.25,4.25,0,0,1-1.437,1.053,4.39,4.39,0,0,1-1.836.38,4.151,4.151,0,0,1-2.334-.76v4.8H26.193ZM40.65,11.583h2.134a1.8,1.8,0,0,0,1.247-.439,1.53,1.53,0,0,0,0-2.243,1.8,1.8,0,0,0-1.247-.439H40.65Zm0-5.538h1.855a1.674,1.674,0,0,0,1.157-.41A1.326,1.326,0,0,0,44.122,4.6a1.318,1.318,0,0,0-.459-1.043,1.7,1.7,0,0,0-1.157-.4H40.65ZM37.478.663h5.647A4.918,4.918,0,0,1,44.8.936a4.08,4.08,0,0,1,1.316.76,3.447,3.447,0,0,1,.868,1.151,3.37,3.37,0,0,1,.309,1.443,3.321,3.321,0,0,1-.479,1.774A2.871,2.871,0,0,1,45.5,7.215a3.392,3.392,0,0,1,1.666,1.219,3.2,3.2,0,0,1,.589,1.9,3.567,3.567,0,0,1-.319,1.511,3.513,3.513,0,0,1-.888,1.19,4.041,4.041,0,0,1-1.357.77,5.242,5.242,0,0,1-1.726.273H37.478ZM48.144,9.2a5.211,5.211,0,0,1,.4-2.067A4.7,4.7,0,0,1,49.66,5.528a5.194,5.194,0,0,1,1.706-1.053,6.352,6.352,0,0,1,4.33,0,5.089,5.089,0,0,1,1.7,1.053A4.78,4.78,0,0,1,58.5,7.137,5.223,5.223,0,0,1,58.9,9.2a5.243,5.243,0,0,1-.4,2.057,4.755,4.755,0,0,1-1.107,1.619,5.088,5.088,0,0,1-1.7,1.053,6.352,6.352,0,0,1-4.33,0A5.193,5.193,0,0,1,49.66,12.88a4.672,4.672,0,0,1-1.117-1.619A5.23,5.23,0,0,1,48.144,9.2Zm3.332,0a2.673,2.673,0,0,0,.569,1.784,1.968,1.968,0,0,0,2.963,0A2.643,2.643,0,0,0,55.586,9.2a2.644,2.644,0,0,0-.579-1.784,1.968,1.968,0,0,0-2.963,0A2.673,2.673,0,0,0,51.476,9.2Zm15.015,0a2.593,2.593,0,0,0-.549-1.726,1.773,1.773,0,0,0-1.426-.653,2.2,2.2,0,0,0-1.576.683V10.9a2.2,2.2,0,0,0,1.576.682,1.763,1.763,0,0,0,1.426-.663A2.6,2.6,0,0,0,66.492,9.2ZM59.688.059h3.252v4.8A4.15,4.15,0,0,1,65.275,4.1a4.39,4.39,0,0,1,1.836.38,4.25,4.25,0,0,1,1.437,1.053,4.766,4.766,0,0,1,.927,1.609A6.184,6.184,0,0,1,69.8,9.2a6.184,6.184,0,0,1-.329,2.067,4.765,4.765,0,0,1-.927,1.609,4.249,4.249,0,0,1-1.437,1.053,4.389,4.389,0,0,1-1.836.38,4.15,4.15,0,0,1-2.334-.76v.527H59.688Z" transform="translate(35.528 6.669)" fill="#fff"/>
  </g>
</svg>
