<svg xmlns="http://www.w3.org/2000/svg" width="12.284" height="12.305" viewBox="0 0 12.284 12.305">
  <path id="Icon_feather-phone-call" data-name="Icon feather-phone-call" d="M9.929,3.59a2.613,2.613,0,0,1,2.064,2.064M9.929,1.5a4.7,4.7,0,0,1,4.154,4.149m-.523,4.17v1.568a1.045,1.045,0,0,1-1.139,1.045,10.341,10.341,0,0,1-4.51-1.6A10.19,10.19,0,0,1,4.776,7.692a10.341,10.341,0,0,1-1.6-4.531,1.045,1.045,0,0,1,1.04-1.139H5.78a1.045,1.045,0,0,1,1.045.9A6.71,6.71,0,0,0,7.191,4.39a1.045,1.045,0,0,1-.235,1.1l-.664.664A8.361,8.361,0,0,0,9.427,9.291l.664-.664a1.045,1.045,0,0,1,1.1-.235,6.71,6.71,0,0,0,1.468.366A1.045,1.045,0,0,1,13.561,9.819Z" transform="translate(-2.518 -0.782)" fill="none" stroke="#fff" stroke-linecap="round" stroke-linejoin="round" stroke-width="1.3"/>
</svg>
