<svg id="Frame" xmlns="http://www.w3.org/2000/svg" width="66.033" height="27.842" viewBox="0 0 66.033 27.842">
  <g id="mask0" transform="translate(0)">
    <path id="Vector" d="M0,0H14.333V25.728H0Z" fill="none"/>
  </g>
  <g id="Group" transform="translate(0 0)">
    <path id="Vector-2" data-name="Vector" d="M11.561,12.149a.854.854,0,0,0-.786-.158l-7.437,2.2,10.627-9.54a.738.738,0,0,0,.025-1.09c-.015-.015-.03-.029-.047-.042L9.976.2a.859.859,0,0,0-1.16.062.8.8,0,0,0-.092.118L.089,13.984a.568.568,0,0,0,.123.747l1.683,1.413a.854.854,0,0,0,.76.166L8.68,14.735,1.745,24.961c-.335.494.359,1.029.81.624L14.14,15.162a.568.568,0,0,0,.016-.839l-.033-.03Z" fill="#28293e"/>
  </g>
  <g id="mask1" transform="translate(49.312 2.871)">
    <path id="Vector-3" data-name="Vector" d="M0,0H16.72V24.971H0Z" fill="none"/>
  </g>
  <g id="Group-2" data-name="Group" transform="translate(49.312 2.871)">
    <path id="Vector-4" data-name="Vector" d="M16.336,7.82l-1.151-.963a.4.4,0,0,0-.535.028A.354.354,0,0,0,14.578,7l-2.366,5.99c-1.133,2.87-2.477,3.852-3.319,3.852-.269,0-.652-.184-.652-.8A3.738,3.738,0,0,1,8.553,14.7L10.807,9A1.034,1.034,0,0,0,10.5,7.82L9.344,6.857a.4.4,0,0,0-.535.028A.354.354,0,0,0,8.736,7l-2.366,5.99c-1.133,2.87-2.477,3.852-3.319,3.852-.27,0-.653-.184-.653-.8A3.756,3.756,0,0,1,2.712,14.7L7.635,2.233a1.035,1.035,0,0,0-.312-1.18L6.171.09a.4.4,0,0,0-.535.028.36.36,0,0,0-.073.113L.526,12.989A7.175,7.175,0,0,0,0,15.353a2.7,2.7,0,0,0,2.712,2.856,4.441,4.441,0,0,0,3.272-1.936,2.638,2.638,0,0,0,2.569,1.936,3.5,3.5,0,0,0,1.985-.7L8.881,21.7a8.021,8.021,0,0,0-5.48-.366.2.2,0,0,0,.053.386,7.893,7.893,0,0,1,5.729,2.961.807.807,0,0,0,1.083.143.726.726,0,0,0,.259-.326L16.648,9A1.035,1.035,0,0,0,16.336,7.82Z" fill="#28293e"/>
  </g>
  <path id="Vector-5" data-name="Vector" d="M3.317,17.162c-.462,0-.806-.426-.806-1.06a4.4,4.4,0,0,1,.347-1.425C4.44,10.8,6.592,8.7,7.558,8.7c.638,0,.735.623.735,1.365,0,3.023-2.873,7.093-4.976,7.093ZM8.438,6.895A4.59,4.59,0,0,0,5.294,8.446l2.417-6.17a1.06,1.06,0,0,0-.315-1.2L6.231.092a.4.4,0,0,0-.54.029.361.361,0,0,0-.074.116l-5.087,13A7.368,7.368,0,0,0,0,15.644a2.874,2.874,0,0,0,3.1,2.911c4.213,0,8.014-4.687,8.014-8.468C11.11,8.235,10.16,6.895,8.438,6.895Z" transform="translate(37.639 2.541)" fill="#28293e"/>
  <path id="Vector-6" data-name="Vector" d="M15.137,17.162c-.462,0-.807-.426-.807-1.06a4.391,4.391,0,0,1,.347-1.425C16.262,10.8,18.417,8.7,19.384,8.7c.639,0,.736.623.736,1.365,0,3.023-2.875,7.093-4.983,7.093Zm1.98-8.716,2.42-6.17a1.059,1.059,0,0,0-.315-1.2L18.056.092a.4.4,0,0,0-.541.029.355.355,0,0,0-.073.116l-5.094,13c-1.147,2.923-2.5,3.925-3.357,3.925-.273,0-.66-.187-.66-.811a3.835,3.835,0,0,1,.317-1.368L10.925,9.17a1.059,1.059,0,0,0-.315-1.2L9.446,6.986a.4.4,0,0,0-.541.029.363.363,0,0,0-.074.116l-2.392,6.1c-1.145,2.924-2.5,3.925-3.356,3.925-.273,0-.66-.187-.66-.811a3.841,3.841,0,0,1,.316-1.368L5.017,9.17a1.059,1.059,0,0,0-.316-1.2L3.537,6.987A.4.4,0,0,0,3,7.016a.364.364,0,0,0-.074.116l-2.391,6.1A7.375,7.375,0,0,0,0,15.644a2.738,2.738,0,0,0,2.741,2.911A4.483,4.483,0,0,0,6.05,16.582a2.67,2.67,0,0,0,2.6,1.972,4.485,4.485,0,0,0,3.317-1.984,2.921,2.921,0,0,0,2.951,1.984c4.219,0,8.027-4.687,8.027-8.468,0-1.851-.952-3.192-2.676-3.192A4.6,4.6,0,0,0,17.118,8.446Z" transform="translate(15.056 2.541)" fill="#28293e"/>
</svg>
