<svg id="Frame" xmlns="http://www.w3.org/2000/svg" width="138.402" height="28.007" viewBox="0 0 138.402 28.007">
  <g id="Group" transform="translate(0)">
    <path id="Vector" d="M.188,15.285,8.4,27.569a1.006,1.006,0,0,0,.387.331,1.06,1.06,0,0,0,.508.106h3.042a1.073,1.073,0,0,0,.4-.073,1.036,1.036,0,0,0,.34-.215.982.982,0,0,0,.226-.324.945.945,0,0,0,.077-.382V1a.975.975,0,0,0-.2-.578,1.05,1.05,0,0,0-.511-.363A1.1,1.1,0,0,0,12.033.04,1.057,1.057,0,0,0,11.5.377L.188,14.09a1.043,1.043,0,0,0,0,1.194Z" transform="translate(10.082 0)" fill="#28293e"/>
    <path id="Vector-2" data-name="Vector" d="M1.041,8.584H6.457a1.074,1.074,0,0,0,.4-.073A1.038,1.038,0,0,0,7.2,8.3a.983.983,0,0,0,.226-.324A.945.945,0,0,0,7.5,7.59V.992A.978.978,0,0,0,7.3.416,1.053,1.053,0,0,0,6.788.055,1.1,1.1,0,0,0,6.153.039a1.059,1.059,0,0,0-.529.336L.207,6.973a.983.983,0,0,0-.2.511.971.971,0,0,0,.105.537,1.028,1.028,0,0,0,.383.406A1.094,1.094,0,0,0,1.041,8.584Z" transform="translate(0 19.418)" fill="#28293e"/>
    <path id="Vector-3" data-name="Vector" d="M11.376,1.717a1.841,1.841,0,0,0-.2-.2l-.112-.091L11,1.375a4.9,4.9,0,0,0-.836-.541A5.611,5.611,0,0,0,9.15.379,7.091,7.091,0,0,0,8.032.1,6.86,6.86,0,0,0,5.084.24,7.345,7.345,0,0,0,3.445.9,6.877,6.877,0,0,0,2.056,1.926,7.488,7.488,0,0,0,.968,3.248,5.831,5.831,0,0,0,.253,4.8a6.041,6.041,0,0,0,0,3.462A6.1,6.1,0,0,0,.968,9.811a7.488,7.488,0,0,0,1.088,1.322,6.958,6.958,0,0,0,1.393,1.026,8.227,8.227,0,0,0,1.632.66,6.654,6.654,0,0,0,3.03.143,5.362,5.362,0,0,0,1.129-.307,7.664,7.664,0,0,0,1.008-.48,9.116,9.116,0,0,0,.924-.6,2.482,2.482,0,0,0,.238-.227l.038-.041a.793.793,0,0,0,.157-.273l.015-.082a.659.659,0,0,0-.093-.375l-.034-.05a.789.789,0,0,0-.088-.114l-.088-.114c-.177-.227-.343-.455-.522-.664a.75.75,0,0,0-.276-.191.532.532,0,0,0-.326,0,1.379,1.379,0,0,0-.407.266l-.157.127a5.611,5.611,0,0,1-.455.348,3.4,3.4,0,0,1-.629.362,3.11,3.11,0,0,1-.76.255A4.34,4.34,0,0,1,5.2,10.539a4.684,4.684,0,0,1-1.4-.926,4.4,4.4,0,0,1-.974-1.379,3.892,3.892,0,0,1,0-3.319A4.593,4.593,0,0,1,3.8,3.523a5.13,5.13,0,0,1,1.4-.951A3.973,3.973,0,0,1,7.62,2.3a5.4,5.4,0,0,1,.8.241,5.219,5.219,0,0,1,.715.355c.476.268,1.014,1.037,1.536.428l.755-.969a.415.415,0,0,0,.079-.325A.625.625,0,0,0,11.376,1.717Z" transform="translate(86.402 11.452)" fill="#28293e"/>
    <path id="Vector-4" data-name="Vector" d="M19.325,18.407,11.065.455A.728.728,0,0,0,10.79.126.78.78,0,0,0,10.369,0H9.045a.773.773,0,0,0-.416.119.723.723,0,0,0-.277.32L.076,18.386a.669.669,0,0,0,.048.7.731.731,0,0,0,.274.249.773.773,0,0,0,.367.088H1.986a.759.759,0,0,0,.419-.116.708.708,0,0,0,.276-.323L4.668,14.55H14.707l1.974,4.429a.728.728,0,0,0,.276.329.78.78,0,0,0,.422.126H18.57a.773.773,0,0,0,.359-.064.738.738,0,0,0,.284-.22.719.719,0,0,0,.163-.357A.7.7,0,0,0,19.325,18.407Zm-13.6-6.142.033-.071,3.98-8.847,3.992,8.918Z" transform="translate(32.009 5.075)" fill="#28293e"/>
    <path id="Vector-5" data-name="Vector" d="M12.939,4.507a6.551,6.551,0,0,0-.953-1.95,6.65,6.65,0,0,0-1.077-1.09A4.869,4.869,0,0,0,9.631.685,7.226,7.226,0,0,0,8.2.18,6.8,6.8,0,0,0,4.848.242a6.506,6.506,0,0,0-1.6.66A7.409,7.409,0,0,0,1.9,1.934,5.76,5.76,0,0,0,.888,3.258a6.449,6.449,0,0,0-.65,1.567A5.87,5.87,0,0,0,.09,7.5,6.353,6.353,0,0,0,.3,8.532a6.574,6.574,0,0,0,.953,1.954,6.631,6.631,0,0,0,1.077,1.087,4.931,4.931,0,0,0,1.281.785,7.1,7.1,0,0,0,1.429.5,6.827,6.827,0,0,0,4.947-.721,7.437,7.437,0,0,0,1.356-1.031,5.356,5.356,0,0,0,.974-1.278l.021-.046a.4.4,0,0,0,.084-.212.393.393,0,0,0-.045-.222.348.348,0,0,0-.127-.127.369.369,0,0,0-.176-.05H10.1a.565.565,0,0,0-.241.048.548.548,0,0,0-.195.145,4.048,4.048,0,0,1-.862.751,4.314,4.314,0,0,1-1.117.48,4.565,4.565,0,0,1-2.67-.073A4.911,4.911,0,0,1,3.736,9.86a3.494,3.494,0,0,1-.922-1.044,5.446,5.446,0,0,1-.427-1.365l-.012-.059h.067l10.146-.021a.606.606,0,0,0,.652-.683A6.321,6.321,0,0,0,12.939,4.507Zm-2.16.858L2.569,5.4l.021-.066A4.582,4.582,0,0,1,3.2,4.086,4.48,4.48,0,0,1,4.413,2.924a4.305,4.305,0,0,1,1.126-.485,4.565,4.565,0,0,1,2.67.073,4.925,4.925,0,0,1,1.277.664,3.482,3.482,0,0,1,.924,1.051A3.541,3.541,0,0,1,10.836,5.3l.014.061Z" transform="translate(114.022 11.471)" fill="#28293e"/>
    <path id="Vector-6" data-name="Vector" d="M11.542,11.173a7.278,7.278,0,0,0,1.069-1.322A6.639,6.639,0,0,0,13.3,8.286a6.066,6.066,0,0,0,0-3.46,6.639,6.639,0,0,0-.693-1.565A6.783,6.783,0,0,0,10.149.908,7.529,7.529,0,0,0,8.531.246,6.829,6.829,0,0,0,4.123.51,7.148,7.148,0,0,0,2.5,1.491l-.088.07v-.7A.557.557,0,0,0,2.378.6.578.578,0,0,0,2.233.384.613.613,0,0,0,2,.247.634.634,0,0,0,1.734.219H.7A.651.651,0,0,0,.423.246.628.628,0,0,0,.189.382.591.591,0,0,0,.039.6.569.569,0,0,0,0,.861v15.1a.6.6,0,0,0,.043.245.62.62,0,0,0,.14.209.653.653,0,0,0,.214.14.678.678,0,0,0,.255.049h1.06a.734.734,0,0,0,.5-.18.62.62,0,0,0,.143-.209.6.6,0,0,0,.045-.246V11.557l.088.071A6.856,6.856,0,0,0,4.1,12.59a6.824,6.824,0,0,0,4.406.264,7.306,7.306,0,0,0,1.639-.662A6.762,6.762,0,0,0,11.542,11.173Zm-3.151-.632a4.162,4.162,0,0,1-3.368,0,4.285,4.285,0,0,1-1.4-.965,4.579,4.579,0,0,1-.953-1.39,4.083,4.083,0,0,1,0-3.292A4.6,4.6,0,0,1,5.023,2.583a4.167,4.167,0,0,1,3.365,0,4.7,4.7,0,0,1,1.379.944A4.6,4.6,0,0,1,10.7,4.892a4.057,4.057,0,0,1,0,3.29,4.984,4.984,0,0,1-.936,1.4A4.416,4.416,0,0,1,8.391,10.541Z" transform="translate(54.368 11.396)" fill="#28293e"/>
    <path id="Vector-7" data-name="Vector" d="M1.735.249H.7A.649.649,0,0,0,.421.276.626.626,0,0,0,.185.415.591.591,0,0,0,.036.639.568.568,0,0,0,0,.9V15.982a.6.6,0,0,0,.046.246.626.626,0,0,0,.142.209.649.649,0,0,0,.213.135.672.672,0,0,0,.251.045H1.714a.734.734,0,0,0,.5-.18.61.61,0,0,0,.144-.209.587.587,0,0,0,.044-.246V11.569l.088.07a6.821,6.821,0,0,0,1.61.962,6.82,6.82,0,0,0,4.406.264A7.344,7.344,0,0,0,10.15,12.2a6.944,6.944,0,0,0,1.393-1.031A7.265,7.265,0,0,0,12.61,9.851,6.671,6.671,0,0,0,13.3,8.286a6.033,6.033,0,0,0,0-3.46,6.6,6.6,0,0,0-.693-1.565A6.764,6.764,0,0,0,10.15.908,7.62,7.62,0,0,0,8.53.246,6.833,6.833,0,0,0,4.121.51a7.143,7.143,0,0,0-1.627.98l-.1.093V.9A.556.556,0,0,0,2.374.643.576.576,0,0,0,2.233.421.611.611,0,0,0,2,.28.633.633,0,0,0,1.735.249Zm.938,4.673A4.68,4.68,0,0,1,5.019,2.6a4.169,4.169,0,0,1,3.366,0,4.725,4.725,0,0,1,1.4.946,4.6,4.6,0,0,1,.934,1.365,4.044,4.044,0,0,1,0,3.29,4.848,4.848,0,0,1-.936,1.4,4.43,4.43,0,0,1-1.374.962,4.178,4.178,0,0,1-3.37,0,4.3,4.3,0,0,1-1.4-.965,4.552,4.552,0,0,1-.953-1.39,4.088,4.088,0,0,1-.015-3.287Z" transform="translate(70.718 11.385)" fill="#28293e"/>
    <path id="Vector-8" data-name="Vector" d="M10.915.671A.566.566,0,0,0,10.881.41a.59.59,0,0,0-.15-.22A.618.618,0,0,0,10.5.054a.641.641,0,0,0-.274-.024H9.177a.635.635,0,0,0-.27.028.615.615,0,0,0-.23.137.586.586,0,0,0-.144.219A.559.559,0,0,0,8.5.671V7.91a2.593,2.593,0,0,1-.281,1.226,2.652,2.652,0,0,1-.714.91,3.519,3.519,0,0,1-.994.548,3.311,3.311,0,0,1-2.506-.123A2.776,2.776,0,0,1,2.572,8.688a4.779,4.779,0,0,1-.158-1.156V.857A1.114,1.114,0,0,0,2.26.232a.81.81,0,0,0-.3-.186A.836.836,0,0,0,1.6,0H.848A.858.858,0,0,0,.519.058.828.828,0,0,0,.24.232.879.879,0,0,0,.052.538.859.859,0,0,0,0,.889V7.553A6.481,6.481,0,0,0,.341,9.7a5.235,5.235,0,0,0,1.022,1.765,4.637,4.637,0,0,0,1.667,1.183,6.419,6.419,0,0,0,3.525.321,5.559,5.559,0,0,0,.931-.3,3.167,3.167,0,0,0,.77-.482l.164-.146.091-.084v.507a.534.534,0,0,0,.04.219.562.562,0,0,0,.127.186.638.638,0,0,0,.235.174.664.664,0,0,0,.291.054H10.26a.668.668,0,0,0,.251-.044.642.642,0,0,0,.213-.134.545.545,0,0,0,.152-.206.528.528,0,0,0,.039-.249Z" transform="translate(100.548 11.429)" fill="#28293e"/>
    <path id="Vector-9" data-name="Vector" d="M9.219,7.81a3.358,3.358,0,0,0-.934-1.137,5.727,5.727,0,0,0-1.429-.812,10.381,10.381,0,0,0-1.805-.532,6.605,6.605,0,0,1-.886-.257,3.482,3.482,0,0,1-.739-.359,1.616,1.616,0,0,1-.686-.771,1.149,1.149,0,0,1,0-.726c.084-.266.436-1,1.8-1.081A2.459,2.459,0,0,1,6.723,3c.034.041.353.435.581.683a.687.687,0,0,0,.136.091.629.629,0,0,0,.295.034.618.618,0,0,0,.275-.1l.8-.564a.569.569,0,0,0,.207-.2.529.529,0,0,0,.075-.275V2.64a1.252,1.252,0,0,0-.181-.412A10.1,10.1,0,0,0,8.145,1.3,3.717,3.717,0,0,0,7.3.6,3.992,3.992,0,0,0,6.245.167a5.959,5.959,0,0,0-3.22.118A4.033,4.033,0,0,0,1.6,1.024,3.335,3.335,0,0,0,.659,2.189,3.425,3.425,0,0,0,.616,5.067a3.112,3.112,0,0,0,.846,1.078,6.427,6.427,0,0,0,1.274.812A10.046,10.046,0,0,0,4.4,7.535c.169.036.338.08.514.125s.347.089.521.127a4.165,4.165,0,0,1,.889.314,1.844,1.844,0,0,1,.616.455,1.176,1.176,0,0,1-.026,1.408,2.237,2.237,0,0,1-.629.528A3.183,3.183,0,0,1,5.5,10.8a3.4,3.4,0,0,1-1.428,0,3.763,3.763,0,0,1-.715-.255,3.09,3.09,0,0,1-.641-.41,3.342,3.342,0,0,1-.46-.619.974.974,0,0,0-.265-.346.616.616,0,0,0-.319-.13.627.627,0,0,0-.341.059l-.953.43a.718.718,0,0,0-.217.136.6.6,0,0,0-.124.171.478.478,0,0,0-.023.284.9.9,0,0,0,.074.278,4.035,4.035,0,0,0,.693,1.137,3.979,3.979,0,0,0,1.172.91,4.672,4.672,0,0,0,1.348.512,6.618,6.618,0,0,0,3.306-.1,4.548,4.548,0,0,0,1.56-.755A3.361,3.361,0,0,0,9.21,10.882a3.492,3.492,0,0,0,.01-3.071Z" transform="translate(128.831 11.374)" fill="#28293e"/>
  </g>
</svg>
