<svg xmlns="http://www.w3.org/2000/svg" width="203.358" height="58.735" viewBox="0 0 203.358 58.735">
  <g id="Group_1" data-name="Group 1" transform="translate(-133.083 -39.258)">
    <path id="Path_1" data-name="Path 1" d="M172.97,58.735H30.388C13.606,58.735,0,45.586,0,29.367S13.606,0,30.388,0H172.97c16.783,0,30.388,13.148,30.388,29.367s-13.6,29.367-30.388,29.367" transform="translate(133.083 39.258)" fill="#fff"/>
    <text id="codieslab" transform="translate(193.101 69.187)" fill="#ef6d58" font-size="22" font-family="Poppins-Bold, Poppins" font-weight="700"><tspan x="0" y="0">CODIESLAB</tspan></text>
    <path id="Path_2" data-name="Path 2" d="M35.87,54.688h0A21.412,21.412,0,0,1,14.458,33.275,20.014,20.014,0,0,1,34.472,13.261H51.753a4.132,4.132,0,0,1,4.131,4.131V34.673A20.014,20.014,0,0,1,35.87,54.688" transform="translate(127.604 35.337)" fill="#28293e"/>
    <path id="Path_3" data-name="Path 3" d="M31.132,43.095a8.363,8.363,0,0,1-.187-16.724,2.225,2.225,0,0,1,.1,4.448,3.936,3.936,0,0,0-3.826,3.913,3.943,3.943,0,0,0,3.914,3.914,2.225,2.225,0,1,1,0,4.449Z" transform="translate(126.689 33.893)" fill="#ef6d58"/>
    <path id="Path_4" data-name="Path 4" d="M52.317,35.3a8.1,8.1,0,1,1-8.1-8.1,8.1,8.1,0,0,1,8.1,8.1" transform="translate(125.218 33.801)" fill="#f7cc47"/>
    <text id="Digital_Services" data-name="Digital Services" transform="translate(193.101 84.314)" font-size="12" font-family="HelveticaNeue-Medium, Helvetica Neue" font-weight="500"><tspan x="0" y="0">Digital Services</tspan></text>
  </g>
</svg>
