<svg xmlns="http://www.w3.org/2000/svg" xmlns:xlink="http://www.w3.org/1999/xlink" width="150.671" height="152.676" viewBox="0 0 150.671 152.676">
  <defs>
    <clipPath id="clip-path">
      <rect id="Rectangle_1649" data-name="Rectangle 1649" width="66.646" height="147.886" transform="translate(0 0)" fill="#fff"/>
    </clipPath>
    <clipPath id="clip-path-2">
      <path id="Path_4970" data-name="Path 4970" d="M73.41,142.027h0A73.411,73.411,0,0,1,0,68.617,68.616,68.616,0,0,1,68.617,0h59.246a14.165,14.165,0,0,1,14.164,14.164V73.41A68.618,68.618,0,0,1,73.41,142.027" transform="translate(0 0)" fill="#36374d"/>
    </clipPath>
  </defs>
  <g id="Mask_Group_29" data-name="Mask Group 29" transform="matrix(-0.719, -0.695, 0.695, -0.719, 47.941, 152.676)" clip-path="url(#clip-path)">
    <g id="Mask_Group_28" data-name="Mask Group 28" transform="translate(-37.055 -26.62) rotate(45)" clip-path="url(#clip-path-2)">
      <g id="Group_6158" data-name="Group 6158" transform="translate(7.757 -39.029)">
        <path id="Path_4913" data-name="Path 4913" d="M10.509,20.331h0A10.509,10.509,0,0,1,0,9.822,9.822,9.822,0,0,1,9.822,0H18.3a2.028,2.028,0,0,1,2.028,2.028v8.481a9.822,9.822,0,0,1-9.822,9.822" transform="translate(23.516 114.978)" fill="#36374d" opacity="0.454"/>
        <path id="Path_4914" data-name="Path 4914" d="M10.509,20.331h0A10.509,10.509,0,0,1,0,9.822,9.822,9.822,0,0,1,9.822,0H18.3a2.028,2.028,0,0,1,2.028,2.028v8.481a9.822,9.822,0,0,1-9.822,9.822" transform="translate(23.516 160.041)" fill="#36374d" opacity="0.454"/>
        <path id="Path_4915" data-name="Path 4915" d="M10.509,20.331h0A10.509,10.509,0,0,1,0,9.822,9.822,9.822,0,0,1,9.822,0H18.3a2.028,2.028,0,0,1,2.028,2.028v8.481a9.822,9.822,0,0,1-9.822,9.822" transform="translate(70.548 137.51)" fill="#36374d" opacity="0.454"/>
        <path id="Path_4916" data-name="Path 4916" d="M10.509,20.331h0A10.509,10.509,0,0,1,0,9.822,9.822,9.822,0,0,1,9.822,0H18.3a2.028,2.028,0,0,1,2.028,2.028v8.481a9.822,9.822,0,0,1-9.822,9.822" transform="translate(94.064 161.202)" fill="#36374d" opacity="0.454"/>
        <path id="Path_4917" data-name="Path 4917" d="M10.509,20.331h0A10.509,10.509,0,0,1,0,9.822,9.822,9.822,0,0,1,9.822,0H18.3a2.028,2.028,0,0,1,2.028,2.028v8.481a9.822,9.822,0,0,1-9.822,9.822" transform="translate(117.58 160.041)" fill="#36374d" opacity="0.454"/>
        <path id="Path_4918" data-name="Path 4918" d="M10.509,20.331h0A10.509,10.509,0,0,1,0,9.822,9.822,9.822,0,0,1,9.822,0H18.3a2.028,2.028,0,0,1,2.028,2.028v8.481a9.822,9.822,0,0,1-9.822,9.822" transform="translate(164.612 182.573)" fill="#36374d" opacity="0.454"/>
        <path id="Path_4919" data-name="Path 4919" d="M10.509,20.331h0A10.509,10.509,0,0,1,0,9.822,9.822,9.822,0,0,1,9.822,0H18.3a2.028,2.028,0,0,1,2.028,2.028v8.481a9.822,9.822,0,0,1-9.822,9.822" transform="translate(23.516 68.755)" fill="#36374d" opacity="0.454"/>
        <path id="Path_4920" data-name="Path 4920" d="M10.509,20.331h0A10.509,10.509,0,0,1,0,9.822,9.822,9.822,0,0,1,9.822,0H18.3a2.028,2.028,0,0,1,2.028,2.028v8.481a9.822,9.822,0,0,1-9.822,9.822" transform="translate(70.548 46.223)" fill="#36374d" opacity="0.454"/>
        <path id="Path_4921" data-name="Path 4921" d="M10.509,20.331h0A10.509,10.509,0,0,1,0,9.822,9.822,9.822,0,0,1,9.822,0H18.3a2.028,2.028,0,0,1,2.028,2.028v8.481a9.822,9.822,0,0,1-9.822,9.822" transform="translate(117.58 46.223)" fill="#36374d" opacity="0.454"/>
        <path id="Path_4922" data-name="Path 4922" d="M10.509,20.331h0A10.509,10.509,0,0,1,0,9.822,9.822,9.822,0,0,1,9.822,0H18.3a2.028,2.028,0,0,1,2.028,2.028v8.481a9.822,9.822,0,0,1-9.822,9.822" transform="translate(23.516 22.532)" fill="#36374d" opacity="0.454"/>
        <path id="Path_4923" data-name="Path 4923" d="M10.509,20.331h0A10.509,10.509,0,0,1,0,9.822,9.822,9.822,0,0,1,9.822,0H18.3a2.028,2.028,0,0,1,2.028,2.028v8.481a9.822,9.822,0,0,1-9.822,9.822" transform="translate(70.548 91.286)" fill="#36374d" opacity="0.454"/>
        <path id="Path_4924" data-name="Path 4924" d="M10.509,20.331h0A10.509,10.509,0,0,1,0,9.822,9.822,9.822,0,0,1,9.822,0H18.3a2.028,2.028,0,0,1,2.028,2.028v8.481a9.822,9.822,0,0,1-9.822,9.822" transform="translate(117.58 113.818)" fill="#36374d" opacity="0.454"/>
        <path id="Path_4925" data-name="Path 4925" d="M10.509,20.331h0A10.509,10.509,0,0,1,0,9.822,9.822,9.822,0,0,1,9.822,0H18.3a2.028,2.028,0,0,1,2.028,2.028v8.481a9.822,9.822,0,0,1-9.822,9.822" transform="translate(164.612 136.35)" fill="#36374d" opacity="0.454"/>
        <path id="Path_4926" data-name="Path 4926" d="M10.509,0h0A10.509,10.509,0,0,0,0,10.509a9.822,9.822,0,0,0,9.822,9.822H18.3A2.028,2.028,0,0,0,20.331,18.3V9.822A9.823,9.823,0,0,0,10.509,0" transform="translate(47.032 92.447)" fill="#36374d" opacity="0.454"/>
        <path id="Path_4927" data-name="Path 4927" d="M10.509,0h0A10.509,10.509,0,0,0,0,10.509a9.822,9.822,0,0,0,9.822,9.822H18.3A2.028,2.028,0,0,0,20.331,18.3V9.822A9.823,9.823,0,0,0,10.509,0" transform="translate(0 92.447)" fill="#36374d" opacity="0.454"/>
        <path id="Path_4928" data-name="Path 4928" d="M10.509,0h0A10.509,10.509,0,0,0,0,10.509a9.822,9.822,0,0,0,9.822,9.822H18.3A2.028,2.028,0,0,0,20.331,18.3V9.822A9.823,9.823,0,0,0,10.509,0" transform="translate(47.032 137.51)" fill="#36374d" opacity="0.454"/>
        <path id="Path_4929" data-name="Path 4929" d="M10.509,0h0A10.509,10.509,0,0,0,0,10.509a9.822,9.822,0,0,0,9.822,9.822H18.3A2.028,2.028,0,0,0,20.331,18.3V9.822A9.823,9.823,0,0,0,10.509,0" transform="translate(0 137.51)" fill="#36374d" opacity="0.454"/>
        <path id="Path_4930" data-name="Path 4930" d="M10.509,0h0A10.509,10.509,0,0,0,0,10.509a9.822,9.822,0,0,0,9.822,9.822H18.3A2.028,2.028,0,0,0,20.331,18.3V9.822A9.823,9.823,0,0,0,10.509,0" transform="translate(94.064 114.978)" fill="#36374d" opacity="0.454"/>
        <path id="Path_4931" data-name="Path 4931" d="M10.509,0h0A10.509,10.509,0,0,0,0,10.509a9.822,9.822,0,0,0,9.822,9.822H18.3A2.028,2.028,0,0,0,20.331,18.3V9.822A9.823,9.823,0,0,0,10.509,0" transform="translate(141.096 137.51)" fill="#36374d" opacity="0.454"/>
        <path id="Path_4932" data-name="Path 4932" d="M10.509,0h0A10.509,10.509,0,0,0,0,10.509a9.822,9.822,0,0,0,9.822,9.822H18.3A2.028,2.028,0,0,0,20.331,18.3V9.822A9.823,9.823,0,0,0,10.509,0" transform="translate(188.128 160.041)" fill="#36374d" opacity="0.454"/>
        <path id="Path_4933" data-name="Path 4933" d="M10.509,0h0A10.509,10.509,0,0,0,0,10.509a9.822,9.822,0,0,0,9.822,9.822H18.3A2.028,2.028,0,0,0,20.331,18.3V9.822A9.823,9.823,0,0,0,10.509,0" transform="translate(47.032 46.223)" fill="#36374d" opacity="0.454"/>
        <path id="Path_4934" data-name="Path 4934" d="M10.509,0h0A10.509,10.509,0,0,0,0,10.509a9.822,9.822,0,0,0,9.822,9.822H18.3A2.028,2.028,0,0,0,20.331,18.3V9.822A9.823,9.823,0,0,0,10.509,0" transform="translate(0 46.223)" fill="#36374d" opacity="0.454"/>
        <path id="Path_4935" data-name="Path 4935" d="M10.509,0h0A10.509,10.509,0,0,0,0,10.509a9.822,9.822,0,0,0,9.822,9.822H18.3A2.028,2.028,0,0,0,20.331,18.3V9.822A9.823,9.823,0,0,0,10.509,0" transform="translate(94.064 23.692)" fill="#36374d" opacity="0.454"/>
        <path id="Path_4936" data-name="Path 4936" d="M10.509,0h0A10.509,10.509,0,0,0,0,10.509a9.822,9.822,0,0,0,9.822,9.822H18.3A2.028,2.028,0,0,0,20.331,18.3V9.822A9.823,9.823,0,0,0,10.509,0" transform="translate(47.032 0)" fill="#36374d" opacity="0.454"/>
        <path id="Path_4937" data-name="Path 4937" d="M10.509,0h0A10.509,10.509,0,0,0,0,10.509a9.822,9.822,0,0,0,9.822,9.822H18.3A2.028,2.028,0,0,0,20.331,18.3V9.822A9.823,9.823,0,0,0,10.509,0" transform="translate(94.064 68.755)" fill="#36374d" opacity="0.454"/>
        <path id="Path_4938" data-name="Path 4938" d="M10.509,0h0A10.509,10.509,0,0,0,0,10.509a9.822,9.822,0,0,0,9.822,9.822H18.3A2.028,2.028,0,0,0,20.331,18.3V9.822A9.823,9.823,0,0,0,10.509,0" transform="translate(141.096 68.755)" fill="#36374d" opacity="0.454"/>
        <path id="Path_4939" data-name="Path 4939" d="M10.509,0h0A10.509,10.509,0,0,0,0,10.509a9.822,9.822,0,0,0,9.822,9.822H18.3A2.028,2.028,0,0,0,20.331,18.3V9.822A9.823,9.823,0,0,0,10.509,0" transform="translate(141.096 91.286)" fill="#36374d" opacity="0.454"/>
        <path id="Path_4940" data-name="Path 4940" d="M10.509,0h0A10.509,10.509,0,0,0,0,10.509a9.822,9.822,0,0,0,9.822,9.822H18.3A2.028,2.028,0,0,0,20.331,18.3V9.822A9.823,9.823,0,0,0,10.509,0" transform="translate(188.128 113.818)" fill="#36374d" opacity="0.454"/>
        <path id="Path_4941" data-name="Path 4941" d="M10.509,20.331h0A10.509,10.509,0,0,1,0,9.822,9.822,9.822,0,0,1,9.822,0H18.3a2.028,2.028,0,0,1,2.028,2.028v8.481a9.822,9.822,0,0,1-9.822,9.822" transform="translate(23.516 92.447)" fill="#36374d"/>
        <path id="Path_4942" data-name="Path 4942" d="M10.509,20.331h0A10.509,10.509,0,0,1,0,9.822,9.822,9.822,0,0,1,9.822,0H18.3a2.028,2.028,0,0,1,2.028,2.028v8.481a9.822,9.822,0,0,1-9.822,9.822" transform="translate(23.516 137.51)" fill="#36374d"/>
        <path id="Path_4943" data-name="Path 4943" d="M10.509,20.331h0A10.509,10.509,0,0,1,0,9.822,9.822,9.822,0,0,1,9.822,0H18.3a2.028,2.028,0,0,1,2.028,2.028v8.481a9.822,9.822,0,0,1-9.822,9.822" transform="translate(70.548 114.978)" fill="#36374d"/>
        <path id="Path_4944" data-name="Path 4944" d="M10.509,20.331h0A10.509,10.509,0,0,1,0,9.822,9.822,9.822,0,0,1,9.822,0H18.3a2.028,2.028,0,0,1,2.028,2.028v8.481a9.822,9.822,0,0,1-9.822,9.822" transform="translate(117.58 137.51)" fill="#36374d"/>
        <path id="Path_4945" data-name="Path 4945" d="M10.509,20.331h0A10.509,10.509,0,0,1,0,9.822,9.822,9.822,0,0,1,9.822,0H18.3a2.028,2.028,0,0,1,2.028,2.028v8.481a9.822,9.822,0,0,1-9.822,9.822" transform="translate(164.612 160.041)" fill="#36374d"/>
        <path id="Path_4946" data-name="Path 4946" d="M10.509,20.331h0A10.509,10.509,0,0,1,0,9.822,9.822,9.822,0,0,1,9.822,0H18.3a2.028,2.028,0,0,1,2.028,2.028v8.481a9.822,9.822,0,0,1-9.822,9.822" transform="translate(23.516 46.223)" fill="#36374d"/>
        <path id="Path_4947" data-name="Path 4947" d="M10.509,20.331h0A10.509,10.509,0,0,1,0,9.822,9.822,9.822,0,0,1,9.822,0H18.3a2.028,2.028,0,0,1,2.028,2.028v8.481a9.822,9.822,0,0,1-9.822,9.822" transform="translate(70.548 23.692)" fill="#36374d"/>
        <path id="Path_4948" data-name="Path 4948" d="M10.509,20.331h0A10.509,10.509,0,0,1,0,9.822,9.822,9.822,0,0,1,9.822,0H18.3a2.028,2.028,0,0,1,2.028,2.028v8.481a9.822,9.822,0,0,1-9.822,9.822" transform="translate(23.516 0)" fill="#36374d"/>
        <path id="Path_4949" data-name="Path 4949" d="M10.509,20.331h0A10.509,10.509,0,0,1,0,9.822,9.822,9.822,0,0,1,9.822,0H18.3a2.028,2.028,0,0,1,2.028,2.028v8.481a9.822,9.822,0,0,1-9.822,9.822" transform="translate(70.548 68.755)" fill="#36374d"/>
        <path id="Path_4950" data-name="Path 4950" d="M10.509,20.331h0A10.509,10.509,0,0,1,0,9.822,9.822,9.822,0,0,1,9.822,0H18.3a2.028,2.028,0,0,1,2.028,2.028v8.481a9.822,9.822,0,0,1-9.822,9.822" transform="translate(117.58 68.755)" fill="#36374d"/>
        <path id="Path_4951" data-name="Path 4951" d="M10.509,20.331h0A10.509,10.509,0,0,1,0,9.822,9.822,9.822,0,0,1,9.822,0H18.3a2.028,2.028,0,0,1,2.028,2.028v8.481a9.822,9.822,0,0,1-9.822,9.822" transform="translate(117.58 91.286)" fill="#36374d"/>
        <path id="Path_4952" data-name="Path 4952" d="M10.509,20.331h0A10.509,10.509,0,0,1,0,9.822,9.822,9.822,0,0,1,9.822,0H18.3a2.028,2.028,0,0,1,2.028,2.028v8.481a9.822,9.822,0,0,1-9.822,9.822" transform="translate(164.612 113.818)" fill="#36374d"/>
        <path id="Path_4953" data-name="Path 4953" d="M10.509,0h0A10.509,10.509,0,0,0,0,10.509a9.822,9.822,0,0,0,9.822,9.822H18.3A2.028,2.028,0,0,0,20.331,18.3V9.822A9.823,9.823,0,0,0,10.509,0" transform="translate(47.032 114.978)" fill="#36374d"/>
        <path id="Path_4954" data-name="Path 4954" d="M10.509,0h0A10.509,10.509,0,0,0,0,10.509a9.822,9.822,0,0,0,9.822,9.822H18.3A2.028,2.028,0,0,0,20.331,18.3V9.822A9.823,9.823,0,0,0,10.509,0" transform="translate(0 114.978)" fill="#36374d"/>
        <path id="Path_4955" data-name="Path 4955" d="M10.509,0h0A10.509,10.509,0,0,0,0,10.509a9.822,9.822,0,0,0,9.822,9.822H18.3A2.028,2.028,0,0,0,20.331,18.3V9.822A9.823,9.823,0,0,0,10.509,0" transform="translate(47.032 160.041)" fill="#36374d"/>
        <path id="Path_4956" data-name="Path 4956" d="M10.509,0h0A10.509,10.509,0,0,0,0,10.509a9.822,9.822,0,0,0,9.822,9.822H18.3A2.028,2.028,0,0,0,20.331,18.3V9.822A9.823,9.823,0,0,0,10.509,0" transform="translate(0 160.041)" fill="#36374d"/>
        <path id="Path_4957" data-name="Path 4957" d="M10.509,0h0A10.509,10.509,0,0,0,0,10.509a9.822,9.822,0,0,0,9.822,9.822H18.3A2.028,2.028,0,0,0,20.331,18.3V9.822A9.823,9.823,0,0,0,10.509,0" transform="translate(70.548 160.041)" fill="#36374d"/>
        <path id="Path_4958" data-name="Path 4958" d="M10.509,0h0A10.509,10.509,0,0,0,0,10.509a9.822,9.822,0,0,0,9.822,9.822H18.3A2.028,2.028,0,0,0,20.331,18.3V9.822A9.823,9.823,0,0,0,10.509,0" transform="translate(94.064 137.51)" fill="#36374d"/>
        <path id="Path_4959" data-name="Path 4959" d="M10.509,0h0A10.509,10.509,0,0,0,0,10.509a9.822,9.822,0,0,0,9.822,9.822H18.3A2.028,2.028,0,0,0,20.331,18.3V9.822A9.823,9.823,0,0,0,10.509,0" transform="translate(141.096 160.041)" fill="#36374d"/>
        <path id="Path_4960" data-name="Path 4960" d="M10.509,0h0A10.509,10.509,0,0,0,0,10.509a9.822,9.822,0,0,0,9.822,9.822H18.3A2.028,2.028,0,0,0,20.331,18.3V9.822A9.823,9.823,0,0,0,10.509,0" transform="translate(188.128 182.573)" fill="#36374d"/>
        <path id="Path_4961" data-name="Path 4961" d="M10.509,0h0A10.509,10.509,0,0,0,0,10.509a9.822,9.822,0,0,0,9.822,9.822H18.3A2.028,2.028,0,0,0,20.331,18.3V9.822A9.823,9.823,0,0,0,10.509,0" transform="translate(47.032 68.755)" fill="#36374d"/>
        <path id="Path_4962" data-name="Path 4962" d="M10.509,0h0A10.509,10.509,0,0,0,0,10.509a9.822,9.822,0,0,0,9.822,9.822H18.3A2.028,2.028,0,0,0,20.331,18.3V9.822A9.823,9.823,0,0,0,10.509,0" transform="translate(0 68.755)" fill="#36374d"/>
        <path id="Path_4963" data-name="Path 4963" d="M10.509,0h0A10.509,10.509,0,0,0,0,10.509a9.822,9.822,0,0,0,9.822,9.822H18.3A2.028,2.028,0,0,0,20.331,18.3V9.822A9.823,9.823,0,0,0,10.509,0" transform="translate(94.064 46.223)" fill="#36374d"/>
        <path id="Path_4964" data-name="Path 4964" d="M10.509,0h0A10.509,10.509,0,0,0,0,10.509a9.822,9.822,0,0,0,9.822,9.822H18.3A2.028,2.028,0,0,0,20.331,18.3V9.822A9.823,9.823,0,0,0,10.509,0" transform="translate(117.58 22.532)" fill="#36374d"/>
        <path id="Path_4965" data-name="Path 4965" d="M10.509,0h0A10.509,10.509,0,0,0,0,10.509a9.822,9.822,0,0,0,9.822,9.822H18.3A2.028,2.028,0,0,0,20.331,18.3V9.822A9.823,9.823,0,0,0,10.509,0" transform="translate(141.096 46.223)" fill="#36374d"/>
        <path id="Path_4966" data-name="Path 4966" d="M10.509,0h0A10.509,10.509,0,0,0,0,10.509a9.822,9.822,0,0,0,9.822,9.822H18.3A2.028,2.028,0,0,0,20.331,18.3V9.822A9.823,9.823,0,0,0,10.509,0" transform="translate(47.032 22.532)" fill="#36374d"/>
        <path id="Path_4967" data-name="Path 4967" d="M10.509,0h0A10.509,10.509,0,0,0,0,10.509a9.822,9.822,0,0,0,9.822,9.822H18.3A2.028,2.028,0,0,0,20.331,18.3V9.822A9.823,9.823,0,0,0,10.509,0" transform="translate(94.064 91.286)" fill="#36374d"/>
        <path id="Path_4968" data-name="Path 4968" d="M10.509,0h0A10.509,10.509,0,0,0,0,10.509a9.822,9.822,0,0,0,9.822,9.822H18.3A2.028,2.028,0,0,0,20.331,18.3V9.822A9.823,9.823,0,0,0,10.509,0" transform="translate(141.096 113.818)" fill="#36374d"/>
        <path id="Path_4969" data-name="Path 4969" d="M10.509,0h0A10.509,10.509,0,0,0,0,10.509a9.822,9.822,0,0,0,9.822,9.822H18.3A2.028,2.028,0,0,0,20.331,18.3V9.822A9.823,9.823,0,0,0,10.509,0" transform="translate(188.128 136.35)" fill="#36374d"/>
      </g>
    </g>
  </g>
</svg>
