<svg xmlns="http://www.w3.org/2000/svg" width="15.605" height="13.654" viewBox="0 0 15.605 13.654">
  <path id="Path_48" data-name="Path 48" d="M143.6,145.641a5.35,5.35,0,0,1-1.787.546,3.658,3.658,0,0,0,1.342-1.883,4.982,4.982,0,0,1-2.008.766,0,0,0,0,0,0,0A3.107,3.107,0,0,0,138.823,144a3.35,3.35,0,0,0-3.219,3.467,3.67,3.67,0,0,0,.083.772h0a9.055,9.055,0,0,1-6.819-3.6,3.63,3.63,0,0,0,.976,4.58,1.961,1.961,0,0,1-1.406-.391,3.314,3.314,0,0,0,2.483,3.387,2.351,2.351,0,0,1-1.34.109,3.1,3.1,0,0,0,2.877,2.354A5.049,5.049,0,0,1,128,156.121a9.157,9.157,0,0,0,5.035,1.534c5.194,0,9.227-4.533,9.01-10.125,0-.007,0-.013,0-.019s0-.031,0-.044,0-.034,0-.052A5.8,5.8,0,0,0,143.6,145.641Z" transform="translate(-127.999 -144)" fill="#fff"/>
</svg>
