<svg xmlns="http://www.w3.org/2000/svg" width="54.492" height="62.245" viewBox="0 0 54.492 62.245">
  <g id="Group_6024" data-name="Group 6024" transform="translate(0)">
    <path id="Path_74" data-name="Path 74" d="M442.034,207.212a3.889,3.889,0,0,0,3.89-3.89v-.6a16.834,16.834,0,0,0-5.116-12.089,3.832,3.832,0,0,0-5.835.623v.068a3.889,3.889,0,0,0,.5,4.95,9.081,9.081,0,0,1,2.674,6.448v.6a3.89,3.89,0,0,0,3.891,3.89Z" transform="translate(-392.418 -174.145)" fill="#f7cc47"/>
    <path id="Path_75" data-name="Path 75" d="M204.807,348.143a11.67,11.67,0,0,0,10.99-7.781h9.142a11.671,11.671,0,1,0,0-7.78H215.8a11.671,11.671,0,1,0-10.991,15.561Zm31.123-15.561a3.89,3.89,0,1,1-2.751,1.139A3.89,3.89,0,0,1,235.93,332.582Zm-31.123,0a3.89,3.89,0,1,1-2.75,1.139A3.891,3.891,0,0,1,204.807,332.582Z" transform="translate(-193.122 -285.898)" fill="#ef6d58"/>
    <path id="Path_76" data-name="Path 76" d="M206.58,129.979v-.6a9.112,9.112,0,0,1,9.123-9.123h5.466a15.561,15.561,0,0,0,15.561-15.562,3.89,3.89,0,0,0-7.781,0,7.78,7.78,0,0,1-7.78,7.781H215.7a16.9,16.9,0,0,0-16.9,16.9v.6a3.89,3.89,0,0,0,7.781,0Z" transform="translate(-197.813 -100.801)" fill="#28293e"/>
  </g>
</svg>
