<svg xmlns="http://www.w3.org/2000/svg" width="65.422" height="65.449" viewBox="0 0 65.422 65.449">
  <g id="Group_6020" data-name="Group 6020" transform="translate(0)">
    <path id="Path_254" data-name="Path 254" d="M298.308,206.773a4.09,4.09,0,0,0-2.648,3.731v.3a3.946,3.946,0,0,0,5.306,3.711,15.333,15.333,0,1,0-19.7-19.689,3.946,3.946,0,0,0,3.721,5.306h.3a4.09,4.09,0,0,0,3.731-2.648,7.155,7.155,0,0,1,6.747-4.508,7.246,7.246,0,0,1,7.053,7.053,7.155,7.155,0,0,1-4.508,6.747Z" transform="translate(-260.905 -169.438)" fill="#f7cc47"/>
    <path id="Path_255" data-name="Path 255" d="M255.748,129.388a30.667,30.667,0,0,0-60.955-2.443,3.925,3.925,0,0,0,3.915,4.416h.3a3.945,3.945,0,0,0,3.895-3.383,22.489,22.489,0,1,1,25.627,25.617,3.945,3.945,0,0,0-3.383,3.895v.3h0a3.926,3.926,0,0,0,4.416,3.915,30.667,30.667,0,0,0,26.189-32.313Z" transform="translate(-190.388 -100.671)" fill="#28293e"/>
    <path id="Path_256" data-name="Path 256" d="M170.8,331.506a4.089,4.089,0,0,0,6.982,2.893l12.44-12.44v7.5a4.088,4.088,0,0,0,4.488,4.089,4.212,4.212,0,0,0,3.69-4.263V316.173a8.177,8.177,0,0,0-8.178-8.178H177.106a4.212,4.212,0,0,0-4.263,3.69,4.088,4.088,0,0,0,4.089,4.488h7.5l-12.44,12.44a4.089,4.089,0,0,0-1.2,2.893Z" transform="translate(-170.799 -270.149)" fill="#ef6d58"/>
  </g>
</svg>
