<svg xmlns="http://www.w3.org/2000/svg" width="64.912" height="56.811" viewBox="0 0 64.912 56.811">
  <g id="Group_6132" data-name="Group 6132" transform="translate(-623.569 -1721)">
    <g id="noun-premium-4669933" transform="translate(623.569 1721)">
      <path id="Path_737" data-name="Path 737" d="M231.739,132.383a8.113,8.113,0,0,0-8.874.365l-6.8,4.858-5.72-10.314a8.114,8.114,0,0,0-14.2,0l-5.72,10.314-6.8-4.858a8.113,8.113,0,0,0-12.768,7.616l4.056,32.453h0a8.114,8.114,0,0,0,8.053,7.1h40.567a8.114,8.114,0,0,0,8.053-7.1l4.056-32.453h0a8.114,8.114,0,0,0-3.894-7.981Zm-8.215,39.42H182.958L178.9,139.35l10.263,7.332a4.321,4.321,0,0,0,6.287-1.42l7.789-14.026,7.789,14.026a4.321,4.321,0,0,0,6.287,1.42l10.263-7.332Z" transform="translate(-170.785 -123.107)" fill="#28293e"/>
    </g>
    <path id="Path_739" data-name="Path 739" d="M331.134,407.767a4.567,4.567,0,1,1-4.567-4.567,4.567,4.567,0,0,1,4.567,4.567" transform="translate(321.537 1348.439)" fill="#ef6d58"/>
    <path id="Path_740" data-name="Path 740" d="M331.134,407.767a4.567,4.567,0,1,1-4.567-4.567,4.567,4.567,0,0,1,4.567,4.567" transform="translate(337.379 1348.439)" fill="#ef6d58"/>
  </g>
</svg>
