<svg xmlns="http://www.w3.org/2000/svg" width="60.621" height="60.62" viewBox="0 0 60.621 60.62">
  <g id="noun-privacy-4890409" transform="translate(-69.992 -0.003)">
    <path id="Path_25786" data-name="Path 25786" d="M290.117,115.037a8.83,8.83,0,1,1-8.828-8.641A8.736,8.736,0,0,1,290.117,115.037Z" transform="translate(-180.551 -94.876)" fill="#f6cb47"/>
    <path id="Path_25787" data-name="Path 25787" d="M260.547,289.7a23.1,23.1,0,0,0-11.347,2.483L260.112,303.5l11.707-11.319A22.926,22.926,0,0,0,260.547,289.7Z" transform="translate(-159.809 -258.338)" fill="#ef6d58"/>
    <path id="Path_25788" data-name="Path 25788" d="M69.993,30.094V1.819A1.816,1.816,0,0,1,71.808,0H128.8a1.816,1.816,0,0,1,1.815,1.816V30.094c0,.48-10.763,11.7-11.1,12.039l-17.93,17.953a1.814,1.814,0,0,1-2.576,0L70.519,31.374a1.817,1.817,0,0,1-.527-1.28ZM99,48.971,78.47,27.631a1.816,1.816,0,0,1-.507-1.259V9.552a1.816,1.816,0,0,1,1.815-1.816h41.777a1.816,1.816,0,0,1,1.815,1.816V26a1.975,1.975,0,0,1-.637,1.282l-21.13,21.7a1.815,1.815,0,0,1-2.6-.011Z" fill="#28293e" fill-rule="evenodd"/>
  </g>
</svg>
