<svg xmlns="http://www.w3.org/2000/svg" width="31" height="31" viewBox="0 0 31 31">
  <g id="Group_6177" data-name="Group 6177" transform="translate(-1002 -513)">
    <circle id="Ellipse_356" data-name="Ellipse 356" cx="15.5" cy="15.5" r="15.5" transform="translate(1002 513)" fill="#29aef5"/>
    <path id="Icon_ionic-logo-twitter" data-name="Icon ionic-logo-twitter" d="M18.108,6.11a6.925,6.925,0,0,1-1.967.541,3.437,3.437,0,0,0,1.507-1.9,6.806,6.806,0,0,1-2.176.831A3.424,3.424,0,0,0,9.546,7.928a3.353,3.353,0,0,0,.088.782A9.707,9.707,0,0,1,2.574,5.126,3.432,3.432,0,0,0,3.639,9.7a3.345,3.345,0,0,1-1.557-.428v.042a3.428,3.428,0,0,0,2.749,3.361,3.448,3.448,0,0,1-.9.12,3.231,3.231,0,0,1-.644-.064,3.431,3.431,0,0,0,3.2,2.381A6.867,6.867,0,0,1,2.23,16.585a6.943,6.943,0,0,1-.817-.05,9.574,9.574,0,0,0,5.243,1.55A9.687,9.687,0,0,0,16.41,8.328c0-.149,0-.3-.011-.442A6.972,6.972,0,0,0,18.108,6.11Z" transform="translate(1007.739 517.208)" fill="#fff"/>
  </g>
</svg>
