<svg xmlns="http://www.w3.org/2000/svg" xmlns:xlink="http://www.w3.org/1999/xlink" width="1366" height="43" viewBox="0 0 1366 43">
  <defs>
    <clipPath id="clip-path">
      <rect id="Rectangle_3" data-name="Rectangle 3" width="1366" height="43" transform="translate(0 726)" fill="#fff"/>
    </clipPath>
  </defs>
  <g id="Mask_Group_1" data-name="Mask Group 1" transform="translate(0 -726)" clip-path="url(#clip-path)">
    <g id="Group_2" data-name="Group 2" transform="translate(1960 335.576)">
      <path id="Path_6" data-name="Path 6" d="M43.864,70.153h0A29.406,29.406,0,0,1,14.458,40.747,27.485,27.485,0,0,1,41.944,13.261H65.676a5.674,5.674,0,0,1,5.674,5.674V42.667A27.486,27.486,0,0,1,43.864,70.153" transform="translate(-1518.865 385.739)" fill="#36374d"/>
      <path id="Path_14" data-name="Path 14" d="M43.864,70.153h0A29.406,29.406,0,0,1,14.458,40.747,27.485,27.485,0,0,1,41.944,13.261H65.676a5.674,5.674,0,0,1,5.674,5.674V42.667A27.486,27.486,0,0,1,43.864,70.153" transform="translate(-1974.458 385.739)" fill="#36374d"/>
      <path id="Path_32" data-name="Path 32" d="M43.864,70.153h0A29.406,29.406,0,0,1,14.458,40.747,27.485,27.485,0,0,1,41.944,13.261H65.676a5.674,5.674,0,0,1,5.674,5.674V42.667A27.486,27.486,0,0,1,43.864,70.153" transform="translate(-836.712 385.739)" fill="#36374d"/>
      <path id="Path_13" data-name="Path 13" d="M43.864,70.153h0A29.406,29.406,0,0,1,14.458,40.747,27.485,27.485,0,0,1,41.944,13.261H65.676a5.674,5.674,0,0,1,5.674,5.674V42.667A27.486,27.486,0,0,1,43.864,70.153" transform="translate(-1291.481 385.739)" fill="#36374d"/>
      <path id="Path_16" data-name="Path 16" d="M43.864,70.153h0A29.406,29.406,0,0,1,14.458,40.747,27.485,27.485,0,0,1,41.944,13.261H65.676a5.674,5.674,0,0,1,5.674,5.674V42.667A27.486,27.486,0,0,1,43.864,70.153" transform="translate(-1064.096 385.739)" fill="#36374d"/>
      <path id="Path_22" data-name="Path 22" d="M43.864,70.153h0A29.406,29.406,0,0,1,14.458,40.747,27.485,27.485,0,0,1,41.944,13.261H65.676a5.674,5.674,0,0,1,5.674,5.674V42.667A27.486,27.486,0,0,1,43.864,70.153" transform="translate(-1746.25 385.739)" fill="#36374d"/>
      <path id="Path_9" data-name="Path 9" d="M43.864,70.153h0A29.406,29.406,0,0,1,14.458,40.747,27.485,27.485,0,0,1,41.944,13.261H65.676a5.674,5.674,0,0,1,5.674,5.674V42.667A27.486,27.486,0,0,1,43.864,70.153" transform="translate(-1405.173 385.739)" fill="#36374d"/>
      <path id="Path_18" data-name="Path 18" d="M43.864,70.153h0A29.406,29.406,0,0,1,14.458,40.747,27.485,27.485,0,0,1,41.944,13.261H65.676a5.674,5.674,0,0,1,5.674,5.674V42.667A27.486,27.486,0,0,1,43.864,70.153" transform="translate(-1860.766 385.739)" fill="#36374d"/>
      <path id="Path_27" data-name="Path 27" d="M43.864,70.153h0A29.406,29.406,0,0,1,14.458,40.747,27.485,27.485,0,0,1,41.944,13.261H65.676a5.674,5.674,0,0,1,5.674,5.674V42.667A27.486,27.486,0,0,1,43.864,70.153" transform="translate(-722.196 385.739)" fill="#36374d"/>
      <path id="Path_11" data-name="Path 11" d="M43.864,70.153h0A29.406,29.406,0,0,1,14.458,40.747,27.485,27.485,0,0,1,41.944,13.261H65.676a5.674,5.674,0,0,1,5.674,5.674V42.667A27.486,27.486,0,0,1,43.864,70.153" transform="translate(-1177.788 385.739)" fill="#36374d"/>
      <path id="Path_19" data-name="Path 19" d="M43.864,70.153h0A29.406,29.406,0,0,1,14.458,40.747,27.485,27.485,0,0,1,41.944,13.261H65.676a5.674,5.674,0,0,1,5.674,5.674V42.667A27.486,27.486,0,0,1,43.864,70.153" transform="translate(-950.404 385.739)" fill="#36374d" opacity="0.454"/>
      <path id="Path_24" data-name="Path 24" d="M43.864,70.153h0A29.406,29.406,0,0,1,14.458,40.747,27.485,27.485,0,0,1,41.944,13.261H65.676a5.674,5.674,0,0,1,5.674,5.674V42.667A27.486,27.486,0,0,1,43.864,70.153" transform="translate(-1632.557 385.739)" fill="#36374d" opacity="0.454"/>
      <path id="Path_7" data-name="Path 7" d="M43.864,70.153h0A29.406,29.406,0,0,1,14.458,40.747,27.485,27.485,0,0,1,41.944,13.261H65.676a5.674,5.674,0,0,1,5.674,5.674V42.667A27.486,27.486,0,0,1,43.864,70.153" transform="translate(-1462.019 385.739)" fill="#36374d" opacity="0.471"/>
      <path id="Path_15" data-name="Path 15" d="M43.864,70.153h0A29.406,29.406,0,0,1,14.458,40.747,27.485,27.485,0,0,1,41.944,13.261H65.676a5.674,5.674,0,0,1,5.674,5.674V42.667A27.486,27.486,0,0,1,43.864,70.153" transform="translate(-1917.612 385.739)" fill="#36374d" opacity="0.471"/>
      <path id="Path_29" data-name="Path 29" d="M43.864,70.153h0A29.406,29.406,0,0,1,14.458,40.747,27.485,27.485,0,0,1,41.944,13.261H65.676a5.674,5.674,0,0,1,5.674,5.674V42.667A27.486,27.486,0,0,1,43.864,70.153" transform="translate(-779.866 385.739)" fill="#36374d" opacity="0.471"/>
      <path id="Path_12" data-name="Path 12" d="M43.864,70.153h0A29.406,29.406,0,0,1,14.458,40.747,27.485,27.485,0,0,1,41.944,13.261H65.676a5.674,5.674,0,0,1,5.674,5.674V42.667A27.486,27.486,0,0,1,43.864,70.153" transform="translate(-1234.635 385.739)" fill="#36374d"/>
      <path id="Path_17" data-name="Path 17" d="M43.864,70.153h0A29.406,29.406,0,0,1,14.458,40.747,27.485,27.485,0,0,1,41.944,13.261H65.676a5.674,5.674,0,0,1,5.674,5.674V42.667A27.486,27.486,0,0,1,43.864,70.153" transform="translate(-1007.25 385.739)" fill="#36374d"/>
      <path id="Path_23" data-name="Path 23" d="M43.864,70.153h0A29.406,29.406,0,0,1,14.458,40.747,27.485,27.485,0,0,1,41.944,13.261H65.676a5.674,5.674,0,0,1,5.674,5.674V42.667A27.486,27.486,0,0,1,43.864,70.153" transform="translate(-1689.404 385.739)" fill="#36374d"/>
      <path id="Path_8" data-name="Path 8" d="M43.864,70.153h0A29.406,29.406,0,0,1,14.458,40.747,27.485,27.485,0,0,1,41.944,13.261H65.676a5.674,5.674,0,0,1,5.674,5.674V42.667A27.486,27.486,0,0,1,43.864,70.153" transform="translate(-1348.327 385.739)" fill="#36374d"/>
      <path id="Path_20" data-name="Path 20" d="M43.864,70.153h0A29.406,29.406,0,0,1,14.458,40.747,27.485,27.485,0,0,1,41.944,13.261H65.676a5.674,5.674,0,0,1,5.674,5.674V42.667A27.486,27.486,0,0,1,43.864,70.153" transform="translate(-1803.92 385.739)" fill="#36374d"/>
      <path id="Path_31" data-name="Path 31" d="M43.864,70.153h0A29.406,29.406,0,0,1,14.458,40.747,27.485,27.485,0,0,1,41.944,13.261H65.676a5.674,5.674,0,0,1,5.674,5.674V42.667A27.486,27.486,0,0,1,43.864,70.153" transform="translate(-665.35 385.739)" fill="#36374d"/>
      <path id="Path_10" data-name="Path 10" d="M43.864,70.153h0A29.406,29.406,0,0,1,14.458,40.747,27.485,27.485,0,0,1,41.944,13.261H65.676a5.674,5.674,0,0,1,5.674,5.674V42.667A27.486,27.486,0,0,1,43.864,70.153" transform="translate(-1120.942 385.739)" fill="#36374d" opacity="0.575"/>
      <path id="Path_21" data-name="Path 21" d="M43.864,70.153h0A29.406,29.406,0,0,1,14.458,40.747,27.485,27.485,0,0,1,41.944,13.261H65.676a5.674,5.674,0,0,1,5.674,5.674V42.667A27.486,27.486,0,0,1,43.864,70.153" transform="translate(-893.558 385.739)" fill="#36374d"/>
      <path id="Path_25" data-name="Path 25" d="M43.864,70.153h0A29.406,29.406,0,0,1,14.458,40.747,27.485,27.485,0,0,1,41.944,13.261H65.676a5.674,5.674,0,0,1,5.674,5.674V42.667A27.486,27.486,0,0,1,43.864,70.153" transform="translate(-1575.711 385.739)" fill="#36374d"/>
    </g>
  </g>
</svg>
