<svg xmlns="http://www.w3.org/2000/svg" width="93.514" height="18.978" viewBox="0 0 93.514 18.978">
  <g id="Frame" transform="translate(0 0)">
    <path id="Vector" d="M11.442.132c-.091.1-.1.238-.109,2.973-.008,1.737-.032,2.865-.061,2.865a.3.3,0,0,1-.137-.1,6.2,6.2,0,0,0-1.022-.65A7.7,7.7,0,0,0,6.1,4.586,7.878,7.878,0,0,0,3.285,5.611a5.241,5.241,0,0,1-.451.324A9,9,0,0,0,1.357,7.4a3.044,3.044,0,0,1-.283.476A6.349,6.349,0,0,0,.118,10.3a8.748,8.748,0,0,0,.238,3.819,6.34,6.34,0,0,0,.96,1.837.08.08,0,0,1,.04.07,6.331,6.331,0,0,0,1.552,1.6,7.125,7.125,0,0,0,6.44.949,9.38,9.38,0,0,0,1.765-.923L11.3,17.5l.025.587c.023.532.036.6.146.719l.121.132H12.7c1.021,0,1.122-.008,1.231-.1l.118-.1V10.053c0-7.659-.009-8.7-.075-8.766a3.054,3.054,0,0,0-.425-.264A3.456,3.456,0,0,1,13.1.743C12.457.167,11.668-.124,11.442.132ZM53.516.118c-.071.08-.083.229-.083,1.014,0,1.049,0,1.037.412,1.307A3.629,3.629,0,0,1,54.2,2.7a2.38,2.38,0,0,0,.376.236,6.947,6.947,0,0,1,.622.387c.449.315.714.324.863.03a15.3,15.3,0,0,0,0-3.177L55.984.024H54.792C53.7.024,53.592.032,53.516.118ZM83.1.059a9.607,9.607,0,0,0-2.518.775,2.754,2.754,0,0,1-.423.183A9.832,9.832,0,0,0,76.617,4.3a6.26,6.26,0,0,1-.448.771,11.357,11.357,0,0,0-.655,1.617c-.451,1.562-.45,1.554-.45,6.322v4.131l.121.341a1.854,1.854,0,0,0,.241.476,2.258,2.258,0,0,1,.2.269,2.228,2.228,0,0,0,.951.618c.409.13,7.87.145,8.751.017a10.04,10.04,0,0,0,4.13-1.643,3.265,3.265,0,0,1,.4-.273,4.772,4.772,0,0,0,.569-.5c.258-.25.488-.462.513-.472a5.17,5.17,0,0,0,.432-.511c.214-.271.435-.547.5-.612a3.145,3.145,0,0,0,.292-.489,3.628,3.628,0,0,1,.253-.448,5.505,5.505,0,0,0,.313-.616,9.894,9.894,0,0,0,.087-7.509,6.7,6.7,0,0,0-.351-.743A3.434,3.434,0,0,1,92.22,4.6a9.937,9.937,0,0,0-2.408-2.73c-.138-.1-.363-.26-.5-.364A9.659,9.659,0,0,0,83.1.059ZM85,3.59a3.222,3.222,0,0,1,2.252,2.327,22.51,22.51,0,0,1-.03,4.278,2.629,2.629,0,0,1-.385.861A3.268,3.268,0,0,1,85.064,12.4a3.076,3.076,0,0,1-3.68-2.034,22.167,22.167,0,0,1-.113-4.249A3.04,3.04,0,0,1,85,3.59Zm-62.692.927a7.667,7.667,0,0,0-3.364,1.221A2.325,2.325,0,0,1,18.585,6a7.5,7.5,0,0,0-1.623,1.821,7.054,7.054,0,0,0-1.083,3.906,7.033,7.033,0,0,0,11.715,5.407c1.545-1.408,1.607-1.72.394-2-.34-.078-.827-.2-1.081-.267-.689-.185-.807-.173-1.123.114a4.156,4.156,0,0,1-5.223.405,4.334,4.334,0,0,1-1.652-2.059l-.066-.225h10.8l.162-.155.162-.155-.028-1.037a10.669,10.669,0,0,0-.1-1.37l-.155-.718a6.994,6.994,0,0,0-.79-1.769,1.992,1.992,0,0,1-.209-.359,7.944,7.944,0,0,0-1.459-1.54c-.138-.091-.335-.235-.438-.319A7.456,7.456,0,0,0,22.313,4.517Zm14.571.07a5.246,5.246,0,0,0-1.381.335A.638.638,0,0,1,35.283,5c-.631,0-2.227,1.542-2.83,2.736-.736,1.455-.757,1.648-.74,6.815l.014,4.144.14.124a6.281,6.281,0,0,0,2.411.044c.2-.136.2-.136.228-4.636l.025-4.383.154-.388a4.2,4.2,0,0,1,.434-.769,2.3,2.3,0,0,1,1.19-1.041,2.252,2.252,0,0,1,2.352.1,3.14,3.14,0,0,0,.4.228,4.185,4.185,0,0,1,1.085,1.659c.206.667.221,1.025.222,5.162,0,3.878,0,3.926.1,4.037a5.447,5.447,0,0,0,2.437-.011l.14-.124.027-4.3.028-4.3.154-.487c.958-3.019,4.463-2.964,5.51.087l.138.4.026,4.337a38.283,38.283,0,0,0,.095,4.421,6.713,6.713,0,0,0,2.5-.034l.109-.118V14.4c0-4.854.006-4.756-.374-5.886a5.93,5.93,0,0,0-1.629-2.517,3.9,3.9,0,0,1-.393-.318A5.51,5.51,0,0,0,44.8,4.692a5.405,5.405,0,0,0-2.748,1.594l-.386.4-.215-.258A5.456,5.456,0,0,0,36.884,4.587Zm16.863-.016c-.339.067-.314-.494-.314,7.221v6.935l.132.106a8.968,8.968,0,0,0,2.344.074c.234-.092.228.123.228-7.145,0-7.456.015-7.064-.281-7.179A15.9,15.9,0,0,0,53.747,4.572Zm10.026.064a8.5,8.5,0,0,0-1.93.619,5.715,5.715,0,0,0-.9.562A1.721,1.721,0,0,1,60.694,6a5.563,5.563,0,0,0-.7.636,7.325,7.325,0,0,0-1.956,6.517,7.447,7.447,0,0,0,3.4,4.861,6.936,6.936,0,0,0,8.562-1.177A7.558,7.558,0,0,0,71.893,10.3,6.136,6.136,0,0,0,71.014,8c-.13-.2-.3-.463-.368-.59a7.98,7.98,0,0,0-1.552-1.545A7.128,7.128,0,0,0,63.773,4.635ZM83.718,4.59a2.04,2.04,0,0,0-1.337,1.246L82.25,6.2V8c0,1.744,0,1.8.116,2.127a2.039,2.039,0,0,0,3.732.231c.227-.464.24-.61.223-2.487L86.306,6.1l-.155-.333A2.1,2.1,0,0,0,83.718,4.59Zm.89,2.17.171.174V8.261c0,1.166-.01,1.342-.085,1.453a.43.43,0,0,1-.746.081l-.17-.174V6.935l.17-.174a.4.4,0,0,1,.661,0ZM8.031,7.454A4.426,4.426,0,0,1,10.444,14.4a3.894,3.894,0,0,1-1.123,1.072,4.262,4.262,0,0,1-5.579-.892C1.063,11.435,4.083,6.415,8.031,7.454Zm15.984,0a4.442,4.442,0,0,1,2.8,2.459l.172.412H18.837l.068-.2a3.933,3.933,0,0,1,.7-1.212,2.722,2.722,0,0,0,.214-.25A4.346,4.346,0,0,1,24.015,7.457Zm42.061.027a3.891,3.891,0,0,1,1.939,1.167,4.385,4.385,0,0,1-4.052,7.374,3.732,3.732,0,0,1-1.775-.929,4.455,4.455,0,0,1-1.344-4.508A4.271,4.271,0,0,1,66.076,7.484Zm23.339,3.428a.583.583,0,0,1,.17.285,5.958,5.958,0,0,1-.7,1.8c-.018.014-.173.21-.346.436a3.956,3.956,0,0,1-.48.538l-.536.417a5.237,5.237,0,0,1-2.073.942,5.833,5.833,0,0,1-4.251-.781A5.778,5.778,0,0,1,79.5,12.737a4.933,4.933,0,0,0-.2-.464c-.433-.886-.364-1.355.2-1.355.285,0,.4.111.53.531a4.057,4.057,0,0,0,.277.638,2.181,2.181,0,0,1,.169.338,4.776,4.776,0,0,0,1.462,1.406c2.643,1.338,5.7.262,6.524-2.3Q88.847,10.327,89.416,10.912Z" transform="translate(0 0)" fill="#989898"/>
    <path id="Vector-2" data-name="Vector" d="M11.442.132c-.091.1-.1.238-.109,2.973-.008,1.737-.032,2.865-.061,2.865a.3.3,0,0,1-.137-.1,6.2,6.2,0,0,0-1.022-.65A7.7,7.7,0,0,0,6.1,4.586,7.878,7.878,0,0,0,3.285,5.611a5.241,5.241,0,0,1-.451.324A9,9,0,0,0,1.357,7.4a3.044,3.044,0,0,1-.283.476A6.349,6.349,0,0,0,.118,10.3a8.748,8.748,0,0,0,.238,3.819,6.34,6.34,0,0,0,.96,1.837.08.08,0,0,1,.04.07,6.331,6.331,0,0,0,1.552,1.6,7.125,7.125,0,0,0,6.44.949,9.38,9.38,0,0,0,1.765-.923L11.3,17.5l.025.587c.023.532.036.6.146.719l.121.132H12.7c1.021,0,1.122-.008,1.231-.1l.118-.1V10.053c0-7.659-.009-8.7-.075-8.766a3.054,3.054,0,0,0-.425-.264A3.456,3.456,0,0,1,13.1.743C12.457.167,11.668-.124,11.442.132ZM53.516.118c-.071.08-.083.229-.083,1.014,0,1.049,0,1.037.412,1.307A3.629,3.629,0,0,1,54.2,2.7a2.38,2.38,0,0,0,.376.236,6.947,6.947,0,0,1,.622.387c.449.315.714.324.863.03a15.3,15.3,0,0,0,0-3.177L55.984.024H54.792C53.7.024,53.592.032,53.516.118ZM83.1.059a9.607,9.607,0,0,0-2.518.775,2.754,2.754,0,0,1-.423.183A9.832,9.832,0,0,0,76.617,4.3a6.26,6.26,0,0,1-.448.771,11.357,11.357,0,0,0-.655,1.617c-.451,1.562-.45,1.554-.45,6.322v4.131l.121.341a1.854,1.854,0,0,0,.241.476,2.258,2.258,0,0,1,.2.269,2.228,2.228,0,0,0,.951.618c.409.13,7.87.145,8.751.017a10.04,10.04,0,0,0,4.13-1.643,3.265,3.265,0,0,1,.4-.273,4.772,4.772,0,0,0,.569-.5c.258-.25.488-.462.513-.472a5.17,5.17,0,0,0,.432-.511c.214-.271.435-.547.5-.612a3.145,3.145,0,0,0,.292-.489,3.628,3.628,0,0,1,.253-.448,5.505,5.505,0,0,0,.313-.616,9.894,9.894,0,0,0,.087-7.509,6.7,6.7,0,0,0-.351-.743A3.434,3.434,0,0,1,92.22,4.6a9.937,9.937,0,0,0-2.408-2.73c-.138-.1-.363-.26-.5-.364A9.659,9.659,0,0,0,83.1.059ZM85,3.59a3.222,3.222,0,0,1,2.252,2.327,22.51,22.51,0,0,1-.03,4.278,2.629,2.629,0,0,1-.385.861A3.268,3.268,0,0,1,85.064,12.4a3.076,3.076,0,0,1-3.68-2.034,22.167,22.167,0,0,1-.113-4.249A3.04,3.04,0,0,1,85,3.59Zm-62.692.927a7.667,7.667,0,0,0-3.364,1.221A2.325,2.325,0,0,1,18.585,6a7.5,7.5,0,0,0-1.623,1.821,7.054,7.054,0,0,0-1.083,3.906,7.033,7.033,0,0,0,11.715,5.407c1.545-1.408,1.607-1.72.394-2-.34-.078-.827-.2-1.081-.267-.689-.185-.807-.173-1.123.114a4.156,4.156,0,0,1-5.223.405,4.334,4.334,0,0,1-1.652-2.059l-.066-.225h10.8l.162-.155.162-.155-.028-1.037a10.669,10.669,0,0,0-.1-1.37l-.155-.718a6.994,6.994,0,0,0-.79-1.769,1.992,1.992,0,0,1-.209-.359,7.944,7.944,0,0,0-1.459-1.54c-.138-.091-.335-.235-.438-.319A7.456,7.456,0,0,0,22.313,4.517Zm14.571.07a5.246,5.246,0,0,0-1.381.335A.638.638,0,0,1,35.283,5c-.631,0-2.227,1.542-2.83,2.736-.736,1.455-.757,1.648-.74,6.815l.014,4.144.14.124a6.281,6.281,0,0,0,2.411.044c.2-.136.2-.136.228-4.636l.025-4.383.154-.388a4.2,4.2,0,0,1,.434-.769,2.3,2.3,0,0,1,1.19-1.041,2.252,2.252,0,0,1,2.352.1,3.14,3.14,0,0,0,.4.228,4.185,4.185,0,0,1,1.085,1.659c.206.667.221,1.025.222,5.162,0,3.878,0,3.926.1,4.037a5.447,5.447,0,0,0,2.437-.011l.14-.124.027-4.3.028-4.3.154-.487c.958-3.019,4.463-2.964,5.51.087l.138.4.026,4.337a38.283,38.283,0,0,0,.095,4.421,6.713,6.713,0,0,0,2.5-.034l.109-.118V14.4c0-4.854.006-4.756-.374-5.886a5.93,5.93,0,0,0-1.629-2.517,3.9,3.9,0,0,1-.393-.318A5.51,5.51,0,0,0,44.8,4.692a5.405,5.405,0,0,0-2.748,1.594l-.386.4-.215-.258A5.456,5.456,0,0,0,36.884,4.587Zm16.863-.016c-.339.067-.314-.494-.314,7.221v6.935l.132.106a8.968,8.968,0,0,0,2.344.074c.234-.092.228.123.228-7.145,0-7.456.015-7.064-.281-7.179A15.9,15.9,0,0,0,53.747,4.572Zm10.026.064a8.5,8.5,0,0,0-1.93.619,5.715,5.715,0,0,0-.9.562A1.721,1.721,0,0,1,60.694,6a5.563,5.563,0,0,0-.7.636,7.325,7.325,0,0,0-1.956,6.517,7.447,7.447,0,0,0,3.4,4.861,6.936,6.936,0,0,0,8.562-1.177A7.558,7.558,0,0,0,71.893,10.3,6.136,6.136,0,0,0,71.014,8c-.13-.2-.3-.463-.368-.59a7.98,7.98,0,0,0-1.552-1.545A7.128,7.128,0,0,0,63.773,4.635ZM83.718,4.59a2.04,2.04,0,0,0-1.337,1.246L82.25,6.2V8c0,1.744,0,1.8.116,2.127a2.039,2.039,0,0,0,3.732.231c.227-.464.24-.61.223-2.487L86.306,6.1l-.155-.333A2.1,2.1,0,0,0,83.718,4.59Zm.89,2.17.171.174V8.261c0,1.166-.01,1.342-.085,1.453a.43.43,0,0,1-.746.081l-.17-.174V6.935l.17-.174a.4.4,0,0,1,.661,0ZM8.031,7.454A4.426,4.426,0,0,1,10.444,14.4a3.894,3.894,0,0,1-1.123,1.072,4.262,4.262,0,0,1-5.579-.892C1.063,11.435,4.083,6.415,8.031,7.454Zm15.984,0a4.442,4.442,0,0,1,2.8,2.459l.172.412H18.837l.068-.2a3.933,3.933,0,0,1,.7-1.212,2.722,2.722,0,0,0,.214-.25A4.346,4.346,0,0,1,24.015,7.457Zm42.061.027a3.891,3.891,0,0,1,1.939,1.167,4.385,4.385,0,0,1-4.052,7.374,3.732,3.732,0,0,1-1.775-.929,4.455,4.455,0,0,1-1.344-4.508A4.271,4.271,0,0,1,66.076,7.484Zm23.339,3.428a.583.583,0,0,1,.17.285,5.958,5.958,0,0,1-.7,1.8c-.018.014-.173.21-.346.436a3.956,3.956,0,0,1-.48.538l-.536.417a5.237,5.237,0,0,1-2.073.942,5.833,5.833,0,0,1-4.251-.781A5.778,5.778,0,0,1,79.5,12.737a4.933,4.933,0,0,0-.2-.464c-.433-.886-.364-1.355.2-1.355.285,0,.4.111.53.531a4.057,4.057,0,0,0,.277.638,2.181,2.181,0,0,1,.169.338,4.776,4.776,0,0,0,1.462,1.406c2.643,1.338,5.7.262,6.524-2.3Q88.847,10.327,89.416,10.912Z" transform="translate(0 0)" fill="#989898"/>
    <path id="Vector-3" data-name="Vector" d="M11.442.132c-.091.1-.1.238-.109,2.973-.008,1.737-.032,2.865-.061,2.865a.3.3,0,0,1-.137-.1,6.2,6.2,0,0,0-1.022-.65A7.7,7.7,0,0,0,6.1,4.586,7.878,7.878,0,0,0,3.285,5.611a5.241,5.241,0,0,1-.451.324A9,9,0,0,0,1.357,7.4a3.044,3.044,0,0,1-.283.476A6.349,6.349,0,0,0,.118,10.3a8.748,8.748,0,0,0,.238,3.819,6.34,6.34,0,0,0,.96,1.837.08.08,0,0,1,.04.07,6.331,6.331,0,0,0,1.552,1.6,7.125,7.125,0,0,0,6.44.949,9.38,9.38,0,0,0,1.765-.923L11.3,17.5l.025.587c.023.532.036.6.146.719l.121.132H12.7c1.021,0,1.122-.008,1.231-.1l.118-.1V10.053c0-7.659-.009-8.7-.075-8.766a3.054,3.054,0,0,0-.425-.264A3.456,3.456,0,0,1,13.1.743C12.457.167,11.668-.124,11.442.132ZM53.516.118c-.071.08-.083.229-.083,1.014,0,1.049,0,1.037.412,1.307A3.629,3.629,0,0,1,54.2,2.7a2.38,2.38,0,0,0,.376.236,6.947,6.947,0,0,1,.622.387c.449.315.714.324.863.03a15.3,15.3,0,0,0,0-3.177L55.984.024H54.792C53.7.024,53.592.032,53.516.118ZM83.1.059a9.607,9.607,0,0,0-2.518.775,2.754,2.754,0,0,1-.423.183A9.832,9.832,0,0,0,76.617,4.3a6.26,6.26,0,0,1-.448.771,11.357,11.357,0,0,0-.655,1.617c-.451,1.562-.45,1.554-.45,6.322v4.131l.121.341a1.854,1.854,0,0,0,.241.476,2.258,2.258,0,0,1,.2.269,2.228,2.228,0,0,0,.951.618c.409.13,7.87.145,8.751.017a10.04,10.04,0,0,0,4.13-1.643,3.265,3.265,0,0,1,.4-.273,4.772,4.772,0,0,0,.569-.5c.258-.25.488-.462.513-.472a5.17,5.17,0,0,0,.432-.511c.214-.271.435-.547.5-.612a3.145,3.145,0,0,0,.292-.489,3.628,3.628,0,0,1,.253-.448,5.505,5.505,0,0,0,.313-.616,9.894,9.894,0,0,0,.087-7.509,6.7,6.7,0,0,0-.351-.743A3.434,3.434,0,0,1,92.22,4.6a9.937,9.937,0,0,0-2.408-2.73c-.138-.1-.363-.26-.5-.364A9.659,9.659,0,0,0,83.1.059ZM85,3.59a3.222,3.222,0,0,1,2.252,2.327,22.51,22.51,0,0,1-.03,4.278,2.629,2.629,0,0,1-.385.861A3.268,3.268,0,0,1,85.064,12.4a3.076,3.076,0,0,1-3.68-2.034,22.167,22.167,0,0,1-.113-4.249A3.04,3.04,0,0,1,85,3.59Zm-62.692.927a7.667,7.667,0,0,0-3.364,1.221A2.325,2.325,0,0,1,18.585,6a7.5,7.5,0,0,0-1.623,1.821,7.054,7.054,0,0,0-1.083,3.906,7.033,7.033,0,0,0,11.715,5.407c1.545-1.408,1.607-1.72.394-2-.34-.078-.827-.2-1.081-.267-.689-.185-.807-.173-1.123.114a4.156,4.156,0,0,1-5.223.405,4.334,4.334,0,0,1-1.652-2.059l-.066-.225h10.8l.162-.155.162-.155-.028-1.037a10.669,10.669,0,0,0-.1-1.37l-.155-.718a6.994,6.994,0,0,0-.79-1.769,1.992,1.992,0,0,1-.209-.359,7.944,7.944,0,0,0-1.459-1.54c-.138-.091-.335-.235-.438-.319A7.456,7.456,0,0,0,22.313,4.517Zm14.571.07a5.246,5.246,0,0,0-1.381.335A.638.638,0,0,1,35.283,5c-.631,0-2.227,1.542-2.83,2.736-.736,1.455-.757,1.648-.74,6.815l.014,4.144.14.124a6.281,6.281,0,0,0,2.411.044c.2-.136.2-.136.228-4.636l.025-4.383.154-.388a4.2,4.2,0,0,1,.434-.769,2.3,2.3,0,0,1,1.19-1.041,2.252,2.252,0,0,1,2.352.1,3.14,3.14,0,0,0,.4.228,4.185,4.185,0,0,1,1.085,1.659c.206.667.221,1.025.222,5.162,0,3.878,0,3.926.1,4.037a5.447,5.447,0,0,0,2.437-.011l.14-.124.027-4.3.028-4.3.154-.487c.958-3.019,4.463-2.964,5.51.087l.138.4.026,4.337a38.283,38.283,0,0,0,.095,4.421,6.713,6.713,0,0,0,2.5-.034l.109-.118V14.4c0-4.854.006-4.756-.374-5.886a5.93,5.93,0,0,0-1.629-2.517,3.9,3.9,0,0,1-.393-.318A5.51,5.51,0,0,0,44.8,4.692a5.405,5.405,0,0,0-2.748,1.594l-.386.4-.215-.258A5.456,5.456,0,0,0,36.884,4.587Zm16.863-.016c-.339.067-.314-.494-.314,7.221v6.935l.132.106a8.968,8.968,0,0,0,2.344.074c.234-.092.228.123.228-7.145,0-7.456.015-7.064-.281-7.179A15.9,15.9,0,0,0,53.747,4.572Zm10.026.064a8.5,8.5,0,0,0-1.93.619,5.715,5.715,0,0,0-.9.562A1.721,1.721,0,0,1,60.694,6a5.563,5.563,0,0,0-.7.636,7.325,7.325,0,0,0-1.956,6.517,7.447,7.447,0,0,0,3.4,4.861,6.936,6.936,0,0,0,8.562-1.177A7.558,7.558,0,0,0,71.893,10.3,6.136,6.136,0,0,0,71.014,8c-.13-.2-.3-.463-.368-.59a7.98,7.98,0,0,0-1.552-1.545A7.128,7.128,0,0,0,63.773,4.635ZM83.718,4.59a2.04,2.04,0,0,0-1.337,1.246L82.25,6.2V8c0,1.744,0,1.8.116,2.127a2.039,2.039,0,0,0,3.732.231c.227-.464.24-.61.223-2.487L86.306,6.1l-.155-.333A2.1,2.1,0,0,0,83.718,4.59Zm.89,2.17.171.174V8.261c0,1.166-.01,1.342-.085,1.453a.43.43,0,0,1-.746.081l-.17-.174V6.935l.17-.174a.4.4,0,0,1,.661,0ZM8.031,7.454A4.426,4.426,0,0,1,10.444,14.4a3.894,3.894,0,0,1-1.123,1.072,4.262,4.262,0,0,1-5.579-.892C1.063,11.435,4.083,6.415,8.031,7.454Zm15.984,0a4.442,4.442,0,0,1,2.8,2.459l.172.412H18.837l.068-.2a3.933,3.933,0,0,1,.7-1.212,2.722,2.722,0,0,0,.214-.25A4.346,4.346,0,0,1,24.015,7.457Zm42.061.027a3.891,3.891,0,0,1,1.939,1.167,4.385,4.385,0,0,1-4.052,7.374,3.732,3.732,0,0,1-1.775-.929,4.455,4.455,0,0,1-1.344-4.508A4.271,4.271,0,0,1,66.076,7.484Zm23.339,3.428a.583.583,0,0,1,.17.285,5.958,5.958,0,0,1-.7,1.8c-.018.014-.173.21-.346.436a3.956,3.956,0,0,1-.48.538l-.536.417a5.237,5.237,0,0,1-2.073.942,5.833,5.833,0,0,1-4.251-.781A5.778,5.778,0,0,1,79.5,12.737a4.933,4.933,0,0,0-.2-.464c-.433-.886-.364-1.355.2-1.355.285,0,.4.111.53.531a4.057,4.057,0,0,0,.277.638,2.181,2.181,0,0,1,.169.338,4.776,4.776,0,0,0,1.462,1.406c2.643,1.338,5.7.262,6.524-2.3Q88.847,10.327,89.416,10.912Z" transform="translate(0 0)" fill="#989898"/>
    <path id="Vector-4" data-name="Vector" d="M11.442.132c-.091.1-.1.238-.109,2.973-.008,1.737-.032,2.865-.061,2.865a.3.3,0,0,1-.137-.1,6.2,6.2,0,0,0-1.022-.65A7.7,7.7,0,0,0,6.1,4.586,7.878,7.878,0,0,0,3.285,5.611a5.241,5.241,0,0,1-.451.324A9,9,0,0,0,1.357,7.4a3.044,3.044,0,0,1-.283.476A6.349,6.349,0,0,0,.118,10.3a8.748,8.748,0,0,0,.238,3.819,6.34,6.34,0,0,0,.96,1.837.08.08,0,0,1,.04.07,6.331,6.331,0,0,0,1.552,1.6,7.125,7.125,0,0,0,6.44.949,9.38,9.38,0,0,0,1.765-.923L11.3,17.5l.025.587c.023.532.036.6.146.719l.121.132H12.7c1.021,0,1.122-.008,1.231-.1l.118-.1V10.053c0-7.659-.009-8.7-.075-8.766a3.054,3.054,0,0,0-.425-.264A3.456,3.456,0,0,1,13.1.743C12.457.167,11.668-.124,11.442.132ZM53.516.118c-.071.08-.083.229-.083,1.014,0,1.049,0,1.037.412,1.307A3.629,3.629,0,0,1,54.2,2.7a2.38,2.38,0,0,0,.376.236,6.947,6.947,0,0,1,.622.387c.449.315.714.324.863.03a15.3,15.3,0,0,0,0-3.177L55.984.024H54.792C53.7.024,53.592.032,53.516.118ZM83.1.059a9.607,9.607,0,0,0-2.518.775,2.754,2.754,0,0,1-.423.183A9.832,9.832,0,0,0,76.617,4.3a6.26,6.26,0,0,1-.448.771,11.357,11.357,0,0,0-.655,1.617c-.451,1.562-.45,1.554-.45,6.322v4.131l.121.341a1.854,1.854,0,0,0,.241.476,2.258,2.258,0,0,1,.2.269,2.228,2.228,0,0,0,.951.618c.409.13,7.87.145,8.751.017a10.04,10.04,0,0,0,4.13-1.643,3.265,3.265,0,0,1,.4-.273,4.772,4.772,0,0,0,.569-.5c.258-.25.488-.462.513-.472a5.17,5.17,0,0,0,.432-.511c.214-.271.435-.547.5-.612a3.145,3.145,0,0,0,.292-.489,3.628,3.628,0,0,1,.253-.448,5.505,5.505,0,0,0,.313-.616,9.894,9.894,0,0,0,.087-7.509,6.7,6.7,0,0,0-.351-.743A3.434,3.434,0,0,1,92.22,4.6a9.937,9.937,0,0,0-2.408-2.73c-.138-.1-.363-.26-.5-.364A9.659,9.659,0,0,0,83.1.059ZM85,3.59a3.222,3.222,0,0,1,2.252,2.327,22.51,22.51,0,0,1-.03,4.278,2.629,2.629,0,0,1-.385.861A3.268,3.268,0,0,1,85.064,12.4a3.076,3.076,0,0,1-3.68-2.034,22.167,22.167,0,0,1-.113-4.249A3.04,3.04,0,0,1,85,3.59Zm-62.692.927a7.667,7.667,0,0,0-3.364,1.221A2.325,2.325,0,0,1,18.585,6a7.5,7.5,0,0,0-1.623,1.821,7.054,7.054,0,0,0-1.083,3.906,7.033,7.033,0,0,0,11.715,5.407c1.545-1.408,1.607-1.72.394-2-.34-.078-.827-.2-1.081-.267-.689-.185-.807-.173-1.123.114a4.156,4.156,0,0,1-5.223.405,4.334,4.334,0,0,1-1.652-2.059l-.066-.225h10.8l.162-.155.162-.155-.028-1.037a10.669,10.669,0,0,0-.1-1.37l-.155-.718a6.994,6.994,0,0,0-.79-1.769,1.992,1.992,0,0,1-.209-.359,7.944,7.944,0,0,0-1.459-1.54c-.138-.091-.335-.235-.438-.319A7.456,7.456,0,0,0,22.313,4.517Zm14.571.07a5.246,5.246,0,0,0-1.381.335A.638.638,0,0,1,35.283,5c-.631,0-2.227,1.542-2.83,2.736-.736,1.455-.757,1.648-.74,6.815l.014,4.144.14.124a6.281,6.281,0,0,0,2.411.044c.2-.136.2-.136.228-4.636l.025-4.383.154-.388a4.2,4.2,0,0,1,.434-.769,2.3,2.3,0,0,1,1.19-1.041,2.252,2.252,0,0,1,2.352.1,3.14,3.14,0,0,0,.4.228,4.185,4.185,0,0,1,1.085,1.659c.206.667.221,1.025.222,5.162,0,3.878,0,3.926.1,4.037a5.447,5.447,0,0,0,2.437-.011l.14-.124.027-4.3.028-4.3.154-.487c.958-3.019,4.463-2.964,5.51.087l.138.4.026,4.337a38.283,38.283,0,0,0,.095,4.421,6.713,6.713,0,0,0,2.5-.034l.109-.118V14.4c0-4.854.006-4.756-.374-5.886a5.93,5.93,0,0,0-1.629-2.517,3.9,3.9,0,0,1-.393-.318A5.51,5.51,0,0,0,44.8,4.692a5.405,5.405,0,0,0-2.748,1.594l-.386.4-.215-.258A5.456,5.456,0,0,0,36.884,4.587Zm16.863-.016c-.339.067-.314-.494-.314,7.221v6.935l.132.106a8.968,8.968,0,0,0,2.344.074c.234-.092.228.123.228-7.145,0-7.456.015-7.064-.281-7.179A15.9,15.9,0,0,0,53.747,4.572Zm10.026.064a8.5,8.5,0,0,0-1.93.619,5.715,5.715,0,0,0-.9.562A1.721,1.721,0,0,1,60.694,6a5.563,5.563,0,0,0-.7.636,7.325,7.325,0,0,0-1.956,6.517,7.447,7.447,0,0,0,3.4,4.861,6.936,6.936,0,0,0,8.562-1.177A7.558,7.558,0,0,0,71.893,10.3,6.136,6.136,0,0,0,71.014,8c-.13-.2-.3-.463-.368-.59a7.98,7.98,0,0,0-1.552-1.545A7.128,7.128,0,0,0,63.773,4.635ZM83.718,4.59a2.04,2.04,0,0,0-1.337,1.246L82.25,6.2V8c0,1.744,0,1.8.116,2.127a2.039,2.039,0,0,0,3.732.231c.227-.464.24-.61.223-2.487L86.306,6.1l-.155-.333A2.1,2.1,0,0,0,83.718,4.59Zm.89,2.17.171.174V8.261c0,1.166-.01,1.342-.085,1.453a.43.43,0,0,1-.746.081l-.17-.174V6.935l.17-.174a.4.4,0,0,1,.661,0ZM8.031,7.454A4.426,4.426,0,0,1,10.444,14.4a3.894,3.894,0,0,1-1.123,1.072,4.262,4.262,0,0,1-5.579-.892C1.063,11.435,4.083,6.415,8.031,7.454Zm15.984,0a4.442,4.442,0,0,1,2.8,2.459l.172.412H18.837l.068-.2a3.933,3.933,0,0,1,.7-1.212,2.722,2.722,0,0,0,.214-.25A4.346,4.346,0,0,1,24.015,7.457Zm42.061.027a3.891,3.891,0,0,1,1.939,1.167,4.385,4.385,0,0,1-4.052,7.374,3.732,3.732,0,0,1-1.775-.929,4.455,4.455,0,0,1-1.344-4.508A4.271,4.271,0,0,1,66.076,7.484Zm23.339,3.428a.583.583,0,0,1,.17.285,5.958,5.958,0,0,1-.7,1.8c-.018.014-.173.21-.346.436a3.956,3.956,0,0,1-.48.538l-.536.417a5.237,5.237,0,0,1-2.073.942,5.833,5.833,0,0,1-4.251-.781A5.778,5.778,0,0,1,79.5,12.737a4.933,4.933,0,0,0-.2-.464c-.433-.886-.364-1.355.2-1.355.285,0,.4.111.53.531a4.057,4.057,0,0,0,.277.638,2.181,2.181,0,0,1,.169.338,4.776,4.776,0,0,0,1.462,1.406c2.643,1.338,5.7.262,6.524-2.3Q88.847,10.327,89.416,10.912Z" transform="translate(0 0)" fill="#989898"/>
    <path id="Vector-5" data-name="Vector" d="M11.442.132c-.091.1-.1.238-.109,2.973-.008,1.737-.032,2.865-.061,2.865a.3.3,0,0,1-.137-.1,6.2,6.2,0,0,0-1.022-.65A7.7,7.7,0,0,0,6.1,4.586,7.878,7.878,0,0,0,3.285,5.611a5.241,5.241,0,0,1-.451.324A9,9,0,0,0,1.357,7.4a3.044,3.044,0,0,1-.283.476A6.349,6.349,0,0,0,.118,10.3a8.748,8.748,0,0,0,.238,3.819,6.34,6.34,0,0,0,.96,1.837.08.08,0,0,1,.04.07,6.331,6.331,0,0,0,1.552,1.6,7.125,7.125,0,0,0,6.44.949,9.38,9.38,0,0,0,1.765-.923L11.3,17.5l.025.587c.023.532.036.6.146.719l.121.132H12.7c1.021,0,1.122-.008,1.231-.1l.118-.1V10.053c0-7.659-.009-8.7-.075-8.766a3.054,3.054,0,0,0-.425-.264A3.456,3.456,0,0,1,13.1.743C12.457.167,11.668-.124,11.442.132ZM53.516.118c-.071.08-.083.229-.083,1.014,0,1.049,0,1.037.412,1.307A3.629,3.629,0,0,1,54.2,2.7a2.38,2.38,0,0,0,.376.236,6.947,6.947,0,0,1,.622.387c.449.315.714.324.863.03a15.3,15.3,0,0,0,0-3.177L55.984.024H54.792C53.7.024,53.592.032,53.516.118ZM83.1.059a9.607,9.607,0,0,0-2.518.775,2.754,2.754,0,0,1-.423.183A9.832,9.832,0,0,0,76.617,4.3a6.26,6.26,0,0,1-.448.771,11.357,11.357,0,0,0-.655,1.617c-.451,1.562-.45,1.554-.45,6.322v4.131l.121.341a1.854,1.854,0,0,0,.241.476,2.258,2.258,0,0,1,.2.269,2.228,2.228,0,0,0,.951.618c.409.13,7.87.145,8.751.017a10.04,10.04,0,0,0,4.13-1.643,3.265,3.265,0,0,1,.4-.273,4.772,4.772,0,0,0,.569-.5c.258-.25.488-.462.513-.472a5.17,5.17,0,0,0,.432-.511c.214-.271.435-.547.5-.612a3.145,3.145,0,0,0,.292-.489,3.628,3.628,0,0,1,.253-.448,5.505,5.505,0,0,0,.313-.616,9.894,9.894,0,0,0,.087-7.509,6.7,6.7,0,0,0-.351-.743A3.434,3.434,0,0,1,92.22,4.6a9.937,9.937,0,0,0-2.408-2.73c-.138-.1-.363-.26-.5-.364A9.659,9.659,0,0,0,83.1.059ZM85,3.59a3.222,3.222,0,0,1,2.252,2.327,22.51,22.51,0,0,1-.03,4.278,2.629,2.629,0,0,1-.385.861A3.268,3.268,0,0,1,85.064,12.4a3.076,3.076,0,0,1-3.68-2.034,22.167,22.167,0,0,1-.113-4.249A3.04,3.04,0,0,1,85,3.59Zm-62.692.927a7.667,7.667,0,0,0-3.364,1.221A2.325,2.325,0,0,1,18.585,6a7.5,7.5,0,0,0-1.623,1.821,7.054,7.054,0,0,0-1.083,3.906,7.033,7.033,0,0,0,11.715,5.407c1.545-1.408,1.607-1.72.394-2-.34-.078-.827-.2-1.081-.267-.689-.185-.807-.173-1.123.114a4.156,4.156,0,0,1-5.223.405,4.334,4.334,0,0,1-1.652-2.059l-.066-.225h10.8l.162-.155.162-.155-.028-1.037a10.669,10.669,0,0,0-.1-1.37l-.155-.718a6.994,6.994,0,0,0-.79-1.769,1.992,1.992,0,0,1-.209-.359,7.944,7.944,0,0,0-1.459-1.54c-.138-.091-.335-.235-.438-.319A7.456,7.456,0,0,0,22.313,4.517Zm14.571.07a5.246,5.246,0,0,0-1.381.335A.638.638,0,0,1,35.283,5c-.631,0-2.227,1.542-2.83,2.736-.736,1.455-.757,1.648-.74,6.815l.014,4.144.14.124a6.281,6.281,0,0,0,2.411.044c.2-.136.2-.136.228-4.636l.025-4.383.154-.388a4.2,4.2,0,0,1,.434-.769,2.3,2.3,0,0,1,1.19-1.041,2.252,2.252,0,0,1,2.352.1,3.14,3.14,0,0,0,.4.228,4.185,4.185,0,0,1,1.085,1.659c.206.667.221,1.025.222,5.162,0,3.878,0,3.926.1,4.037a5.447,5.447,0,0,0,2.437-.011l.14-.124.027-4.3.028-4.3.154-.487c.958-3.019,4.463-2.964,5.51.087l.138.4.026,4.337a38.283,38.283,0,0,0,.095,4.421,6.713,6.713,0,0,0,2.5-.034l.109-.118V14.4c0-4.854.006-4.756-.374-5.886a5.93,5.93,0,0,0-1.629-2.517,3.9,3.9,0,0,1-.393-.318A5.51,5.51,0,0,0,44.8,4.692a5.405,5.405,0,0,0-2.748,1.594l-.386.4-.215-.258A5.456,5.456,0,0,0,36.884,4.587Zm16.863-.016c-.339.067-.314-.494-.314,7.221v6.935l.132.106a8.968,8.968,0,0,0,2.344.074c.234-.092.228.123.228-7.145,0-7.456.015-7.064-.281-7.179A15.9,15.9,0,0,0,53.747,4.572Zm10.026.064a8.5,8.5,0,0,0-1.93.619,5.715,5.715,0,0,0-.9.562A1.721,1.721,0,0,1,60.694,6a5.563,5.563,0,0,0-.7.636,7.325,7.325,0,0,0-1.956,6.517,7.447,7.447,0,0,0,3.4,4.861,6.936,6.936,0,0,0,8.562-1.177A7.558,7.558,0,0,0,71.893,10.3,6.136,6.136,0,0,0,71.014,8c-.13-.2-.3-.463-.368-.59a7.98,7.98,0,0,0-1.552-1.545A7.128,7.128,0,0,0,63.773,4.635ZM83.718,4.59a2.04,2.04,0,0,0-1.337,1.246L82.25,6.2V8c0,1.744,0,1.8.116,2.127a2.039,2.039,0,0,0,3.732.231c.227-.464.24-.61.223-2.487L86.306,6.1l-.155-.333A2.1,2.1,0,0,0,83.718,4.59Zm.89,2.17.171.174V8.261c0,1.166-.01,1.342-.085,1.453a.43.43,0,0,1-.746.081l-.17-.174V6.935l.17-.174a.4.4,0,0,1,.661,0ZM8.031,7.454A4.426,4.426,0,0,1,10.444,14.4a3.894,3.894,0,0,1-1.123,1.072,4.262,4.262,0,0,1-5.579-.892C1.063,11.435,4.083,6.415,8.031,7.454Zm15.984,0a4.442,4.442,0,0,1,2.8,2.459l.172.412H18.837l.068-.2a3.933,3.933,0,0,1,.7-1.212,2.722,2.722,0,0,0,.214-.25A4.346,4.346,0,0,1,24.015,7.457Zm42.061.027a3.891,3.891,0,0,1,1.939,1.167,4.385,4.385,0,0,1-4.052,7.374,3.732,3.732,0,0,1-1.775-.929,4.455,4.455,0,0,1-1.344-4.508A4.271,4.271,0,0,1,66.076,7.484Zm23.339,3.428a.583.583,0,0,1,.17.285,5.958,5.958,0,0,1-.7,1.8c-.018.014-.173.21-.346.436a3.956,3.956,0,0,1-.48.538l-.536.417a5.237,5.237,0,0,1-2.073.942,5.833,5.833,0,0,1-4.251-.781A5.778,5.778,0,0,1,79.5,12.737a4.933,4.933,0,0,0-.2-.464c-.433-.886-.364-1.355.2-1.355.285,0,.4.111.53.531a4.057,4.057,0,0,0,.277.638,2.181,2.181,0,0,1,.169.338,4.776,4.776,0,0,0,1.462,1.406c2.643,1.338,5.7.262,6.524-2.3Q88.847,10.327,89.416,10.912Z" transform="translate(0 0)" fill="#989898"/>
  </g>
</svg>
