<svg xmlns="http://www.w3.org/2000/svg" width="72.492" height="19.27" viewBox="0 0 72.492 19.27">
  <g id="Frame" transform="translate(0 0)">
    <path id="Vector" d="M17.664,4.819v0l0,0c-.02-.033-.042-.065-.065-.1l-.019-.024c-.018-.023-.037-.046-.057-.068l-.035-.037-.05-.048L17.387,4.5l-.045-.036-.057-.041-.044-.029-.063-.036-.046-.024L17.063,4.3l-.047-.02-.075-.026L16.9,4.242c-.029-.008-.059-.016-.088-.022l-.031-.007c-.037-.007-.074-.012-.111-.016h-.011a1.362,1.362,0,0,0-.791.16L8.919,8.183,3.953,5.447,8.924,2.708l3.314,1.825a1.353,1.353,0,0,0,1.8-.46,1.226,1.226,0,0,0-.482-1.717L9.582.168a1.372,1.372,0,0,0-1.317,0L.692,4.341a1.286,1.286,0,0,0-.515.476A1.225,1.225,0,0,0,.659,6.534l7.6,4.189h0a1.3,1.3,0,0,0,.123.058l.034.016c.025.01.051.017.077.025a1.37,1.37,0,0,0,.42.069h0a1.366,1.366,0,0,0,.428-.072c.022-.007.045-.013.068-.022s.026-.012.039-.018a1.282,1.282,0,0,0,.118-.056h0l5.63-3.1V13.1L8.921,16.563,2.636,13.1V9.636A1.288,1.288,0,0,0,1.319,8.379,1.288,1.288,0,0,0,0,9.636v4.189A1.246,1.246,0,0,0,.66,14.913l7.6,4.189a1.374,1.374,0,0,0,1.317,0l7.6-4.189a1.246,1.246,0,0,0,.658-1.088V5.447A1.205,1.205,0,0,0,17.664,4.819Z" transform="translate(0 0)" fill="#989898"/>
    <path id="Vector-2" data-name="Vector" d="M.22,7.26a5.359,5.359,0,0,0,1.339.617,4.7,4.7,0,0,0,1.339.2,1.765,1.765,0,0,0,1.064-.3.907.907,0,0,0,.405-.765.7.7,0,0,0-.323-.611,3.545,3.545,0,0,0-.81-.4q-.487-.174-1.05-.356a4.746,4.746,0,0,1-1.05-.483,2.576,2.576,0,0,1-.81-.8A2.354,2.354,0,0,1,0,3.073,2.438,2.438,0,0,1,.261,1.946a2.651,2.651,0,0,1,.728-.879A3.4,3.4,0,0,1,2.108.5,4.848,4.848,0,0,1,3.543.3,7.188,7.188,0,0,1,4.854.416,7.337,7.337,0,0,1,6.165.792V2.751A5.386,5.386,0,0,0,4.93,2.234a4.65,4.65,0,0,0-1.222-.168,1.775,1.775,0,0,0-1.023.268.825.825,0,0,0-.391.711.673.673,0,0,0,.323.59,3.585,3.585,0,0,0,.8.383q.481.168,1.05.349a4.4,4.4,0,0,1,1.05.49,2.649,2.649,0,0,1,.8.812,2.417,2.417,0,0,1,.323,1.322,2.537,2.537,0,0,1-.268,1.161,2.7,2.7,0,0,1-.741.906A3.5,3.5,0,0,1,4.5,9.643a4.771,4.771,0,0,1-1.442.208,7.118,7.118,0,0,1-2.842-.6ZM7.313.04H9.552V3.449a3.207,3.207,0,0,1,1.881-.631A2.64,2.64,0,0,1,12.421,3a2.306,2.306,0,0,1,.783.51,2.337,2.337,0,0,1,.515.785,2.614,2.614,0,0,1,.185.993v4.4H11.666v-4a.917.917,0,0,0-.947-.953,1.657,1.657,0,0,0-1.167.537V9.69H7.313Zm7.506,2.939h2.238V9.69H14.819Zm-.11-1.785a1.144,1.144,0,0,1,.343-.866,1.348,1.348,0,0,1,1.764,0,1.132,1.132,0,0,1,.35.866,1.121,1.121,0,0,1-.35.845,1.328,1.328,0,0,1-1.764,0A1.133,1.133,0,0,1,14.709,1.194Zm8,5.14a1.785,1.785,0,0,0-.378-1.188,1.222,1.222,0,0,0-.982-.45,1.514,1.514,0,0,0-1.085.47V7.5a1.514,1.514,0,0,0,1.085.47,1.214,1.214,0,0,0,.982-.456A1.791,1.791,0,0,0,22.709,6.334ZM18.026,2.979h2.238v.362a2.857,2.857,0,0,1,1.607-.523,3.022,3.022,0,0,1,1.263.262,2.925,2.925,0,0,1,.989.725,3.283,3.283,0,0,1,.639,1.107,4.257,4.257,0,0,1,.227,1.423,4.258,4.258,0,0,1-.227,1.423,3.283,3.283,0,0,1-.639,1.107,2.925,2.925,0,0,1-.989.725,3.021,3.021,0,0,1-1.263.262,2.857,2.857,0,0,1-1.607-.523v3.3H18.026Zm9.95,4.992h1.469a1.236,1.236,0,0,0,.858-.3,1.053,1.053,0,0,0,0-1.543,1.236,1.236,0,0,0-.858-.3H27.976Zm0-3.811h1.277a1.152,1.152,0,0,0,.8-.282.913.913,0,0,0,.316-.711.907.907,0,0,0-.316-.718,1.169,1.169,0,0,0-.8-.275H27.976ZM25.793.456h3.886a3.385,3.385,0,0,1,1.153.188,2.808,2.808,0,0,1,.906.523,2.372,2.372,0,0,1,.6.792,2.319,2.319,0,0,1,.213.993,2.286,2.286,0,0,1-.33,1.221,1.976,1.976,0,0,1-.906.792,2.334,2.334,0,0,1,1.147.839,2.2,2.2,0,0,1,.405,1.308,2.455,2.455,0,0,1-.22,1.04,2.418,2.418,0,0,1-.611.819,2.781,2.781,0,0,1-.934.53,3.608,3.608,0,0,1-1.188.188H25.793Zm7.341,5.878a3.586,3.586,0,0,1,.275-1.423A3.231,3.231,0,0,1,34.177,3.8a3.574,3.574,0,0,1,1.174-.725,4.372,4.372,0,0,1,2.98,0A3.5,3.5,0,0,1,39.5,3.8a3.289,3.289,0,0,1,.762,1.107,3.6,3.6,0,0,1,.275,1.423A3.609,3.609,0,0,1,40.26,7.75,3.273,3.273,0,0,1,39.5,8.864a3.5,3.5,0,0,1-1.167.725,4.372,4.372,0,0,1-2.98,0,3.574,3.574,0,0,1-1.174-.725,3.215,3.215,0,0,1-.769-1.114A3.6,3.6,0,0,1,33.134,6.334Zm2.293,0a1.839,1.839,0,0,0,.391,1.228,1.354,1.354,0,0,0,2.039,0,1.819,1.819,0,0,0,.4-1.228,1.819,1.819,0,0,0-.4-1.228,1.354,1.354,0,0,0-2.039,0A1.839,1.839,0,0,0,35.427,6.334Zm10.334,0a1.785,1.785,0,0,0-.378-1.188A1.22,1.22,0,0,0,44.4,4.7a1.513,1.513,0,0,0-1.085.47V7.5a1.513,1.513,0,0,0,1.085.47,1.213,1.213,0,0,0,.981-.456A1.79,1.79,0,0,0,45.761,6.334ZM41.079.04h2.238v3.3a2.856,2.856,0,0,1,1.606-.523,3.021,3.021,0,0,1,1.263.262,2.925,2.925,0,0,1,.989.725,3.28,3.28,0,0,1,.638,1.107,4.256,4.256,0,0,1,.227,1.423,4.256,4.256,0,0,1-.227,1.423,3.28,3.28,0,0,1-.638,1.107,2.924,2.924,0,0,1-.989.725,3.02,3.02,0,0,1-1.263.262,2.856,2.856,0,0,1-1.606-.523V9.69H41.079Z" transform="translate(24.451 4.59)" fill="#989898"/>
  </g>
</svg>
