<svg xmlns="http://www.w3.org/2000/svg" width="135.893" height="28.007" viewBox="0 0 135.893 28.007">
  <g id="Frame" transform="translate(-0.002 0.002)">
    <g id="Group">
      <path id="Vector" d="M.185,15.285,8.246,27.569a.993.993,0,0,0,.38.331,1.025,1.025,0,0,0,.5.106h2.986a1.037,1.037,0,0,0,.393-.073,1.015,1.015,0,0,0,.334-.215.983.983,0,0,0,.222-.324.96.96,0,0,0,.075-.382V1a.987.987,0,0,0-.195-.578,1.032,1.032,0,0,0-.5-.363A1.061,1.061,0,0,0,11.815.04a1.036,1.036,0,0,0-.52.337L.185,14.09a1.058,1.058,0,0,0,0,1.194Z" transform="translate(9.902 -0.002)" fill="#000"/>
      <path id="Vector-2" data-name="Vector" d="M1.022,8.584H6.34a1.038,1.038,0,0,0,.393-.073A1.016,1.016,0,0,0,7.067,8.3a.983.983,0,0,0,.222-.324.96.96,0,0,0,.075-.382V.992a.99.99,0,0,0-.2-.576,1.034,1.034,0,0,0-.5-.361A1.063,1.063,0,0,0,6.041.039a1.038,1.038,0,0,0-.52.336L.2,6.973a.987.987,0,0,0-.1,1.048,1.021,1.021,0,0,0,.376.406A1.059,1.059,0,0,0,1.022,8.584Z" transform="translate(0.002 19.416)" fill="#000"/>
      <path id="Vector-3" data-name="Vector" d="M11.17,1.717a1.825,1.825,0,0,0-.2-.2l-.11-.091L10.8,1.375A4.806,4.806,0,0,0,9.984.834a5.46,5.46,0,0,0-1-.455A6.859,6.859,0,0,0,7.886.1,6.618,6.618,0,0,0,4.992.24,7.137,7.137,0,0,0,3.383.9,6.761,6.761,0,0,0,2.019,1.926,7.461,7.461,0,0,0,.95,3.248,5.882,5.882,0,0,0,.249,4.8a6.134,6.134,0,0,0,.7,5.012,7.461,7.461,0,0,0,1.069,1.322,6.84,6.84,0,0,0,1.368,1.026,8,8,0,0,0,1.6.66,6.419,6.419,0,0,0,2.975.143,5.189,5.189,0,0,0,1.108-.307,7.465,7.465,0,0,0,.989-.48,8.936,8.936,0,0,0,.907-.6,2.457,2.457,0,0,0,.234-.227l.037-.041a.8.8,0,0,0,.154-.273l.014-.082a.669.669,0,0,0-.091-.375l-.033-.05a.787.787,0,0,0-.086-.114l-.086-.114c-.173-.227-.337-.455-.512-.664a.737.737,0,0,0-.271-.191.513.513,0,0,0-.32,0,1.352,1.352,0,0,0-.4.266l-.154.127a5.522,5.522,0,0,1-.447.348,3.327,3.327,0,0,1-.617.362,3.016,3.016,0,0,1-.746.255A4.19,4.19,0,0,1,5.1,10.539a4.594,4.594,0,0,1-1.373-.926,4.4,4.4,0,0,1-.956-1.379,3.957,3.957,0,0,1,0-3.319,4.6,4.6,0,0,1,.954-1.392,5.033,5.033,0,0,1,1.377-.951A3.836,3.836,0,0,1,7.482,2.3a5.226,5.226,0,0,1,.786.241,5.087,5.087,0,0,1,.7.355c.468.268,1,1.037,1.508.428l.741-.969a.421.421,0,0,0,.078-.325A.631.631,0,0,0,11.17,1.717Z" transform="translate(84.838 11.451)" fill="#000"/>
      <path id="Vector-4" data-name="Vector" d="M18.975,18.407,10.864.455a.725.725,0,0,0-.27-.329A.756.756,0,0,0,10.182,0h-1.3a.749.749,0,0,0-.409.119A.719.719,0,0,0,8.2.439L.074,18.386a.68.68,0,0,0,.047.7.723.723,0,0,0,.269.249.748.748,0,0,0,.36.088h1.2a.735.735,0,0,0,.412-.116.705.705,0,0,0,.271-.323l1.95-4.429H14.44l1.939,4.429a.725.725,0,0,0,.271.329.756.756,0,0,0,.414.126h1.169a.747.747,0,0,0,.353-.064.784.784,0,0,0,.439-.577A.716.716,0,0,0,18.975,18.407ZM5.621,12.264l.033-.071L9.562,3.346l3.919,8.918Z" transform="translate(31.431 5.073)" fill="#000"/>
      <path id="Vector-5" data-name="Vector" d="M12.7,4.507a6.6,6.6,0,0,0-.935-1.95,6.593,6.593,0,0,0-1.057-1.09A4.766,4.766,0,0,0,9.456.685,7.01,7.01,0,0,0,8.053.18,6.564,6.564,0,0,0,4.76.242,6.324,6.324,0,0,0,3.194.9a7.291,7.291,0,0,0-1.33,1.033A5.751,5.751,0,0,0,.872,3.258,6.515,6.515,0,0,0,.233,4.826,5.975,5.975,0,0,0,.088,7.5,6.456,6.456,0,0,0,.294,8.532a6.625,6.625,0,0,0,.935,1.954,6.574,6.574,0,0,0,1.057,1.087,4.827,4.827,0,0,0,1.258.785,6.883,6.883,0,0,0,1.4.5A6.6,6.6,0,0,0,9.8,12.14a7.317,7.317,0,0,0,1.331-1.031,5.347,5.347,0,0,0,.956-1.278l.021-.046a.4.4,0,0,0,.082-.212.4.4,0,0,0-.045-.222.345.345,0,0,0-.124-.127.357.357,0,0,0-.173-.05H9.915a.546.546,0,0,0-.237.048.539.539,0,0,0-.191.145,4,4,0,0,1-.846.751,4.2,4.2,0,0,1-1.1.48,4.405,4.405,0,0,1-2.621-.073A4.792,4.792,0,0,1,3.669,9.86a3.475,3.475,0,0,1-.905-1.044,5.52,5.52,0,0,1-.419-1.365l-.012-.059H2.4l9.963-.021A.6.6,0,0,0,13,6.689,6.43,6.43,0,0,0,12.7,4.507Zm-2.121.858L2.522,5.4l.021-.066a4.617,4.617,0,0,1,.6-1.249A4.435,4.435,0,0,1,4.333,2.924a4.187,4.187,0,0,1,1.106-.485,4.4,4.4,0,0,1,2.621.073,4.805,4.805,0,0,1,1.254.664,3.463,3.463,0,0,1,.907,1.051A3.58,3.58,0,0,1,10.64,5.3l.014.061Z" transform="translate(111.957 11.47)" fill="#000"/>
      <path id="Vector-6" data-name="Vector" d="M11.333,11.173a7.254,7.254,0,0,0,1.05-1.322,6.7,6.7,0,0,0,.681-1.565,6.173,6.173,0,0,0,0-3.46A6.584,6.584,0,0,0,9.965.908,7.318,7.318,0,0,0,8.377.246,6.591,6.591,0,0,0,4.048.51a7,7,0,0,0-1.6.981l-.086.07v-.7A.566.566,0,0,0,2.335.6.579.579,0,0,0,2.193.384.6.6,0,0,0,1.967.247.612.612,0,0,0,1.7.219H.683A.628.628,0,0,0,.415.246a.615.615,0,0,0-.23.136A.592.592,0,0,0,.038.6.579.579,0,0,0,0,.861v15.1a.609.609,0,0,0,.043.245.621.621,0,0,0,.138.209.64.64,0,0,0,.211.14.655.655,0,0,0,.25.049H1.684a.713.713,0,0,0,.5-.18.62.62,0,0,0,.14-.209.607.607,0,0,0,.044-.246V11.557l.086.071a6.708,6.708,0,0,0,1.579.962,6.586,6.586,0,0,0,4.326.264,7.1,7.1,0,0,0,1.609-.662A6.646,6.646,0,0,0,11.333,11.173Zm-3.094-.632a4.019,4.019,0,0,1-3.307,0,4.207,4.207,0,0,1-1.373-.965,4.583,4.583,0,0,1-.935-1.39,4.152,4.152,0,0,1,0-3.292,4.62,4.62,0,0,1,.935-1.365,4.553,4.553,0,0,1,1.373-.946,4.024,4.024,0,0,1,3.3,0,4.472,4.472,0,0,1,2.271,2.309,4.126,4.126,0,0,1,0,3.29,4.991,4.991,0,0,1-.919,1.4A4.336,4.336,0,0,1,8.239,10.541Z" transform="translate(53.385 11.394)" fill="#000"/>
      <path id="Vector-7" data-name="Vector" d="M1.7.249H.684A.627.627,0,0,0,.413.276.613.613,0,0,0,.182.415.592.592,0,0,0,.035.639.578.578,0,0,0,0,.9V15.982a.613.613,0,0,0,.045.246.626.626,0,0,0,.14.209.636.636,0,0,0,.209.135.65.65,0,0,0,.247.045H1.683a.713.713,0,0,0,.5-.18.611.611,0,0,0,.141-.209.6.6,0,0,0,.044-.246V11.569l.087.07a6.674,6.674,0,0,0,1.581.962,6.583,6.583,0,0,0,4.326.264A7.137,7.137,0,0,0,9.966,12.2a6.828,6.828,0,0,0,1.368-1.031,7.242,7.242,0,0,0,1.048-1.322,6.733,6.733,0,0,0,.681-1.565,6.14,6.14,0,0,0,0-3.46A6.592,6.592,0,0,0,9.966.908,7.406,7.406,0,0,0,8.376.246,6.6,6.6,0,0,0,4.047.51a6.989,6.989,0,0,0-1.6.98l-.094.093V.9A.566.566,0,0,0,2.331.643.578.578,0,0,0,2.192.421.6.6,0,0,0,1.968.28.611.611,0,0,0,1.7.249Zm.921,4.673A4.658,4.658,0,0,1,3.56,3.556,4.574,4.574,0,0,1,4.928,2.6a4.025,4.025,0,0,1,3.305,0,4.636,4.636,0,0,1,1.372.946,4.6,4.6,0,0,1,.917,1.365,4.113,4.113,0,0,1,0,3.29A4.855,4.855,0,0,1,9.6,9.6a4.35,4.35,0,0,1-1.349.962,4.034,4.034,0,0,1-3.309,0A4.225,4.225,0,0,1,3.575,9.6a4.556,4.556,0,0,1-.935-1.39,4.157,4.157,0,0,1-.014-3.287Z" transform="translate(69.438 11.383)" fill="#000"/>
      <path id="Vector-8" data-name="Vector" d="M10.717.671A.575.575,0,0,0,10.684.41a.59.59,0,0,0-.147-.22.6.6,0,0,0-.232-.136.618.618,0,0,0-.269-.024H9.01a.613.613,0,0,0-.265.028A.6.6,0,0,0,8.52.195a.587.587,0,0,0-.142.219.569.569,0,0,0-.03.257V7.91a2.789,2.789,0,0,1-.977,2.136,3.438,3.438,0,0,1-.976.548,3.2,3.2,0,0,1-2.46-.123,2.611,2.611,0,0,1-.912-.76,2.654,2.654,0,0,1-.5-1.024,4.862,4.862,0,0,1-.155-1.156V.857A1.131,1.131,0,0,0,2.219.232a.793.793,0,0,0-.3-.186A.807.807,0,0,0,1.571,0H.832A.828.828,0,0,0,.51.058.811.811,0,0,0,.236.232.882.882,0,0,0,.051.538.873.873,0,0,0,0,.889V7.553A6.591,6.591,0,0,0,.334,9.7a5.259,5.259,0,0,0,1,1.765,4.555,4.555,0,0,0,1.637,1.183,6.2,6.2,0,0,0,3.461.321,5.388,5.388,0,0,0,.914-.3,3.1,3.1,0,0,0,.756-.482l.161-.146.089-.084v.507a.542.542,0,0,0,.039.219.563.563,0,0,0,.124.186.628.628,0,0,0,.231.174.642.642,0,0,0,.286.054h1.038a.645.645,0,0,0,.247-.044.629.629,0,0,0,.209-.134.545.545,0,0,0,.149-.206.537.537,0,0,0,.038-.249Z" transform="translate(98.728 11.427)" fill="#000"/>
      <path id="Vector-9" data-name="Vector" d="M9.052,7.81a3.346,3.346,0,0,0-.917-1.137,5.6,5.6,0,0,0-1.4-.812A10.053,10.053,0,0,0,4.96,5.329a6.4,6.4,0,0,1-.87-.257,3.393,3.393,0,0,1-.725-.359,1.607,1.607,0,0,1-.674-.771,1.169,1.169,0,0,1,0-.726c.082-.266.428-1,1.766-1.081A2.4,2.4,0,0,1,6.6,3c.033.041.346.435.571.683a.674.674,0,0,0,.133.091.607.607,0,0,0,.289.034.6.6,0,0,0,.27-.1l.781-.564a.564.564,0,0,0,.2-.2.537.537,0,0,0,.074-.275V2.64a1.264,1.264,0,0,0-.178-.412A10.066,10.066,0,0,0,8,1.3,3.666,3.666,0,0,0,7.17.6,3.88,3.88,0,0,0,6.131.167,5.749,5.749,0,0,0,2.97.285a3.935,3.935,0,0,0-1.4.739A3.325,3.325,0,0,0,.647,2.189,3.482,3.482,0,0,0,.605,5.067a3.1,3.1,0,0,0,.83,1.078,6.3,6.3,0,0,0,1.251.812,9.744,9.744,0,0,0,1.637.578c.166.036.332.08.505.125s.341.089.512.127a4.041,4.041,0,0,1,.873.314,1.814,1.814,0,0,1,.605.455,1.193,1.193,0,0,1-.025,1.408,2.207,2.207,0,0,1-.617.528A3.092,3.092,0,0,1,5.4,10.8a3.274,3.274,0,0,1-1.4,0,3.651,3.651,0,0,1-.7-.255,3.027,3.027,0,0,1-.63-.41,3.338,3.338,0,0,1-.451-.619.972.972,0,0,0-.26-.346.6.6,0,0,0-.313-.13A.606.606,0,0,0,1.3,9.1l-.935.43a.7.7,0,0,0-.213.136.6.6,0,0,0-.122.171.486.486,0,0,0-.023.284.909.909,0,0,0,.073.278,4.049,4.049,0,0,0,.68,1.137,3.918,3.918,0,0,0,1.151.91,4.536,4.536,0,0,0,1.324.512,6.384,6.384,0,0,0,3.246-.1,4.433,4.433,0,0,0,1.531-.755,3.346,3.346,0,0,0,1.027-1.224A3.55,3.55,0,0,0,9.052,7.81Z" transform="translate(126.498 11.372)" fill="#000"/>
    </g>
  </g>
</svg>
