<svg id="Frame" xmlns="http://www.w3.org/2000/svg" width="107.277" height="28" viewBox="0 0 107.277 28">
  <path id="Vector" d="M26.14,7V7l0-.005c-.03-.048-.062-.094-.1-.14l-.028-.035c-.027-.034-.055-.067-.084-.1l-.052-.054c-.024-.024-.048-.047-.073-.07s-.047-.041-.071-.061l-.067-.052c-.028-.021-.056-.04-.085-.06l-.066-.042c-.031-.018-.062-.036-.093-.053l-.068-.035c-.033-.016-.066-.031-.1-.045l-.07-.028c-.036-.014-.073-.026-.11-.038l-.064-.019c-.043-.012-.087-.023-.131-.032l-.046-.009c-.054-.01-.11-.018-.165-.024l-.016,0a2.048,2.048,0,0,0-1.171.233L13.2,11.891,5.849,7.914l7.356-3.98,4.9,2.651a2.023,2.023,0,0,0,2.662-.668,1.765,1.765,0,0,0-.713-2.495L14.181.245a2.063,2.063,0,0,0-1.949,0L1.024,6.308A1.89,1.89,0,0,0,.262,7,1.764,1.764,0,0,0,.975,9.493l11.251,6.087,0,0a1.934,1.934,0,0,0,.182.084c.017.007.034.016.051.023.037.014.076.024.114.036a2.061,2.061,0,0,0,.621.1h0a2.055,2.055,0,0,0,.634-.1c.033-.011.067-.019.1-.032s.038-.018.058-.026a1.914,1.914,0,0,0,.175-.081l.005,0,8.331-4.507v7.959l-9.3,5.032L3.9,19.034V14a1.89,1.89,0,0,0-1.949-1.826A1.89,1.89,0,0,0,0,14v6.087a1.807,1.807,0,0,0,.974,1.581l11.251,6.087a2.066,2.066,0,0,0,1.949,0l11.251-6.087a1.807,1.807,0,0,0,.974-1.581V7.914A1.728,1.728,0,0,0,26.14,7Z" transform="translate(0 0)" fill="#28293e"/>
  <path id="Vector-2" data-name="Vector" d="M.325,10.55a8,8,0,0,0,1.981.9,7.072,7.072,0,0,0,1.981.293,2.648,2.648,0,0,0,1.575-.429,1.311,1.311,0,0,0,.6-1.112,1.014,1.014,0,0,0-.478-.887,5.287,5.287,0,0,0-1.2-.575q-.721-.253-1.555-.517a7.085,7.085,0,0,1-1.554-.7,3.781,3.781,0,0,1-1.2-1.16A3.372,3.372,0,0,1,0,4.466,3.49,3.49,0,0,1,.386,2.828,3.869,3.869,0,0,1,1.463,1.55,5.068,5.068,0,0,1,3.119.722,7.3,7.3,0,0,1,5.243.429,10.828,10.828,0,0,1,7.183.6a11.012,11.012,0,0,1,1.941.546V4a8.052,8.052,0,0,0-1.829-.751A7,7,0,0,0,5.486,3a2.663,2.663,0,0,0-1.514.39,1.194,1.194,0,0,0-.579,1.034.974.974,0,0,0,.478.858A5.348,5.348,0,0,0,5.06,5.84q.711.244,1.555.507a6.567,6.567,0,0,1,1.555.712,3.885,3.885,0,0,1,1.189,1.18,3.462,3.462,0,0,1,.477,1.921,3.632,3.632,0,0,1-.4,1.687,3.934,3.934,0,0,1-1.1,1.316,5.206,5.206,0,0,1-1.676.848,7.181,7.181,0,0,1-2.134.3,10.7,10.7,0,0,1-4.206-.877ZM10.823.059h3.312V5.012A4.8,4.8,0,0,1,16.919,4.1a3.97,3.97,0,0,1,1.463.263A3.352,3.352,0,0,1,20.3,6.24a3.738,3.738,0,0,1,.274,1.443v6.4H17.264V8.268a1.336,1.336,0,0,0-.4-.994,1.375,1.375,0,0,0-1.006-.39,2.472,2.472,0,0,0-1.727.78v6.416H10.823ZM21.93,4.329h3.312v9.75H21.93Zm-.163-2.594A1.646,1.646,0,0,1,22.275.478,1.85,1.85,0,0,1,23.6,0a1.831,1.831,0,0,1,1.29.478A1.63,1.63,0,0,1,25.4,1.736a1.615,1.615,0,0,1-.518,1.229,1.81,1.81,0,0,1-1.29.487,1.828,1.828,0,0,1-1.321-.487A1.631,1.631,0,0,1,21.767,1.736ZM33.606,9.2a2.563,2.563,0,0,0-.559-1.726,1.822,1.822,0,0,0-1.453-.653,2.26,2.26,0,0,0-1.605.683V10.9a2.26,2.26,0,0,0,1.605.682,1.81,1.81,0,0,0,1.453-.663A2.572,2.572,0,0,0,33.606,9.2ZM26.677,4.329h3.312v.527A4.281,4.281,0,0,1,32.366,4.1a4.542,4.542,0,0,1,1.869.38A4.325,4.325,0,0,1,35.7,5.528a4.751,4.751,0,0,1,.945,1.609A6.084,6.084,0,0,1,36.979,9.2a6.084,6.084,0,0,1-.335,2.067A4.751,4.751,0,0,1,35.7,12.88a4.324,4.324,0,0,1-1.463,1.053,4.541,4.541,0,0,1-1.869.38,4.281,4.281,0,0,1-2.377-.76v4.8H26.677ZM41.4,11.583h2.174a1.849,1.849,0,0,0,1.27-.439,1.511,1.511,0,0,0,0-2.243,1.849,1.849,0,0,0-1.27-.439H41.4Zm0-5.538H43.29a1.724,1.724,0,0,0,1.179-.41A1.316,1.316,0,0,0,44.937,4.6a1.308,1.308,0,0,0-.468-1.043,1.75,1.75,0,0,0-1.179-.4H41.4ZM38.17.663H43.92a5.093,5.093,0,0,1,1.707.273,4.174,4.174,0,0,1,1.341.76,3.454,3.454,0,0,1,.884,1.151,3.318,3.318,0,0,1,.315,1.443,3.275,3.275,0,0,1-.488,1.774,2.908,2.908,0,0,1-1.341,1.151,3.451,3.451,0,0,1,1.7,1.219,3.16,3.16,0,0,1,.6,1.9,3.5,3.5,0,0,1-1.23,2.7,4.135,4.135,0,0,1-1.382.77,5.429,5.429,0,0,1-1.758.273h-6.1ZM49.033,9.2a5.128,5.128,0,0,1,.406-2.067,4.7,4.7,0,0,1,1.138-1.609,5.306,5.306,0,0,1,1.738-1.053,6.582,6.582,0,0,1,4.409,0,5.2,5.2,0,0,1,1.727,1.053,4.778,4.778,0,0,1,1.128,1.609A5.141,5.141,0,0,1,59.986,9.2a5.161,5.161,0,0,1-.406,2.057,4.753,4.753,0,0,1-1.128,1.619,5.2,5.2,0,0,1-1.727,1.053,6.582,6.582,0,0,1-4.409,0,5.305,5.305,0,0,1-1.738-1.053,4.671,4.671,0,0,1-1.138-1.619A5.148,5.148,0,0,1,49.033,9.2Zm3.393,0a2.641,2.641,0,0,0,.579,1.784,2.028,2.028,0,0,0,3.018,0A2.612,2.612,0,0,0,56.613,9.2a2.613,2.613,0,0,0-.589-1.784,2.028,2.028,0,0,0-3.018,0A2.641,2.641,0,0,0,52.426,9.2Zm15.293,0a2.562,2.562,0,0,0-.559-1.726,1.82,1.82,0,0,0-1.452-.653,2.26,2.26,0,0,0-1.605.683V10.9a2.26,2.26,0,0,0,1.605.682,1.809,1.809,0,0,0,1.452-.663A2.57,2.57,0,0,0,67.719,9.2ZM60.79.059H64.1v4.8A4.28,4.28,0,0,1,66.48,4.1a4.541,4.541,0,0,1,1.87.38,4.325,4.325,0,0,1,1.463,1.053,4.746,4.746,0,0,1,.945,1.609A6.082,6.082,0,0,1,71.093,9.2a6.083,6.083,0,0,1-.336,2.067,4.745,4.745,0,0,1-.945,1.609,4.324,4.324,0,0,1-1.463,1.053,4.54,4.54,0,0,1-1.87.38,4.28,4.28,0,0,1-2.377-.76v.527H60.79Z" transform="translate(36.184 6.669)" fill="#28293e"/>
</svg>
