<svg id="Frame" xmlns="http://www.w3.org/2000/svg" width="135.878" height="27.575" viewBox="0 0 135.878 27.575">
  <path id="Vector" d="M16.626.192c-.132.15-.14.346-.158,4.32-.012,2.524-.047,4.163-.088,4.163a.441.441,0,0,1-.2-.14A9.011,9.011,0,0,0,14.7,7.591a11.187,11.187,0,0,0-5.832-.928,11.447,11.447,0,0,0-4.09,1.49,7.615,7.615,0,0,1-.655.47,13.075,13.075,0,0,0-2.146,2.128,4.423,4.423,0,0,1-.412.691A9.225,9.225,0,0,0,.172,14.97a12.711,12.711,0,0,0,.346,5.549,9.212,9.212,0,0,0,1.4,2.669.116.116,0,0,1,.058.1,9.2,9.2,0,0,0,2.256,2.327A10.353,10.353,0,0,0,13.585,27a13.629,13.629,0,0,0,2.565-1.341l.265-.224.036.853c.033.773.053.871.213,1.044l.176.192h1.617c1.483,0,1.631-.012,1.788-.143l.172-.142V14.607c0-11.129-.013-12.642-.109-12.737a4.437,4.437,0,0,0-.618-.384,5.021,5.021,0,0,1-.655-.407C18.1.242,16.954-.179,16.626.192ZM77.76.172c-.1.116-.12.333-.12,1.473,0,1.524-.005,1.507.6,1.9a5.271,5.271,0,0,1,.522.379,3.458,3.458,0,0,0,.546.342,10.094,10.094,0,0,1,.9.562c.652.457,1.038.471,1.253.044a22.224,22.224,0,0,0,0-4.616l-.111-.22H79.614C78.027.035,77.87.047,77.76.172ZM120.749.086a13.959,13.959,0,0,0-3.659,1.126,4,4,0,0,1-.615.265,14.286,14.286,0,0,0-5.148,4.772,9.1,9.1,0,0,1-.65,1.12,16.5,16.5,0,0,0-.951,2.349c-.655,2.269-.654,2.258-.654,9.186v6l.175.5a2.693,2.693,0,0,0,.351.692,3.28,3.28,0,0,1,.292.391,3.238,3.238,0,0,0,1.382.9c.594.189,11.435.21,12.716.024a14.588,14.588,0,0,0,6-2.388,4.744,4.744,0,0,1,.584-.4,6.934,6.934,0,0,0,.827-.724c.374-.363.71-.672.745-.686a7.511,7.511,0,0,0,.628-.742c.31-.394.633-.795.719-.889a4.57,4.57,0,0,0,.425-.71,5.274,5.274,0,0,1,.368-.65,8,8,0,0,0,.454-.9,14.376,14.376,0,0,0,.126-10.911,9.728,9.728,0,0,0-.51-1.079A4.99,4.99,0,0,1,134,6.69a14.439,14.439,0,0,0-3.5-3.966c-.2-.14-.527-.378-.727-.53A14.035,14.035,0,0,0,120.749.086Zm2.764,5.13A4.682,4.682,0,0,1,126.786,8.6a32.707,32.707,0,0,1-.043,6.216,3.819,3.819,0,0,1-.559,1.25,4.749,4.749,0,0,1-2.584,1.959,4.469,4.469,0,0,1-5.347-2.955,32.208,32.208,0,0,1-.164-6.174A4.417,4.417,0,0,1,123.514,5.216ZM32.421,6.563a11.14,11.14,0,0,0-4.888,1.774A3.378,3.378,0,0,1,27,8.711a10.893,10.893,0,0,0-2.359,2.646,10.249,10.249,0,0,0-1.574,5.675c0,9.029,10.445,13.85,17.023,7.856,2.245-2.045,2.335-2.5.573-2.907-.494-.114-1.2-.289-1.571-.388-1-.269-1.173-.252-1.632.166a6.039,6.039,0,0,1-7.589.589,6.3,6.3,0,0,1-2.4-2.992l-.1-.328H43.065L43.3,18.8l.235-.225-.041-1.507a15.5,15.5,0,0,0-.146-1.991l-.225-1.043a10.163,10.163,0,0,0-1.149-2.57,2.9,2.9,0,0,1-.3-.521A11.543,11.543,0,0,0,39.551,8.71c-.2-.132-.486-.341-.636-.464A10.834,10.834,0,0,0,32.421,6.563Zm21.172.1a7.622,7.622,0,0,0-2.006.486.927.927,0,0,1-.32.109c-.917,0-3.235,2.241-4.113,3.976-1.07,2.115-1.1,2.394-1.075,9.9l.021,6.021.2.18a9.127,9.127,0,0,0,3.5.064c.293-.2.293-.2.331-6.736l.036-6.368.223-.563a6.1,6.1,0,0,1,.631-1.117,3.344,3.344,0,0,1,1.729-1.513,3.272,3.272,0,0,1,3.418.143,4.563,4.563,0,0,0,.576.331,6.081,6.081,0,0,1,1.577,2.411c.3.969.322,1.489.322,7.5,0,5.635,0,5.7.149,5.866a7.915,7.915,0,0,0,3.54-.017l.2-.18.04-6.245.04-6.245.224-.707c1.393-4.387,6.484-4.307,8.007.126l.2.581.037,6.3c.031,5.189.055,6.323.138,6.424a9.755,9.755,0,0,0,3.634-.05l.158-.172V20.918c0-7.053.009-6.911-.544-8.553a8.617,8.617,0,0,0-2.367-3.657,5.659,5.659,0,0,1-.571-.462A8.006,8.006,0,0,0,65.1,6.818a7.854,7.854,0,0,0-3.993,2.317l-.561.581-.312-.375A7.928,7.928,0,0,0,53.593,6.665Zm24.5-.023c-.492.1-.456-.718-.456,10.492V27.212l.192.155a13.031,13.031,0,0,0,3.406.108c.341-.134.331.179.331-10.381,0-10.834.022-10.264-.409-10.431A23.1,23.1,0,0,0,78.1,6.643Zm14.568.093a12.349,12.349,0,0,0-2.8.9,8.3,8.3,0,0,0-1.306.817,2.5,2.5,0,0,1-.364.26,8.083,8.083,0,0,0-1.01.924A10.643,10.643,0,0,0,84.338,19.1a10.821,10.821,0,0,0,4.943,7.063,10.079,10.079,0,0,0,12.441-1.711,10.981,10.981,0,0,0,2.74-9.486,8.916,8.916,0,0,0-1.276-3.352c-.188-.287-.429-.672-.534-.857A11.6,11.6,0,0,0,100.4,8.517,10.357,10.357,0,0,0,92.664,6.735Zm28.981-.065A2.965,2.965,0,0,0,119.7,8.48l-.19.531v2.607c0,2.535,0,2.62.169,3.091a2.962,2.962,0,0,0,5.423.335c.33-.675.349-.886.324-3.614L125.4,8.862l-.225-.484A3.05,3.05,0,0,0,121.645,6.67Zm1.293,3.153.248.253V12c0,1.694-.015,1.95-.124,2.112a.625.625,0,0,1-1.084.117l-.247-.253v-3.9l.247-.253a.581.581,0,0,1,.96,0ZM11.669,10.831a6.431,6.431,0,0,1,3.506,10.1,5.658,5.658,0,0,1-1.632,1.557,6.192,6.192,0,0,1-8.106-1.3C1.544,16.615,5.933,9.321,11.669,10.831Zm23.225,0a6.454,6.454,0,0,1,4.073,3.573l.25.6H27.371l.1-.286a5.715,5.715,0,0,1,1.023-1.762A3.956,3.956,0,0,0,28.8,12.6,6.315,6.315,0,0,1,34.895,10.835Zm61.116.039a5.654,5.654,0,0,1,2.817,1.7c4.434,4.591.272,12.166-5.887,10.714a5.423,5.423,0,0,1-2.579-1.35,6.473,6.473,0,0,1-1.954-6.55A6.206,6.206,0,0,1,96.011,10.875Zm33.913,4.981a.847.847,0,0,1,.247.415,8.657,8.657,0,0,1-1.012,2.609c-.026.02-.251.305-.5.633a5.749,5.749,0,0,1-.7.782c-.134.1-.484.375-.78.606a7.61,7.61,0,0,1-3.012,1.369,8.476,8.476,0,0,1-6.176-1.135,8.4,8.4,0,0,1-2.481-2.627,7.17,7.17,0,0,0-.3-.675c-.63-1.288-.528-1.969.295-1.969.414,0,.575.161.771.772a5.9,5.9,0,0,0,.4.927,3.168,3.168,0,0,1,.245.492,6.94,6.94,0,0,0,2.124,2.042c3.841,1.944,8.28.38,9.48-3.339Q129.1,15.006,129.923,15.856Z" transform="translate(0 0)" fill="#fff"/>
  <path id="Vector-2" data-name="Vector" d="M16.626.192c-.132.15-.14.346-.158,4.32-.012,2.524-.047,4.163-.088,4.163a.441.441,0,0,1-.2-.14A9.011,9.011,0,0,0,14.7,7.591a11.187,11.187,0,0,0-5.832-.928,11.447,11.447,0,0,0-4.09,1.49,7.615,7.615,0,0,1-.655.47,13.075,13.075,0,0,0-2.146,2.128,4.423,4.423,0,0,1-.412.691A9.225,9.225,0,0,0,.172,14.97a12.711,12.711,0,0,0,.346,5.549,9.212,9.212,0,0,0,1.4,2.669.116.116,0,0,1,.058.1,9.2,9.2,0,0,0,2.256,2.327A10.353,10.353,0,0,0,13.585,27a13.629,13.629,0,0,0,2.565-1.341l.265-.224.036.853c.033.773.053.871.213,1.044l.176.192h1.617c1.483,0,1.631-.012,1.788-.143l.172-.142V14.607c0-11.129-.013-12.642-.109-12.737a4.437,4.437,0,0,0-.618-.384,5.021,5.021,0,0,1-.655-.407C18.1.242,16.954-.179,16.626.192ZM77.76.172c-.1.116-.12.333-.12,1.473,0,1.524-.005,1.507.6,1.9a5.271,5.271,0,0,1,.522.379,3.458,3.458,0,0,0,.546.342,10.094,10.094,0,0,1,.9.562c.652.457,1.038.471,1.253.044a22.224,22.224,0,0,0,0-4.616l-.111-.22H79.614C78.027.035,77.87.047,77.76.172ZM120.749.086a13.959,13.959,0,0,0-3.659,1.126,4,4,0,0,1-.615.265,14.286,14.286,0,0,0-5.148,4.772,9.1,9.1,0,0,1-.65,1.12,16.5,16.5,0,0,0-.951,2.349c-.655,2.269-.654,2.258-.654,9.186v6l.175.5a2.693,2.693,0,0,0,.351.692,3.28,3.28,0,0,1,.292.391,3.238,3.238,0,0,0,1.382.9c.594.189,11.435.21,12.716.024a14.588,14.588,0,0,0,6-2.388,4.744,4.744,0,0,1,.584-.4,6.934,6.934,0,0,0,.827-.724c.374-.363.71-.672.745-.686a7.511,7.511,0,0,0,.628-.742c.31-.394.633-.795.719-.889a4.57,4.57,0,0,0,.425-.71,5.274,5.274,0,0,1,.368-.65,8,8,0,0,0,.454-.9,14.376,14.376,0,0,0,.126-10.911,9.728,9.728,0,0,0-.51-1.079A4.99,4.99,0,0,1,134,6.69a14.439,14.439,0,0,0-3.5-3.966c-.2-.14-.527-.378-.727-.53A14.035,14.035,0,0,0,120.749.086Zm2.764,5.13A4.682,4.682,0,0,1,126.786,8.6a32.707,32.707,0,0,1-.043,6.216,3.819,3.819,0,0,1-.559,1.25,4.749,4.749,0,0,1-2.584,1.959,4.469,4.469,0,0,1-5.347-2.955,32.208,32.208,0,0,1-.164-6.174A4.417,4.417,0,0,1,123.514,5.216ZM32.421,6.563a11.14,11.14,0,0,0-4.888,1.774A3.378,3.378,0,0,1,27,8.711a10.893,10.893,0,0,0-2.359,2.646,10.249,10.249,0,0,0-1.574,5.675c0,9.029,10.445,13.85,17.023,7.856,2.245-2.045,2.335-2.5.573-2.907-.494-.114-1.2-.289-1.571-.388-1-.269-1.173-.252-1.632.166a6.039,6.039,0,0,1-7.589.589,6.3,6.3,0,0,1-2.4-2.992l-.1-.328H43.065L43.3,18.8l.235-.225-.041-1.507a15.5,15.5,0,0,0-.146-1.991l-.225-1.043a10.163,10.163,0,0,0-1.149-2.57,2.9,2.9,0,0,1-.3-.521A11.543,11.543,0,0,0,39.551,8.71c-.2-.132-.486-.341-.636-.464A10.834,10.834,0,0,0,32.421,6.563Zm21.172.1a7.622,7.622,0,0,0-2.006.486.927.927,0,0,1-.32.109c-.917,0-3.235,2.241-4.113,3.976-1.07,2.115-1.1,2.394-1.075,9.9l.021,6.021.2.18a9.127,9.127,0,0,0,3.5.064c.293-.2.293-.2.331-6.736l.036-6.368.223-.563a6.1,6.1,0,0,1,.631-1.117,3.344,3.344,0,0,1,1.729-1.513,3.272,3.272,0,0,1,3.418.143,4.563,4.563,0,0,0,.576.331,6.081,6.081,0,0,1,1.577,2.411c.3.969.322,1.489.322,7.5,0,5.635,0,5.7.149,5.866a7.915,7.915,0,0,0,3.54-.017l.2-.18.04-6.245.04-6.245.224-.707c1.393-4.387,6.484-4.307,8.007.126l.2.581.037,6.3c.031,5.189.055,6.323.138,6.424a9.755,9.755,0,0,0,3.634-.05l.158-.172V20.918c0-7.053.009-6.911-.544-8.553a8.617,8.617,0,0,0-2.367-3.657,5.659,5.659,0,0,1-.571-.462A8.006,8.006,0,0,0,65.1,6.818a7.854,7.854,0,0,0-3.993,2.317l-.561.581-.312-.375A7.928,7.928,0,0,0,53.593,6.665Zm24.5-.023c-.492.1-.456-.718-.456,10.492V27.212l.192.155a13.031,13.031,0,0,0,3.406.108c.341-.134.331.179.331-10.381,0-10.834.022-10.264-.409-10.431A23.1,23.1,0,0,0,78.1,6.643Zm14.568.093a12.349,12.349,0,0,0-2.8.9,8.3,8.3,0,0,0-1.306.817,2.5,2.5,0,0,1-.364.26,8.083,8.083,0,0,0-1.01.924A10.643,10.643,0,0,0,84.338,19.1a10.821,10.821,0,0,0,4.943,7.063,10.079,10.079,0,0,0,12.441-1.711,10.981,10.981,0,0,0,2.74-9.486,8.916,8.916,0,0,0-1.276-3.352c-.188-.287-.429-.672-.534-.857A11.6,11.6,0,0,0,100.4,8.517,10.357,10.357,0,0,0,92.664,6.735Zm28.981-.065A2.965,2.965,0,0,0,119.7,8.48l-.19.531v2.607c0,2.535,0,2.62.169,3.091a2.962,2.962,0,0,0,5.423.335c.33-.675.349-.886.324-3.614L125.4,8.862l-.225-.484A3.05,3.05,0,0,0,121.645,6.67Zm1.293,3.153.248.253V12c0,1.694-.015,1.95-.124,2.112a.625.625,0,0,1-1.084.117l-.247-.253v-3.9l.247-.253a.581.581,0,0,1,.96,0ZM11.669,10.831a6.431,6.431,0,0,1,3.506,10.1,5.658,5.658,0,0,1-1.632,1.557,6.192,6.192,0,0,1-8.106-1.3C1.544,16.615,5.933,9.321,11.669,10.831Zm23.225,0a6.454,6.454,0,0,1,4.073,3.573l.25.6H27.371l.1-.286a5.715,5.715,0,0,1,1.023-1.762A3.956,3.956,0,0,0,28.8,12.6,6.315,6.315,0,0,1,34.895,10.835Zm61.116.039a5.654,5.654,0,0,1,2.817,1.7c4.434,4.591.272,12.166-5.887,10.714a5.423,5.423,0,0,1-2.579-1.35,6.473,6.473,0,0,1-1.954-6.55A6.206,6.206,0,0,1,96.011,10.875Zm33.913,4.981a.847.847,0,0,1,.247.415,8.657,8.657,0,0,1-1.012,2.609c-.026.02-.251.305-.5.633a5.749,5.749,0,0,1-.7.782c-.134.1-.484.375-.78.606a7.61,7.61,0,0,1-3.012,1.369,8.476,8.476,0,0,1-6.176-1.135,8.4,8.4,0,0,1-2.481-2.627,7.17,7.17,0,0,0-.3-.675c-.63-1.288-.528-1.969.295-1.969.414,0,.575.161.771.772a5.9,5.9,0,0,0,.4.927,3.168,3.168,0,0,1,.245.492,6.94,6.94,0,0,0,2.124,2.042c3.841,1.944,8.28.38,9.48-3.339Q129.1,15.006,129.923,15.856Z" transform="translate(0 0)" fill="#fff"/>
  <path id="Vector-3" data-name="Vector" d="M16.626.192c-.132.15-.14.346-.158,4.32-.012,2.524-.047,4.163-.088,4.163a.441.441,0,0,1-.2-.14A9.011,9.011,0,0,0,14.7,7.591a11.187,11.187,0,0,0-5.832-.928,11.447,11.447,0,0,0-4.09,1.49,7.615,7.615,0,0,1-.655.47,13.075,13.075,0,0,0-2.146,2.128,4.423,4.423,0,0,1-.412.691A9.225,9.225,0,0,0,.172,14.97a12.711,12.711,0,0,0,.346,5.549,9.212,9.212,0,0,0,1.4,2.669.116.116,0,0,1,.058.1,9.2,9.2,0,0,0,2.256,2.327A10.353,10.353,0,0,0,13.585,27a13.629,13.629,0,0,0,2.565-1.341l.265-.224.036.853c.033.773.053.871.213,1.044l.176.192h1.617c1.483,0,1.631-.012,1.788-.143l.172-.142V14.607c0-11.129-.013-12.642-.109-12.737a4.437,4.437,0,0,0-.618-.384,5.021,5.021,0,0,1-.655-.407C18.1.242,16.954-.179,16.626.192ZM77.76.172c-.1.116-.12.333-.12,1.473,0,1.524-.005,1.507.6,1.9a5.271,5.271,0,0,1,.522.379,3.458,3.458,0,0,0,.546.342,10.094,10.094,0,0,1,.9.562c.652.457,1.038.471,1.253.044a22.224,22.224,0,0,0,0-4.616l-.111-.22H79.614C78.027.035,77.87.047,77.76.172ZM120.749.086a13.959,13.959,0,0,0-3.659,1.126,4,4,0,0,1-.615.265,14.286,14.286,0,0,0-5.148,4.772,9.1,9.1,0,0,1-.65,1.12,16.5,16.5,0,0,0-.951,2.349c-.655,2.269-.654,2.258-.654,9.186v6l.175.5a2.693,2.693,0,0,0,.351.692,3.28,3.28,0,0,1,.292.391,3.238,3.238,0,0,0,1.382.9c.594.189,11.435.21,12.716.024a14.588,14.588,0,0,0,6-2.388,4.744,4.744,0,0,1,.584-.4,6.934,6.934,0,0,0,.827-.724c.374-.363.71-.672.745-.686a7.511,7.511,0,0,0,.628-.742c.31-.394.633-.795.719-.889a4.57,4.57,0,0,0,.425-.71,5.274,5.274,0,0,1,.368-.65,8,8,0,0,0,.454-.9,14.376,14.376,0,0,0,.126-10.911,9.728,9.728,0,0,0-.51-1.079A4.99,4.99,0,0,1,134,6.69a14.439,14.439,0,0,0-3.5-3.966c-.2-.14-.527-.378-.727-.53A14.035,14.035,0,0,0,120.749.086Zm2.764,5.13A4.682,4.682,0,0,1,126.786,8.6a32.707,32.707,0,0,1-.043,6.216,3.819,3.819,0,0,1-.559,1.25,4.749,4.749,0,0,1-2.584,1.959,4.469,4.469,0,0,1-5.347-2.955,32.208,32.208,0,0,1-.164-6.174A4.417,4.417,0,0,1,123.514,5.216ZM32.421,6.563a11.14,11.14,0,0,0-4.888,1.774A3.378,3.378,0,0,1,27,8.711a10.893,10.893,0,0,0-2.359,2.646,10.249,10.249,0,0,0-1.574,5.675c0,9.029,10.445,13.85,17.023,7.856,2.245-2.045,2.335-2.5.573-2.907-.494-.114-1.2-.289-1.571-.388-1-.269-1.173-.252-1.632.166a6.039,6.039,0,0,1-7.589.589,6.3,6.3,0,0,1-2.4-2.992l-.1-.328H43.065L43.3,18.8l.235-.225-.041-1.507a15.5,15.5,0,0,0-.146-1.991l-.225-1.043a10.163,10.163,0,0,0-1.149-2.57,2.9,2.9,0,0,1-.3-.521A11.543,11.543,0,0,0,39.551,8.71c-.2-.132-.486-.341-.636-.464A10.834,10.834,0,0,0,32.421,6.563Zm21.172.1a7.622,7.622,0,0,0-2.006.486.927.927,0,0,1-.32.109c-.917,0-3.235,2.241-4.113,3.976-1.07,2.115-1.1,2.394-1.075,9.9l.021,6.021.2.18a9.127,9.127,0,0,0,3.5.064c.293-.2.293-.2.331-6.736l.036-6.368.223-.563a6.1,6.1,0,0,1,.631-1.117,3.344,3.344,0,0,1,1.729-1.513,3.272,3.272,0,0,1,3.418.143,4.563,4.563,0,0,0,.576.331,6.081,6.081,0,0,1,1.577,2.411c.3.969.322,1.489.322,7.5,0,5.635,0,5.7.149,5.866a7.915,7.915,0,0,0,3.54-.017l.2-.18.04-6.245.04-6.245.224-.707c1.393-4.387,6.484-4.307,8.007.126l.2.581.037,6.3c.031,5.189.055,6.323.138,6.424a9.755,9.755,0,0,0,3.634-.05l.158-.172V20.918c0-7.053.009-6.911-.544-8.553a8.617,8.617,0,0,0-2.367-3.657,5.659,5.659,0,0,1-.571-.462A8.006,8.006,0,0,0,65.1,6.818a7.854,7.854,0,0,0-3.993,2.317l-.561.581-.312-.375A7.928,7.928,0,0,0,53.593,6.665Zm24.5-.023c-.492.1-.456-.718-.456,10.492V27.212l.192.155a13.031,13.031,0,0,0,3.406.108c.341-.134.331.179.331-10.381,0-10.834.022-10.264-.409-10.431A23.1,23.1,0,0,0,78.1,6.643Zm14.568.093a12.349,12.349,0,0,0-2.8.9,8.3,8.3,0,0,0-1.306.817,2.5,2.5,0,0,1-.364.26,8.083,8.083,0,0,0-1.01.924A10.643,10.643,0,0,0,84.338,19.1a10.821,10.821,0,0,0,4.943,7.063,10.079,10.079,0,0,0,12.441-1.711,10.981,10.981,0,0,0,2.74-9.486,8.916,8.916,0,0,0-1.276-3.352c-.188-.287-.429-.672-.534-.857A11.6,11.6,0,0,0,100.4,8.517,10.357,10.357,0,0,0,92.664,6.735Zm28.981-.065A2.965,2.965,0,0,0,119.7,8.48l-.19.531v2.607c0,2.535,0,2.62.169,3.091a2.962,2.962,0,0,0,5.423.335c.33-.675.349-.886.324-3.614L125.4,8.862l-.225-.484A3.05,3.05,0,0,0,121.645,6.67Zm1.293,3.153.248.253V12c0,1.694-.015,1.95-.124,2.112a.625.625,0,0,1-1.084.117l-.247-.253v-3.9l.247-.253a.581.581,0,0,1,.96,0ZM11.669,10.831a6.431,6.431,0,0,1,3.506,10.1,5.658,5.658,0,0,1-1.632,1.557,6.192,6.192,0,0,1-8.106-1.3C1.544,16.615,5.933,9.321,11.669,10.831Zm23.225,0a6.454,6.454,0,0,1,4.073,3.573l.25.6H27.371l.1-.286a5.715,5.715,0,0,1,1.023-1.762A3.956,3.956,0,0,0,28.8,12.6,6.315,6.315,0,0,1,34.895,10.835Zm61.116.039a5.654,5.654,0,0,1,2.817,1.7c4.434,4.591.272,12.166-5.887,10.714a5.423,5.423,0,0,1-2.579-1.35,6.473,6.473,0,0,1-1.954-6.55A6.206,6.206,0,0,1,96.011,10.875Zm33.913,4.981a.847.847,0,0,1,.247.415,8.657,8.657,0,0,1-1.012,2.609c-.026.02-.251.305-.5.633a5.749,5.749,0,0,1-.7.782c-.134.1-.484.375-.78.606a7.61,7.61,0,0,1-3.012,1.369,8.476,8.476,0,0,1-6.176-1.135,8.4,8.4,0,0,1-2.481-2.627,7.17,7.17,0,0,0-.3-.675c-.63-1.288-.528-1.969.295-1.969.414,0,.575.161.771.772a5.9,5.9,0,0,0,.4.927,3.168,3.168,0,0,1,.245.492,6.94,6.94,0,0,0,2.124,2.042c3.841,1.944,8.28.38,9.48-3.339Q129.1,15.006,129.923,15.856Z" transform="translate(0 0)" fill="#fff"/>
  <path id="Vector-4" data-name="Vector" d="M16.626.192c-.132.15-.14.346-.158,4.32-.012,2.524-.047,4.163-.088,4.163a.441.441,0,0,1-.2-.14A9.011,9.011,0,0,0,14.7,7.591a11.187,11.187,0,0,0-5.832-.928,11.447,11.447,0,0,0-4.09,1.49,7.615,7.615,0,0,1-.655.47,13.075,13.075,0,0,0-2.146,2.128,4.423,4.423,0,0,1-.412.691A9.225,9.225,0,0,0,.172,14.97a12.711,12.711,0,0,0,.346,5.549,9.212,9.212,0,0,0,1.4,2.669.116.116,0,0,1,.058.1,9.2,9.2,0,0,0,2.256,2.327A10.353,10.353,0,0,0,13.585,27a13.629,13.629,0,0,0,2.565-1.341l.265-.224.036.853c.033.773.053.871.213,1.044l.176.192h1.617c1.483,0,1.631-.012,1.788-.143l.172-.142V14.607c0-11.129-.013-12.642-.109-12.737a4.437,4.437,0,0,0-.618-.384,5.021,5.021,0,0,1-.655-.407C18.1.242,16.954-.179,16.626.192ZM77.76.172c-.1.116-.12.333-.12,1.473,0,1.524-.005,1.507.6,1.9a5.271,5.271,0,0,1,.522.379,3.458,3.458,0,0,0,.546.342,10.094,10.094,0,0,1,.9.562c.652.457,1.038.471,1.253.044a22.224,22.224,0,0,0,0-4.616l-.111-.22H79.614C78.027.035,77.87.047,77.76.172ZM120.749.086a13.959,13.959,0,0,0-3.659,1.126,4,4,0,0,1-.615.265,14.286,14.286,0,0,0-5.148,4.772,9.1,9.1,0,0,1-.65,1.12,16.5,16.5,0,0,0-.951,2.349c-.655,2.269-.654,2.258-.654,9.186v6l.175.5a2.693,2.693,0,0,0,.351.692,3.28,3.28,0,0,1,.292.391,3.238,3.238,0,0,0,1.382.9c.594.189,11.435.21,12.716.024a14.588,14.588,0,0,0,6-2.388,4.744,4.744,0,0,1,.584-.4,6.934,6.934,0,0,0,.827-.724c.374-.363.71-.672.745-.686a7.511,7.511,0,0,0,.628-.742c.31-.394.633-.795.719-.889a4.57,4.57,0,0,0,.425-.71,5.274,5.274,0,0,1,.368-.65,8,8,0,0,0,.454-.9,14.376,14.376,0,0,0,.126-10.911,9.728,9.728,0,0,0-.51-1.079A4.99,4.99,0,0,1,134,6.69a14.439,14.439,0,0,0-3.5-3.966c-.2-.14-.527-.378-.727-.53A14.035,14.035,0,0,0,120.749.086Zm2.764,5.13A4.682,4.682,0,0,1,126.786,8.6a32.707,32.707,0,0,1-.043,6.216,3.819,3.819,0,0,1-.559,1.25,4.749,4.749,0,0,1-2.584,1.959,4.469,4.469,0,0,1-5.347-2.955,32.208,32.208,0,0,1-.164-6.174A4.417,4.417,0,0,1,123.514,5.216ZM32.421,6.563a11.14,11.14,0,0,0-4.888,1.774A3.378,3.378,0,0,1,27,8.711a10.893,10.893,0,0,0-2.359,2.646,10.249,10.249,0,0,0-1.574,5.675c0,9.029,10.445,13.85,17.023,7.856,2.245-2.045,2.335-2.5.573-2.907-.494-.114-1.2-.289-1.571-.388-1-.269-1.173-.252-1.632.166a6.039,6.039,0,0,1-7.589.589,6.3,6.3,0,0,1-2.4-2.992l-.1-.328H43.065L43.3,18.8l.235-.225-.041-1.507a15.5,15.5,0,0,0-.146-1.991l-.225-1.043a10.163,10.163,0,0,0-1.149-2.57,2.9,2.9,0,0,1-.3-.521A11.543,11.543,0,0,0,39.551,8.71c-.2-.132-.486-.341-.636-.464A10.834,10.834,0,0,0,32.421,6.563Zm21.172.1a7.622,7.622,0,0,0-2.006.486.927.927,0,0,1-.32.109c-.917,0-3.235,2.241-4.113,3.976-1.07,2.115-1.1,2.394-1.075,9.9l.021,6.021.2.18a9.127,9.127,0,0,0,3.5.064c.293-.2.293-.2.331-6.736l.036-6.368.223-.563a6.1,6.1,0,0,1,.631-1.117,3.344,3.344,0,0,1,1.729-1.513,3.272,3.272,0,0,1,3.418.143,4.563,4.563,0,0,0,.576.331,6.081,6.081,0,0,1,1.577,2.411c.3.969.322,1.489.322,7.5,0,5.635,0,5.7.149,5.866a7.915,7.915,0,0,0,3.54-.017l.2-.18.04-6.245.04-6.245.224-.707c1.393-4.387,6.484-4.307,8.007.126l.2.581.037,6.3c.031,5.189.055,6.323.138,6.424a9.755,9.755,0,0,0,3.634-.05l.158-.172V20.918c0-7.053.009-6.911-.544-8.553a8.617,8.617,0,0,0-2.367-3.657,5.659,5.659,0,0,1-.571-.462A8.006,8.006,0,0,0,65.1,6.818a7.854,7.854,0,0,0-3.993,2.317l-.561.581-.312-.375A7.928,7.928,0,0,0,53.593,6.665Zm24.5-.023c-.492.1-.456-.718-.456,10.492V27.212l.192.155a13.031,13.031,0,0,0,3.406.108c.341-.134.331.179.331-10.381,0-10.834.022-10.264-.409-10.431A23.1,23.1,0,0,0,78.1,6.643Zm14.568.093a12.349,12.349,0,0,0-2.8.9,8.3,8.3,0,0,0-1.306.817,2.5,2.5,0,0,1-.364.26,8.083,8.083,0,0,0-1.01.924A10.643,10.643,0,0,0,84.338,19.1a10.821,10.821,0,0,0,4.943,7.063,10.079,10.079,0,0,0,12.441-1.711,10.981,10.981,0,0,0,2.74-9.486,8.916,8.916,0,0,0-1.276-3.352c-.188-.287-.429-.672-.534-.857A11.6,11.6,0,0,0,100.4,8.517,10.357,10.357,0,0,0,92.664,6.735Zm28.981-.065A2.965,2.965,0,0,0,119.7,8.48l-.19.531v2.607c0,2.535,0,2.62.169,3.091a2.962,2.962,0,0,0,5.423.335c.33-.675.349-.886.324-3.614L125.4,8.862l-.225-.484A3.05,3.05,0,0,0,121.645,6.67Zm1.293,3.153.248.253V12c0,1.694-.015,1.95-.124,2.112a.625.625,0,0,1-1.084.117l-.247-.253v-3.9l.247-.253a.581.581,0,0,1,.96,0ZM11.669,10.831a6.431,6.431,0,0,1,3.506,10.1,5.658,5.658,0,0,1-1.632,1.557,6.192,6.192,0,0,1-8.106-1.3C1.544,16.615,5.933,9.321,11.669,10.831Zm23.225,0a6.454,6.454,0,0,1,4.073,3.573l.25.6H27.371l.1-.286a5.715,5.715,0,0,1,1.023-1.762A3.956,3.956,0,0,0,28.8,12.6,6.315,6.315,0,0,1,34.895,10.835Zm61.116.039a5.654,5.654,0,0,1,2.817,1.7c4.434,4.591.272,12.166-5.887,10.714a5.423,5.423,0,0,1-2.579-1.35,6.473,6.473,0,0,1-1.954-6.55A6.206,6.206,0,0,1,96.011,10.875Zm33.913,4.981a.847.847,0,0,1,.247.415,8.657,8.657,0,0,1-1.012,2.609c-.026.02-.251.305-.5.633a5.749,5.749,0,0,1-.7.782c-.134.1-.484.375-.78.606a7.61,7.61,0,0,1-3.012,1.369,8.476,8.476,0,0,1-6.176-1.135,8.4,8.4,0,0,1-2.481-2.627,7.17,7.17,0,0,0-.3-.675c-.63-1.288-.528-1.969.295-1.969.414,0,.575.161.771.772a5.9,5.9,0,0,0,.4.927,3.168,3.168,0,0,1,.245.492,6.94,6.94,0,0,0,2.124,2.042c3.841,1.944,8.28.38,9.48-3.339Q129.1,15.006,129.923,15.856Z" transform="translate(0 0)" fill="#fff"/>
  <path id="Vector-5" data-name="Vector" d="M16.626.192c-.132.15-.14.346-.158,4.32-.012,2.524-.047,4.163-.088,4.163a.441.441,0,0,1-.2-.14A9.011,9.011,0,0,0,14.7,7.591a11.187,11.187,0,0,0-5.832-.928,11.447,11.447,0,0,0-4.09,1.49,7.615,7.615,0,0,1-.655.47,13.075,13.075,0,0,0-2.146,2.128,4.423,4.423,0,0,1-.412.691A9.225,9.225,0,0,0,.172,14.97a12.711,12.711,0,0,0,.346,5.549,9.212,9.212,0,0,0,1.4,2.669.116.116,0,0,1,.058.1,9.2,9.2,0,0,0,2.256,2.327A10.353,10.353,0,0,0,13.585,27a13.629,13.629,0,0,0,2.565-1.341l.265-.224.036.853c.033.773.053.871.213,1.044l.176.192h1.617c1.483,0,1.631-.012,1.788-.143l.172-.142V14.607c0-11.129-.013-12.642-.109-12.737a4.437,4.437,0,0,0-.618-.384,5.021,5.021,0,0,1-.655-.407C18.1.242,16.954-.179,16.626.192ZM77.76.172c-.1.116-.12.333-.12,1.473,0,1.524-.005,1.507.6,1.9a5.271,5.271,0,0,1,.522.379,3.458,3.458,0,0,0,.546.342,10.094,10.094,0,0,1,.9.562c.652.457,1.038.471,1.253.044a22.224,22.224,0,0,0,0-4.616l-.111-.22H79.614C78.027.035,77.87.047,77.76.172ZM120.749.086a13.959,13.959,0,0,0-3.659,1.126,4,4,0,0,1-.615.265,14.286,14.286,0,0,0-5.148,4.772,9.1,9.1,0,0,1-.65,1.12,16.5,16.5,0,0,0-.951,2.349c-.655,2.269-.654,2.258-.654,9.186v6l.175.5a2.693,2.693,0,0,0,.351.692,3.28,3.28,0,0,1,.292.391,3.238,3.238,0,0,0,1.382.9c.594.189,11.435.21,12.716.024a14.588,14.588,0,0,0,6-2.388,4.744,4.744,0,0,1,.584-.4,6.934,6.934,0,0,0,.827-.724c.374-.363.71-.672.745-.686a7.511,7.511,0,0,0,.628-.742c.31-.394.633-.795.719-.889a4.57,4.57,0,0,0,.425-.71,5.274,5.274,0,0,1,.368-.65,8,8,0,0,0,.454-.9,14.376,14.376,0,0,0,.126-10.911,9.728,9.728,0,0,0-.51-1.079A4.99,4.99,0,0,1,134,6.69a14.439,14.439,0,0,0-3.5-3.966c-.2-.14-.527-.378-.727-.53A14.035,14.035,0,0,0,120.749.086Zm2.764,5.13A4.682,4.682,0,0,1,126.786,8.6a32.707,32.707,0,0,1-.043,6.216,3.819,3.819,0,0,1-.559,1.25,4.749,4.749,0,0,1-2.584,1.959,4.469,4.469,0,0,1-5.347-2.955,32.208,32.208,0,0,1-.164-6.174A4.417,4.417,0,0,1,123.514,5.216ZM32.421,6.563a11.14,11.14,0,0,0-4.888,1.774A3.378,3.378,0,0,1,27,8.711a10.893,10.893,0,0,0-2.359,2.646,10.249,10.249,0,0,0-1.574,5.675c0,9.029,10.445,13.85,17.023,7.856,2.245-2.045,2.335-2.5.573-2.907-.494-.114-1.2-.289-1.571-.388-1-.269-1.173-.252-1.632.166a6.039,6.039,0,0,1-7.589.589,6.3,6.3,0,0,1-2.4-2.992l-.1-.328H43.065L43.3,18.8l.235-.225-.041-1.507a15.5,15.5,0,0,0-.146-1.991l-.225-1.043a10.163,10.163,0,0,0-1.149-2.57,2.9,2.9,0,0,1-.3-.521A11.543,11.543,0,0,0,39.551,8.71c-.2-.132-.486-.341-.636-.464A10.834,10.834,0,0,0,32.421,6.563Zm21.172.1a7.622,7.622,0,0,0-2.006.486.927.927,0,0,1-.32.109c-.917,0-3.235,2.241-4.113,3.976-1.07,2.115-1.1,2.394-1.075,9.9l.021,6.021.2.18a9.127,9.127,0,0,0,3.5.064c.293-.2.293-.2.331-6.736l.036-6.368.223-.563a6.1,6.1,0,0,1,.631-1.117,3.344,3.344,0,0,1,1.729-1.513,3.272,3.272,0,0,1,3.418.143,4.563,4.563,0,0,0,.576.331,6.081,6.081,0,0,1,1.577,2.411c.3.969.322,1.489.322,7.5,0,5.635,0,5.7.149,5.866a7.915,7.915,0,0,0,3.54-.017l.2-.18.04-6.245.04-6.245.224-.707c1.393-4.387,6.484-4.307,8.007.126l.2.581.037,6.3c.031,5.189.055,6.323.138,6.424a9.755,9.755,0,0,0,3.634-.05l.158-.172V20.918c0-7.053.009-6.911-.544-8.553a8.617,8.617,0,0,0-2.367-3.657,5.659,5.659,0,0,1-.571-.462A8.006,8.006,0,0,0,65.1,6.818a7.854,7.854,0,0,0-3.993,2.317l-.561.581-.312-.375A7.928,7.928,0,0,0,53.593,6.665Zm24.5-.023c-.492.1-.456-.718-.456,10.492V27.212l.192.155a13.031,13.031,0,0,0,3.406.108c.341-.134.331.179.331-10.381,0-10.834.022-10.264-.409-10.431A23.1,23.1,0,0,0,78.1,6.643Zm14.568.093a12.349,12.349,0,0,0-2.8.9,8.3,8.3,0,0,0-1.306.817,2.5,2.5,0,0,1-.364.26,8.083,8.083,0,0,0-1.01.924A10.643,10.643,0,0,0,84.338,19.1a10.821,10.821,0,0,0,4.943,7.063,10.079,10.079,0,0,0,12.441-1.711,10.981,10.981,0,0,0,2.74-9.486,8.916,8.916,0,0,0-1.276-3.352c-.188-.287-.429-.672-.534-.857A11.6,11.6,0,0,0,100.4,8.517,10.357,10.357,0,0,0,92.664,6.735Zm28.981-.065A2.965,2.965,0,0,0,119.7,8.48l-.19.531v2.607c0,2.535,0,2.62.169,3.091a2.962,2.962,0,0,0,5.423.335c.33-.675.349-.886.324-3.614L125.4,8.862l-.225-.484A3.05,3.05,0,0,0,121.645,6.67Zm1.293,3.153.248.253V12c0,1.694-.015,1.95-.124,2.112a.625.625,0,0,1-1.084.117l-.247-.253v-3.9l.247-.253a.581.581,0,0,1,.96,0ZM11.669,10.831a6.431,6.431,0,0,1,3.506,10.1,5.658,5.658,0,0,1-1.632,1.557,6.192,6.192,0,0,1-8.106-1.3C1.544,16.615,5.933,9.321,11.669,10.831Zm23.225,0a6.454,6.454,0,0,1,4.073,3.573l.25.6H27.371l.1-.286a5.715,5.715,0,0,1,1.023-1.762A3.956,3.956,0,0,0,28.8,12.6,6.315,6.315,0,0,1,34.895,10.835Zm61.116.039a5.654,5.654,0,0,1,2.817,1.7c4.434,4.591.272,12.166-5.887,10.714a5.423,5.423,0,0,1-2.579-1.35,6.473,6.473,0,0,1-1.954-6.55A6.206,6.206,0,0,1,96.011,10.875Zm33.913,4.981a.847.847,0,0,1,.247.415,8.657,8.657,0,0,1-1.012,2.609c-.026.02-.251.305-.5.633a5.749,5.749,0,0,1-.7.782c-.134.1-.484.375-.78.606a7.61,7.61,0,0,1-3.012,1.369,8.476,8.476,0,0,1-6.176-1.135,8.4,8.4,0,0,1-2.481-2.627,7.17,7.17,0,0,0-.3-.675c-.63-1.288-.528-1.969.295-1.969.414,0,.575.161.771.772a5.9,5.9,0,0,0,.4.927,3.168,3.168,0,0,1,.245.492,6.94,6.94,0,0,0,2.124,2.042c3.841,1.944,8.28.38,9.48-3.339Q129.1,15.006,129.923,15.856Z" transform="translate(0 0)" fill="#fff"/>
</svg>
