<svg id="Frame" xmlns="http://www.w3.org/2000/svg" width="138.387" height="27.575" viewBox="0 0 138.387 27.575">
  <path id="Vector" d="M16.933.192c-.135.15-.142.346-.161,4.32-.012,2.524-.048,4.163-.09,4.163a.45.45,0,0,1-.2-.14,9.2,9.2,0,0,0-1.513-.945,11.581,11.581,0,0,0-5.94-.928,11.793,11.793,0,0,0-4.166,1.49,7.753,7.753,0,0,1-.667.47,13.2,13.2,0,0,0-2.186,2.128,4.4,4.4,0,0,1-.419.691A9.131,9.131,0,0,0,.175,14.97a12.489,12.489,0,0,0,.353,5.549,9.158,9.158,0,0,0,1.421,2.669.116.116,0,0,1,.06.1,9.271,9.271,0,0,0,2.3,2.327A10.706,10.706,0,0,0,13.836,27a13.97,13.97,0,0,0,2.613-1.341l.269-.224.037.853c.034.773.054.871.216,1.044l.18.192H18.8c1.51,0,1.661-.012,1.821-.143l.175-.142V14.607c0-11.129-.013-12.642-.111-12.737a4.532,4.532,0,0,0-.63-.384,5.129,5.129,0,0,1-.667-.407C18.435.242,17.267-.179,16.933.192ZM79.2.172c-.1.116-.122.333-.122,1.473,0,1.524-.005,1.507.609,1.9a5.364,5.364,0,0,1,.531.379,3.532,3.532,0,0,0,.556.342,10.314,10.314,0,0,1,.92.562c.664.457,1.057.471,1.276.044a21.823,21.823,0,0,0,0-4.616l-.113-.22H81.083C79.468.035,79.308.047,79.2.172ZM122.979.086a14.409,14.409,0,0,0-3.727,1.126,4.116,4.116,0,0,1-.626.265,15.843,15.843,0,0,0-2.383,1.6,15.721,15.721,0,0,0-2.861,3.176,9.058,9.058,0,0,1-.662,1.12,16.333,16.333,0,0,0-.969,2.349c-.667,2.269-.666,2.258-.666,9.186v6l.179.5a2.676,2.676,0,0,0,.357.692,3.285,3.285,0,0,1,.3.391,3.3,3.3,0,0,0,1.407.9c.605.189,11.646.21,12.951.024a15.014,15.014,0,0,0,6.113-2.388,4.839,4.839,0,0,1,.6-.4,7.027,7.027,0,0,0,.842-.724c.381-.363.723-.672.759-.686a7.551,7.551,0,0,0,.639-.742c.316-.394.644-.795.733-.889a4.554,4.554,0,0,0,.433-.71,5.249,5.249,0,0,1,.374-.65,7.948,7.948,0,0,0,.463-.9,14.135,14.135,0,0,0,.128-10.911,9.652,9.652,0,0,0-.519-1.079,4.965,4.965,0,0,1-.364-.645,14.525,14.525,0,0,0-3.564-3.966c-.2-.14-.537-.378-.741-.53A14.5,14.5,0,0,0,122.979.086Zm2.815,5.13A4.723,4.723,0,0,1,129.127,8.6a32.116,32.116,0,0,1-.044,6.216,3.787,3.787,0,0,1-.569,1.25,4.831,4.831,0,0,1-2.632,1.959,4.566,4.566,0,0,1-5.446-2.955,31.628,31.628,0,0,1-.167-6.174A4.5,4.5,0,0,1,125.794,5.216ZM33.019,6.563a11.476,11.476,0,0,0-4.979,1.774,3.441,3.441,0,0,1-.537.374,10.964,10.964,0,0,0-2.4,2.646,10.109,10.109,0,0,0-1.6,5.675,10.426,10.426,0,0,0,17.337,7.856c2.286-2.045,2.378-2.5.584-2.907-.5-.114-1.223-.289-1.6-.388-1.019-.269-1.195-.252-1.662.166a6.237,6.237,0,0,1-7.73.589,6.317,6.317,0,0,1-2.445-2.992l-.1-.328H43.86L44.1,18.8l.24-.225L44.3,17.073a15.228,15.228,0,0,0-.148-1.991l-.229-1.043a10.072,10.072,0,0,0-1.17-2.57,2.882,2.882,0,0,1-.309-.521A11.633,11.633,0,0,0,40.282,8.71c-.2-.132-.5-.341-.648-.464A11.19,11.19,0,0,0,33.019,6.563Zm21.563.1a7.881,7.881,0,0,0-2.043.486.956.956,0,0,1-.326.109c-.934,0-3.295,2.241-4.189,3.976-1.09,2.115-1.12,2.394-1.095,9.9l.021,6.021.208.18a9.464,9.464,0,0,0,3.568.064c.3-.2.3-.2.337-6.736L51.1,14.3l.227-.563a6.067,6.067,0,0,1,.642-1.117,3.388,3.388,0,0,1,1.761-1.513,3.385,3.385,0,0,1,3.481.143,4.672,4.672,0,0,0,.586.331A6.076,6.076,0,0,1,59.4,13.992c.3.969.328,1.489.328,7.5,0,5.635,0,5.7.152,5.866a8.206,8.206,0,0,0,3.606-.017l.208-.18.04-6.245.041-6.245.229-.707c1.418-4.387,6.6-4.307,8.154.126l.2.581.038,6.3c.032,5.189.056,6.323.14,6.424a10.115,10.115,0,0,0,3.7-.05l.161-.172V20.918c0-7.053.009-6.911-.554-8.553a8.606,8.606,0,0,0-2.41-3.657,5.745,5.745,0,0,1-.581-.462A8.271,8.271,0,0,0,66.3,6.818a8.032,8.032,0,0,0-4.067,2.317l-.571.581-.318-.375A8.15,8.15,0,0,0,54.583,6.665Zm24.955-.023c-.5.1-.465-.718-.465,10.492V27.212l.2.155a13.514,13.514,0,0,0,3.469.108c.347-.134.337.179.337-10.381,0-10.834.023-10.264-.416-10.431A23.958,23.958,0,0,0,79.538,6.643Zm14.837.093a12.743,12.743,0,0,0-2.856.9,8.48,8.48,0,0,0-1.33.817,2.545,2.545,0,0,1-.371.26,8.181,8.181,0,0,0-1.029.924A10.518,10.518,0,0,0,85.895,19.1a10.826,10.826,0,0,0,5.034,7.063,10.383,10.383,0,0,0,1.911.868,10.522,10.522,0,0,0,10.76-2.579,10.846,10.846,0,0,0,2.79-9.486,8.822,8.822,0,0,0-1.3-3.352c-.192-.287-.437-.672-.544-.857a11.7,11.7,0,0,0-2.3-2.245A10.7,10.7,0,0,0,94.375,6.735Zm29.516-.065a3,3,0,0,0-1.979,1.81l-.194.531v2.607c0,2.535.005,2.62.172,3.091a3.039,3.039,0,0,0,5.523.335c.336-.675.355-.886.33-3.614l-.023-2.568-.229-.484A3.123,3.123,0,0,0,123.891,6.67Zm1.317,3.153.253.253V12c0,1.694-.015,1.95-.126,2.112a.642.642,0,0,1-1.1.117l-.252-.253v-3.9l.252-.253a.6.6,0,0,1,.978,0ZM11.885,10.831a6.393,6.393,0,0,1,3.571,10.1,5.717,5.717,0,0,1-1.662,1.557,6.387,6.387,0,0,1-8.255-1.3C1.573,16.615,6.042,9.321,11.885,10.831Zm23.654,0a6.536,6.536,0,0,1,4.149,3.573l.255.6H27.876l.1-.286a5.692,5.692,0,0,1,1.042-1.762,3.976,3.976,0,0,0,.317-.363C30.484,11.086,33.545,10.218,35.539,10.835Zm62.244.039a5.779,5.779,0,0,1,2.869,1.7,6.382,6.382,0,0,1-6,10.714,5.561,5.561,0,0,1-2.626-1.35,6.4,6.4,0,0,1-1.99-6.55A6.331,6.331,0,0,1,97.783,10.875Zm34.539,4.981a.843.843,0,0,1,.252.415,8.564,8.564,0,0,1-1.031,2.609c-.026.02-.256.305-.512.633a5.787,5.787,0,0,1-.71.782c-.137.1-.493.375-.794.606a7.816,7.816,0,0,1-3.067,1.369,8.766,8.766,0,0,1-6.29-1.135,8.456,8.456,0,0,1-2.526-2.627,7.1,7.1,0,0,0-.3-.675c-.641-1.288-.538-1.969.3-1.969.422,0,.585.161.785.772a5.843,5.843,0,0,0,.411.927,3.144,3.144,0,0,1,.25.492,7.009,7.009,0,0,0,2.163,2.042c3.911,1.944,8.433.38,9.655-3.339Q131.481,15.006,132.322,15.856Z" transform="translate(0 0)" fill="#28293e"/>
  <path id="Vector-2" data-name="Vector" d="M16.933.192c-.135.15-.142.346-.161,4.32-.012,2.524-.048,4.163-.09,4.163a.45.45,0,0,1-.2-.14,9.2,9.2,0,0,0-1.513-.945,11.581,11.581,0,0,0-5.94-.928,11.793,11.793,0,0,0-4.166,1.49,7.753,7.753,0,0,1-.667.47,13.2,13.2,0,0,0-2.186,2.128,4.4,4.4,0,0,1-.419.691A9.131,9.131,0,0,0,.175,14.97a12.489,12.489,0,0,0,.353,5.549,9.158,9.158,0,0,0,1.421,2.669.116.116,0,0,1,.06.1,9.271,9.271,0,0,0,2.3,2.327A10.706,10.706,0,0,0,13.836,27a13.97,13.97,0,0,0,2.613-1.341l.269-.224.037.853c.034.773.054.871.216,1.044l.18.192H18.8c1.51,0,1.661-.012,1.821-.143l.175-.142V14.607c0-11.129-.013-12.642-.111-12.737a4.532,4.532,0,0,0-.63-.384,5.129,5.129,0,0,1-.667-.407C18.435.242,17.267-.179,16.933.192ZM79.2.172c-.1.116-.122.333-.122,1.473,0,1.524-.005,1.507.609,1.9a5.364,5.364,0,0,1,.531.379,3.532,3.532,0,0,0,.556.342,10.314,10.314,0,0,1,.92.562c.664.457,1.057.471,1.276.044a21.823,21.823,0,0,0,0-4.616l-.113-.22H81.083C79.468.035,79.308.047,79.2.172ZM122.979.086a14.409,14.409,0,0,0-3.727,1.126,4.116,4.116,0,0,1-.626.265,15.843,15.843,0,0,0-2.383,1.6,15.721,15.721,0,0,0-2.861,3.176,9.058,9.058,0,0,1-.662,1.12,16.333,16.333,0,0,0-.969,2.349c-.667,2.269-.666,2.258-.666,9.186v6l.179.5a2.676,2.676,0,0,0,.357.692,3.285,3.285,0,0,1,.3.391,3.3,3.3,0,0,0,1.407.9c.605.189,11.646.21,12.951.024a15.014,15.014,0,0,0,6.113-2.388,4.839,4.839,0,0,1,.6-.4,7.027,7.027,0,0,0,.842-.724c.381-.363.723-.672.759-.686a7.551,7.551,0,0,0,.639-.742c.316-.394.644-.795.733-.889a4.554,4.554,0,0,0,.433-.71,5.249,5.249,0,0,1,.374-.65,7.948,7.948,0,0,0,.463-.9,14.135,14.135,0,0,0,.128-10.911,9.652,9.652,0,0,0-.519-1.079,4.965,4.965,0,0,1-.364-.645,14.525,14.525,0,0,0-3.564-3.966c-.2-.14-.537-.378-.741-.53A14.5,14.5,0,0,0,122.979.086Zm2.815,5.13A4.723,4.723,0,0,1,129.127,8.6a32.116,32.116,0,0,1-.044,6.216,3.787,3.787,0,0,1-.569,1.25,4.831,4.831,0,0,1-2.632,1.959,4.566,4.566,0,0,1-5.446-2.955,31.628,31.628,0,0,1-.167-6.174A4.5,4.5,0,0,1,125.794,5.216ZM33.019,6.563a11.476,11.476,0,0,0-4.979,1.774,3.441,3.441,0,0,1-.537.374,10.964,10.964,0,0,0-2.4,2.646,10.109,10.109,0,0,0-1.6,5.675,10.426,10.426,0,0,0,17.337,7.856c2.286-2.045,2.378-2.5.584-2.907-.5-.114-1.223-.289-1.6-.388-1.019-.269-1.195-.252-1.662.166a6.237,6.237,0,0,1-7.73.589,6.317,6.317,0,0,1-2.445-2.992l-.1-.328H43.86L44.1,18.8l.24-.225L44.3,17.073a15.228,15.228,0,0,0-.148-1.991l-.229-1.043a10.072,10.072,0,0,0-1.17-2.57,2.882,2.882,0,0,1-.309-.521A11.633,11.633,0,0,0,40.282,8.71c-.2-.132-.5-.341-.648-.464A11.19,11.19,0,0,0,33.019,6.563Zm21.563.1a7.881,7.881,0,0,0-2.043.486.956.956,0,0,1-.326.109c-.934,0-3.295,2.241-4.189,3.976-1.09,2.115-1.12,2.394-1.095,9.9l.021,6.021.208.18a9.464,9.464,0,0,0,3.568.064c.3-.2.3-.2.337-6.736L51.1,14.3l.227-.563a6.067,6.067,0,0,1,.642-1.117,3.388,3.388,0,0,1,1.761-1.513,3.385,3.385,0,0,1,3.481.143,4.672,4.672,0,0,0,.586.331A6.076,6.076,0,0,1,59.4,13.992c.3.969.328,1.489.328,7.5,0,5.635,0,5.7.152,5.866a8.206,8.206,0,0,0,3.606-.017l.208-.18.04-6.245.041-6.245.229-.707c1.418-4.387,6.6-4.307,8.154.126l.2.581.038,6.3c.032,5.189.056,6.323.14,6.424a10.115,10.115,0,0,0,3.7-.05l.161-.172V20.918c0-7.053.009-6.911-.554-8.553a8.606,8.606,0,0,0-2.41-3.657,5.745,5.745,0,0,1-.581-.462A8.271,8.271,0,0,0,66.3,6.818a8.032,8.032,0,0,0-4.067,2.317l-.571.581-.318-.375A8.15,8.15,0,0,0,54.583,6.665Zm24.955-.023c-.5.1-.465-.718-.465,10.492V27.212l.2.155a13.514,13.514,0,0,0,3.469.108c.347-.134.337.179.337-10.381,0-10.834.023-10.264-.416-10.431A23.958,23.958,0,0,0,79.538,6.643Zm14.837.093a12.743,12.743,0,0,0-2.856.9,8.48,8.48,0,0,0-1.33.817,2.545,2.545,0,0,1-.371.26,8.181,8.181,0,0,0-1.029.924A10.518,10.518,0,0,0,85.895,19.1a10.826,10.826,0,0,0,5.034,7.063,10.383,10.383,0,0,0,1.911.868,10.522,10.522,0,0,0,10.76-2.579,10.846,10.846,0,0,0,2.79-9.486,8.822,8.822,0,0,0-1.3-3.352c-.192-.287-.437-.672-.544-.857a11.7,11.7,0,0,0-2.3-2.245A10.7,10.7,0,0,0,94.375,6.735Zm29.516-.065a3,3,0,0,0-1.979,1.81l-.194.531v2.607c0,2.535.005,2.62.172,3.091a3.039,3.039,0,0,0,5.523.335c.336-.675.355-.886.33-3.614l-.023-2.568-.229-.484A3.123,3.123,0,0,0,123.891,6.67Zm1.317,3.153.253.253V12c0,1.694-.015,1.95-.126,2.112a.642.642,0,0,1-1.1.117l-.252-.253v-3.9l.252-.253a.6.6,0,0,1,.978,0ZM11.885,10.831a6.393,6.393,0,0,1,3.571,10.1,5.717,5.717,0,0,1-1.662,1.557,6.387,6.387,0,0,1-8.255-1.3C1.573,16.615,6.042,9.321,11.885,10.831Zm23.654,0a6.536,6.536,0,0,1,4.149,3.573l.255.6H27.876l.1-.286a5.692,5.692,0,0,1,1.042-1.762,3.976,3.976,0,0,0,.317-.363C30.484,11.086,33.545,10.218,35.539,10.835Zm62.244.039a5.779,5.779,0,0,1,2.869,1.7,6.382,6.382,0,0,1-6,10.714,5.561,5.561,0,0,1-2.626-1.35,6.4,6.4,0,0,1-1.99-6.55A6.331,6.331,0,0,1,97.783,10.875Zm34.539,4.981a.843.843,0,0,1,.252.415,8.564,8.564,0,0,1-1.031,2.609c-.026.02-.256.305-.512.633a5.787,5.787,0,0,1-.71.782c-.137.1-.493.375-.794.606a7.816,7.816,0,0,1-3.067,1.369,8.766,8.766,0,0,1-6.29-1.135,8.456,8.456,0,0,1-2.526-2.627,7.1,7.1,0,0,0-.3-.675c-.641-1.288-.538-1.969.3-1.969.422,0,.585.161.785.772a5.843,5.843,0,0,0,.411.927,3.144,3.144,0,0,1,.25.492,7.009,7.009,0,0,0,2.163,2.042c3.911,1.944,8.433.38,9.655-3.339Q131.481,15.006,132.322,15.856Z" transform="translate(0 0)" fill="#28293e"/>
  <path id="Vector-3" data-name="Vector" d="M16.933.192c-.135.15-.142.346-.161,4.32-.012,2.524-.048,4.163-.09,4.163a.45.45,0,0,1-.2-.14,9.2,9.2,0,0,0-1.513-.945,11.581,11.581,0,0,0-5.94-.928,11.793,11.793,0,0,0-4.166,1.49,7.753,7.753,0,0,1-.667.47,13.2,13.2,0,0,0-2.186,2.128,4.4,4.4,0,0,1-.419.691A9.131,9.131,0,0,0,.175,14.97a12.489,12.489,0,0,0,.353,5.549,9.158,9.158,0,0,0,1.421,2.669.116.116,0,0,1,.06.1,9.271,9.271,0,0,0,2.3,2.327A10.706,10.706,0,0,0,13.836,27a13.97,13.97,0,0,0,2.613-1.341l.269-.224.037.853c.034.773.054.871.216,1.044l.18.192H18.8c1.51,0,1.661-.012,1.821-.143l.175-.142V14.607c0-11.129-.013-12.642-.111-12.737a4.532,4.532,0,0,0-.63-.384,5.129,5.129,0,0,1-.667-.407C18.435.242,17.267-.179,16.933.192ZM79.2.172c-.1.116-.122.333-.122,1.473,0,1.524-.005,1.507.609,1.9a5.364,5.364,0,0,1,.531.379,3.532,3.532,0,0,0,.556.342,10.314,10.314,0,0,1,.92.562c.664.457,1.057.471,1.276.044a21.823,21.823,0,0,0,0-4.616l-.113-.22H81.083C79.468.035,79.308.047,79.2.172ZM122.979.086a14.409,14.409,0,0,0-3.727,1.126,4.116,4.116,0,0,1-.626.265,15.843,15.843,0,0,0-2.383,1.6,15.721,15.721,0,0,0-2.861,3.176,9.058,9.058,0,0,1-.662,1.12,16.333,16.333,0,0,0-.969,2.349c-.667,2.269-.666,2.258-.666,9.186v6l.179.5a2.676,2.676,0,0,0,.357.692,3.285,3.285,0,0,1,.3.391,3.3,3.3,0,0,0,1.407.9c.605.189,11.646.21,12.951.024a15.014,15.014,0,0,0,6.113-2.388,4.839,4.839,0,0,1,.6-.4,7.027,7.027,0,0,0,.842-.724c.381-.363.723-.672.759-.686a7.551,7.551,0,0,0,.639-.742c.316-.394.644-.795.733-.889a4.554,4.554,0,0,0,.433-.71,5.249,5.249,0,0,1,.374-.65,7.948,7.948,0,0,0,.463-.9,14.135,14.135,0,0,0,.128-10.911,9.652,9.652,0,0,0-.519-1.079,4.965,4.965,0,0,1-.364-.645,14.525,14.525,0,0,0-3.564-3.966c-.2-.14-.537-.378-.741-.53A14.5,14.5,0,0,0,122.979.086Zm2.815,5.13A4.723,4.723,0,0,1,129.127,8.6a32.116,32.116,0,0,1-.044,6.216,3.787,3.787,0,0,1-.569,1.25,4.831,4.831,0,0,1-2.632,1.959,4.566,4.566,0,0,1-5.446-2.955,31.628,31.628,0,0,1-.167-6.174A4.5,4.5,0,0,1,125.794,5.216ZM33.019,6.563a11.476,11.476,0,0,0-4.979,1.774,3.441,3.441,0,0,1-.537.374,10.964,10.964,0,0,0-2.4,2.646,10.109,10.109,0,0,0-1.6,5.675,10.426,10.426,0,0,0,17.337,7.856c2.286-2.045,2.378-2.5.584-2.907-.5-.114-1.223-.289-1.6-.388-1.019-.269-1.195-.252-1.662.166a6.237,6.237,0,0,1-7.73.589,6.317,6.317,0,0,1-2.445-2.992l-.1-.328H43.86L44.1,18.8l.24-.225L44.3,17.073a15.228,15.228,0,0,0-.148-1.991l-.229-1.043a10.072,10.072,0,0,0-1.17-2.57,2.882,2.882,0,0,1-.309-.521A11.633,11.633,0,0,0,40.282,8.71c-.2-.132-.5-.341-.648-.464A11.19,11.19,0,0,0,33.019,6.563Zm21.563.1a7.881,7.881,0,0,0-2.043.486.956.956,0,0,1-.326.109c-.934,0-3.295,2.241-4.189,3.976-1.09,2.115-1.12,2.394-1.095,9.9l.021,6.021.208.18a9.464,9.464,0,0,0,3.568.064c.3-.2.3-.2.337-6.736L51.1,14.3l.227-.563a6.067,6.067,0,0,1,.642-1.117,3.388,3.388,0,0,1,1.761-1.513,3.385,3.385,0,0,1,3.481.143,4.672,4.672,0,0,0,.586.331A6.076,6.076,0,0,1,59.4,13.992c.3.969.328,1.489.328,7.5,0,5.635,0,5.7.152,5.866a8.206,8.206,0,0,0,3.606-.017l.208-.18.04-6.245.041-6.245.229-.707c1.418-4.387,6.6-4.307,8.154.126l.2.581.038,6.3c.032,5.189.056,6.323.14,6.424a10.115,10.115,0,0,0,3.7-.05l.161-.172V20.918c0-7.053.009-6.911-.554-8.553a8.606,8.606,0,0,0-2.41-3.657,5.745,5.745,0,0,1-.581-.462A8.271,8.271,0,0,0,66.3,6.818a8.032,8.032,0,0,0-4.067,2.317l-.571.581-.318-.375A8.15,8.15,0,0,0,54.583,6.665Zm24.955-.023c-.5.1-.465-.718-.465,10.492V27.212l.2.155a13.514,13.514,0,0,0,3.469.108c.347-.134.337.179.337-10.381,0-10.834.023-10.264-.416-10.431A23.958,23.958,0,0,0,79.538,6.643Zm14.837.093a12.743,12.743,0,0,0-2.856.9,8.48,8.48,0,0,0-1.33.817,2.545,2.545,0,0,1-.371.26,8.181,8.181,0,0,0-1.029.924A10.518,10.518,0,0,0,85.895,19.1a10.826,10.826,0,0,0,5.034,7.063,10.383,10.383,0,0,0,1.911.868,10.522,10.522,0,0,0,10.76-2.579,10.846,10.846,0,0,0,2.79-9.486,8.822,8.822,0,0,0-1.3-3.352c-.192-.287-.437-.672-.544-.857a11.7,11.7,0,0,0-2.3-2.245A10.7,10.7,0,0,0,94.375,6.735Zm29.516-.065a3,3,0,0,0-1.979,1.81l-.194.531v2.607c0,2.535.005,2.62.172,3.091a3.039,3.039,0,0,0,5.523.335c.336-.675.355-.886.33-3.614l-.023-2.568-.229-.484A3.123,3.123,0,0,0,123.891,6.67Zm1.317,3.153.253.253V12c0,1.694-.015,1.95-.126,2.112a.642.642,0,0,1-1.1.117l-.252-.253v-3.9l.252-.253a.6.6,0,0,1,.978,0ZM11.885,10.831a6.393,6.393,0,0,1,3.571,10.1,5.717,5.717,0,0,1-1.662,1.557,6.387,6.387,0,0,1-8.255-1.3C1.573,16.615,6.042,9.321,11.885,10.831Zm23.654,0a6.536,6.536,0,0,1,4.149,3.573l.255.6H27.876l.1-.286a5.692,5.692,0,0,1,1.042-1.762,3.976,3.976,0,0,0,.317-.363C30.484,11.086,33.545,10.218,35.539,10.835Zm62.244.039a5.779,5.779,0,0,1,2.869,1.7,6.382,6.382,0,0,1-6,10.714,5.561,5.561,0,0,1-2.626-1.35,6.4,6.4,0,0,1-1.99-6.55A6.331,6.331,0,0,1,97.783,10.875Zm34.539,4.981a.843.843,0,0,1,.252.415,8.564,8.564,0,0,1-1.031,2.609c-.026.02-.256.305-.512.633a5.787,5.787,0,0,1-.71.782c-.137.1-.493.375-.794.606a7.816,7.816,0,0,1-3.067,1.369,8.766,8.766,0,0,1-6.29-1.135,8.456,8.456,0,0,1-2.526-2.627,7.1,7.1,0,0,0-.3-.675c-.641-1.288-.538-1.969.3-1.969.422,0,.585.161.785.772a5.843,5.843,0,0,0,.411.927,3.144,3.144,0,0,1,.25.492,7.009,7.009,0,0,0,2.163,2.042c3.911,1.944,8.433.38,9.655-3.339Q131.481,15.006,132.322,15.856Z" transform="translate(0 0)" fill="#28293e"/>
  <path id="Vector-4" data-name="Vector" d="M16.933.192c-.135.15-.142.346-.161,4.32-.012,2.524-.048,4.163-.09,4.163a.45.45,0,0,1-.2-.14,9.2,9.2,0,0,0-1.513-.945,11.581,11.581,0,0,0-5.94-.928,11.793,11.793,0,0,0-4.166,1.49,7.753,7.753,0,0,1-.667.47,13.2,13.2,0,0,0-2.186,2.128,4.4,4.4,0,0,1-.419.691A9.131,9.131,0,0,0,.175,14.97a12.489,12.489,0,0,0,.353,5.549,9.158,9.158,0,0,0,1.421,2.669.116.116,0,0,1,.06.1,9.271,9.271,0,0,0,2.3,2.327A10.706,10.706,0,0,0,13.836,27a13.97,13.97,0,0,0,2.613-1.341l.269-.224.037.853c.034.773.054.871.216,1.044l.18.192H18.8c1.51,0,1.661-.012,1.821-.143l.175-.142V14.607c0-11.129-.013-12.642-.111-12.737a4.532,4.532,0,0,0-.63-.384,5.129,5.129,0,0,1-.667-.407C18.435.242,17.267-.179,16.933.192ZM79.2.172c-.1.116-.122.333-.122,1.473,0,1.524-.005,1.507.609,1.9a5.364,5.364,0,0,1,.531.379,3.532,3.532,0,0,0,.556.342,10.314,10.314,0,0,1,.92.562c.664.457,1.057.471,1.276.044a21.823,21.823,0,0,0,0-4.616l-.113-.22H81.083C79.468.035,79.308.047,79.2.172ZM122.979.086a14.409,14.409,0,0,0-3.727,1.126,4.116,4.116,0,0,1-.626.265,15.843,15.843,0,0,0-2.383,1.6,15.721,15.721,0,0,0-2.861,3.176,9.058,9.058,0,0,1-.662,1.12,16.333,16.333,0,0,0-.969,2.349c-.667,2.269-.666,2.258-.666,9.186v6l.179.5a2.676,2.676,0,0,0,.357.692,3.285,3.285,0,0,1,.3.391,3.3,3.3,0,0,0,1.407.9c.605.189,11.646.21,12.951.024a15.014,15.014,0,0,0,6.113-2.388,4.839,4.839,0,0,1,.6-.4,7.027,7.027,0,0,0,.842-.724c.381-.363.723-.672.759-.686a7.551,7.551,0,0,0,.639-.742c.316-.394.644-.795.733-.889a4.554,4.554,0,0,0,.433-.71,5.249,5.249,0,0,1,.374-.65,7.948,7.948,0,0,0,.463-.9,14.135,14.135,0,0,0,.128-10.911,9.652,9.652,0,0,0-.519-1.079,4.965,4.965,0,0,1-.364-.645,14.525,14.525,0,0,0-3.564-3.966c-.2-.14-.537-.378-.741-.53A14.5,14.5,0,0,0,122.979.086Zm2.815,5.13A4.723,4.723,0,0,1,129.127,8.6a32.116,32.116,0,0,1-.044,6.216,3.787,3.787,0,0,1-.569,1.25,4.831,4.831,0,0,1-2.632,1.959,4.566,4.566,0,0,1-5.446-2.955,31.628,31.628,0,0,1-.167-6.174A4.5,4.5,0,0,1,125.794,5.216ZM33.019,6.563a11.476,11.476,0,0,0-4.979,1.774,3.441,3.441,0,0,1-.537.374,10.964,10.964,0,0,0-2.4,2.646,10.109,10.109,0,0,0-1.6,5.675,10.426,10.426,0,0,0,17.337,7.856c2.286-2.045,2.378-2.5.584-2.907-.5-.114-1.223-.289-1.6-.388-1.019-.269-1.195-.252-1.662.166a6.237,6.237,0,0,1-7.73.589,6.317,6.317,0,0,1-2.445-2.992l-.1-.328H43.86L44.1,18.8l.24-.225L44.3,17.073a15.228,15.228,0,0,0-.148-1.991l-.229-1.043a10.072,10.072,0,0,0-1.17-2.57,2.882,2.882,0,0,1-.309-.521A11.633,11.633,0,0,0,40.282,8.71c-.2-.132-.5-.341-.648-.464A11.19,11.19,0,0,0,33.019,6.563Zm21.563.1a7.881,7.881,0,0,0-2.043.486.956.956,0,0,1-.326.109c-.934,0-3.295,2.241-4.189,3.976-1.09,2.115-1.12,2.394-1.095,9.9l.021,6.021.208.18a9.464,9.464,0,0,0,3.568.064c.3-.2.3-.2.337-6.736L51.1,14.3l.227-.563a6.067,6.067,0,0,1,.642-1.117,3.388,3.388,0,0,1,1.761-1.513,3.385,3.385,0,0,1,3.481.143,4.672,4.672,0,0,0,.586.331A6.076,6.076,0,0,1,59.4,13.992c.3.969.328,1.489.328,7.5,0,5.635,0,5.7.152,5.866a8.206,8.206,0,0,0,3.606-.017l.208-.18.04-6.245.041-6.245.229-.707c1.418-4.387,6.6-4.307,8.154.126l.2.581.038,6.3c.032,5.189.056,6.323.14,6.424a10.115,10.115,0,0,0,3.7-.05l.161-.172V20.918c0-7.053.009-6.911-.554-8.553a8.606,8.606,0,0,0-2.41-3.657,5.745,5.745,0,0,1-.581-.462A8.271,8.271,0,0,0,66.3,6.818a8.032,8.032,0,0,0-4.067,2.317l-.571.581-.318-.375A8.15,8.15,0,0,0,54.583,6.665Zm24.955-.023c-.5.1-.465-.718-.465,10.492V27.212l.2.155a13.514,13.514,0,0,0,3.469.108c.347-.134.337.179.337-10.381,0-10.834.023-10.264-.416-10.431A23.958,23.958,0,0,0,79.538,6.643Zm14.837.093a12.743,12.743,0,0,0-2.856.9,8.48,8.48,0,0,0-1.33.817,2.545,2.545,0,0,1-.371.26,8.181,8.181,0,0,0-1.029.924A10.518,10.518,0,0,0,85.895,19.1a10.826,10.826,0,0,0,5.034,7.063,10.383,10.383,0,0,0,1.911.868,10.522,10.522,0,0,0,10.76-2.579,10.846,10.846,0,0,0,2.79-9.486,8.822,8.822,0,0,0-1.3-3.352c-.192-.287-.437-.672-.544-.857a11.7,11.7,0,0,0-2.3-2.245A10.7,10.7,0,0,0,94.375,6.735Zm29.516-.065a3,3,0,0,0-1.979,1.81l-.194.531v2.607c0,2.535.005,2.62.172,3.091a3.039,3.039,0,0,0,5.523.335c.336-.675.355-.886.33-3.614l-.023-2.568-.229-.484A3.123,3.123,0,0,0,123.891,6.67Zm1.317,3.153.253.253V12c0,1.694-.015,1.95-.126,2.112a.642.642,0,0,1-1.1.117l-.252-.253v-3.9l.252-.253a.6.6,0,0,1,.978,0ZM11.885,10.831a6.393,6.393,0,0,1,3.571,10.1,5.717,5.717,0,0,1-1.662,1.557,6.387,6.387,0,0,1-8.255-1.3C1.573,16.615,6.042,9.321,11.885,10.831Zm23.654,0a6.536,6.536,0,0,1,4.149,3.573l.255.6H27.876l.1-.286a5.692,5.692,0,0,1,1.042-1.762,3.976,3.976,0,0,0,.317-.363C30.484,11.086,33.545,10.218,35.539,10.835Zm62.244.039a5.779,5.779,0,0,1,2.869,1.7,6.382,6.382,0,0,1-6,10.714,5.561,5.561,0,0,1-2.626-1.35,6.4,6.4,0,0,1-1.99-6.55A6.331,6.331,0,0,1,97.783,10.875Zm34.539,4.981a.843.843,0,0,1,.252.415,8.564,8.564,0,0,1-1.031,2.609c-.026.02-.256.305-.512.633a5.787,5.787,0,0,1-.71.782c-.137.1-.493.375-.794.606a7.816,7.816,0,0,1-3.067,1.369,8.766,8.766,0,0,1-6.29-1.135,8.456,8.456,0,0,1-2.526-2.627,7.1,7.1,0,0,0-.3-.675c-.641-1.288-.538-1.969.3-1.969.422,0,.585.161.785.772a5.843,5.843,0,0,0,.411.927,3.144,3.144,0,0,1,.25.492,7.009,7.009,0,0,0,2.163,2.042c3.911,1.944,8.433.38,9.655-3.339Q131.481,15.006,132.322,15.856Z" transform="translate(0 0)" fill="#28293e"/>
  <path id="Vector-5" data-name="Vector" d="M16.933.192c-.135.15-.142.346-.161,4.32-.012,2.524-.048,4.163-.09,4.163a.45.45,0,0,1-.2-.14,9.2,9.2,0,0,0-1.513-.945,11.581,11.581,0,0,0-5.94-.928,11.793,11.793,0,0,0-4.166,1.49,7.753,7.753,0,0,1-.667.47,13.2,13.2,0,0,0-2.186,2.128,4.4,4.4,0,0,1-.419.691A9.131,9.131,0,0,0,.175,14.97a12.489,12.489,0,0,0,.353,5.549,9.158,9.158,0,0,0,1.421,2.669.116.116,0,0,1,.06.1,9.271,9.271,0,0,0,2.3,2.327A10.706,10.706,0,0,0,13.836,27a13.97,13.97,0,0,0,2.613-1.341l.269-.224.037.853c.034.773.054.871.216,1.044l.18.192H18.8c1.51,0,1.661-.012,1.821-.143l.175-.142V14.607c0-11.129-.013-12.642-.111-12.737a4.532,4.532,0,0,0-.63-.384,5.129,5.129,0,0,1-.667-.407C18.435.242,17.267-.179,16.933.192ZM79.2.172c-.1.116-.122.333-.122,1.473,0,1.524-.005,1.507.609,1.9a5.364,5.364,0,0,1,.531.379,3.532,3.532,0,0,0,.556.342,10.314,10.314,0,0,1,.92.562c.664.457,1.057.471,1.276.044a21.823,21.823,0,0,0,0-4.616l-.113-.22H81.083C79.468.035,79.308.047,79.2.172ZM122.979.086a14.409,14.409,0,0,0-3.727,1.126,4.116,4.116,0,0,1-.626.265,15.843,15.843,0,0,0-2.383,1.6,15.721,15.721,0,0,0-2.861,3.176,9.058,9.058,0,0,1-.662,1.12,16.333,16.333,0,0,0-.969,2.349c-.667,2.269-.666,2.258-.666,9.186v6l.179.5a2.676,2.676,0,0,0,.357.692,3.285,3.285,0,0,1,.3.391,3.3,3.3,0,0,0,1.407.9c.605.189,11.646.21,12.951.024a15.014,15.014,0,0,0,6.113-2.388,4.839,4.839,0,0,1,.6-.4,7.027,7.027,0,0,0,.842-.724c.381-.363.723-.672.759-.686a7.551,7.551,0,0,0,.639-.742c.316-.394.644-.795.733-.889a4.554,4.554,0,0,0,.433-.71,5.249,5.249,0,0,1,.374-.65,7.948,7.948,0,0,0,.463-.9,14.135,14.135,0,0,0,.128-10.911,9.652,9.652,0,0,0-.519-1.079,4.965,4.965,0,0,1-.364-.645,14.525,14.525,0,0,0-3.564-3.966c-.2-.14-.537-.378-.741-.53A14.5,14.5,0,0,0,122.979.086Zm2.815,5.13A4.723,4.723,0,0,1,129.127,8.6a32.116,32.116,0,0,1-.044,6.216,3.787,3.787,0,0,1-.569,1.25,4.831,4.831,0,0,1-2.632,1.959,4.566,4.566,0,0,1-5.446-2.955,31.628,31.628,0,0,1-.167-6.174A4.5,4.5,0,0,1,125.794,5.216ZM33.019,6.563a11.476,11.476,0,0,0-4.979,1.774,3.441,3.441,0,0,1-.537.374,10.964,10.964,0,0,0-2.4,2.646,10.109,10.109,0,0,0-1.6,5.675,10.426,10.426,0,0,0,17.337,7.856c2.286-2.045,2.378-2.5.584-2.907-.5-.114-1.223-.289-1.6-.388-1.019-.269-1.195-.252-1.662.166a6.237,6.237,0,0,1-7.73.589,6.317,6.317,0,0,1-2.445-2.992l-.1-.328H43.86L44.1,18.8l.24-.225L44.3,17.073a15.228,15.228,0,0,0-.148-1.991l-.229-1.043a10.072,10.072,0,0,0-1.17-2.57,2.882,2.882,0,0,1-.309-.521A11.633,11.633,0,0,0,40.282,8.71c-.2-.132-.5-.341-.648-.464A11.19,11.19,0,0,0,33.019,6.563Zm21.563.1a7.881,7.881,0,0,0-2.043.486.956.956,0,0,1-.326.109c-.934,0-3.295,2.241-4.189,3.976-1.09,2.115-1.12,2.394-1.095,9.9l.021,6.021.208.18a9.464,9.464,0,0,0,3.568.064c.3-.2.3-.2.337-6.736L51.1,14.3l.227-.563a6.067,6.067,0,0,1,.642-1.117,3.388,3.388,0,0,1,1.761-1.513,3.385,3.385,0,0,1,3.481.143,4.672,4.672,0,0,0,.586.331A6.076,6.076,0,0,1,59.4,13.992c.3.969.328,1.489.328,7.5,0,5.635,0,5.7.152,5.866a8.206,8.206,0,0,0,3.606-.017l.208-.18.04-6.245.041-6.245.229-.707c1.418-4.387,6.6-4.307,8.154.126l.2.581.038,6.3c.032,5.189.056,6.323.14,6.424a10.115,10.115,0,0,0,3.7-.05l.161-.172V20.918c0-7.053.009-6.911-.554-8.553a8.606,8.606,0,0,0-2.41-3.657,5.745,5.745,0,0,1-.581-.462A8.271,8.271,0,0,0,66.3,6.818a8.032,8.032,0,0,0-4.067,2.317l-.571.581-.318-.375A8.15,8.15,0,0,0,54.583,6.665Zm24.955-.023c-.5.1-.465-.718-.465,10.492V27.212l.2.155a13.514,13.514,0,0,0,3.469.108c.347-.134.337.179.337-10.381,0-10.834.023-10.264-.416-10.431A23.958,23.958,0,0,0,79.538,6.643Zm14.837.093a12.743,12.743,0,0,0-2.856.9,8.48,8.48,0,0,0-1.33.817,2.545,2.545,0,0,1-.371.26,8.181,8.181,0,0,0-1.029.924A10.518,10.518,0,0,0,85.895,19.1a10.826,10.826,0,0,0,5.034,7.063,10.383,10.383,0,0,0,1.911.868,10.522,10.522,0,0,0,10.76-2.579,10.846,10.846,0,0,0,2.79-9.486,8.822,8.822,0,0,0-1.3-3.352c-.192-.287-.437-.672-.544-.857a11.7,11.7,0,0,0-2.3-2.245A10.7,10.7,0,0,0,94.375,6.735Zm29.516-.065a3,3,0,0,0-1.979,1.81l-.194.531v2.607c0,2.535.005,2.62.172,3.091a3.039,3.039,0,0,0,5.523.335c.336-.675.355-.886.33-3.614l-.023-2.568-.229-.484A3.123,3.123,0,0,0,123.891,6.67Zm1.317,3.153.253.253V12c0,1.694-.015,1.95-.126,2.112a.642.642,0,0,1-1.1.117l-.252-.253v-3.9l.252-.253a.6.6,0,0,1,.978,0ZM11.885,10.831a6.393,6.393,0,0,1,3.571,10.1,5.717,5.717,0,0,1-1.662,1.557,6.387,6.387,0,0,1-8.255-1.3C1.573,16.615,6.042,9.321,11.885,10.831Zm23.654,0a6.536,6.536,0,0,1,4.149,3.573l.255.6H27.876l.1-.286a5.692,5.692,0,0,1,1.042-1.762,3.976,3.976,0,0,0,.317-.363C30.484,11.086,33.545,10.218,35.539,10.835Zm62.244.039a5.779,5.779,0,0,1,2.869,1.7,6.382,6.382,0,0,1-6,10.714,5.561,5.561,0,0,1-2.626-1.35,6.4,6.4,0,0,1-1.99-6.55A6.331,6.331,0,0,1,97.783,10.875Zm34.539,4.981a.843.843,0,0,1,.252.415,8.564,8.564,0,0,1-1.031,2.609c-.026.02-.256.305-.512.633a5.787,5.787,0,0,1-.71.782c-.137.1-.493.375-.794.606a7.816,7.816,0,0,1-3.067,1.369,8.766,8.766,0,0,1-6.29-1.135,8.456,8.456,0,0,1-2.526-2.627,7.1,7.1,0,0,0-.3-.675c-.641-1.288-.538-1.969.3-1.969.422,0,.585.161.785.772a5.843,5.843,0,0,0,.411.927,3.144,3.144,0,0,1,.25.492,7.009,7.009,0,0,0,2.163,2.042c3.911,1.944,8.433.38,9.655-3.339Q131.481,15.006,132.322,15.856Z" transform="translate(0 0)" fill="#28293e"/>
</svg>
