<svg xmlns="http://www.w3.org/2000/svg" width="29.15" height="29.15" viewBox="0 0 29.15 29.15">
  <g id="noun-play-button-3182766" transform="translate(-87.5 -17.496)">
    <path id="Path_495" data-name="Path 495" d="M102.075,17.5A14.575,14.575,0,1,0,116.65,32.071,14.589,14.589,0,0,0,102.075,17.5Zm0,1.944A12.631,12.631,0,1,1,89.444,32.071,12.616,12.616,0,0,1,102.075,19.44Z" fill="#fff"/>
    <path id="Path_496" data-name="Path 496" d="M149.388,69.945a.787.787,0,0,0,0,1.573,7.867,7.867,0,1,1-7.868,7.868.787.787,0,1,0-1.573,0,9.443,9.443,0,1,0,9.441-9.441Z" transform="translate(-47.313 -47.315)" fill="#f7cc47"/>
    <path id="Path_497" data-name="Path 497" d="M263.222,157.493a.787.787,0,0,0-.74.784v9.441a.787.787,0,0,0,1.193.674l7.865-4.721a.787.787,0,0,0,0-1.347l-7.865-4.721a.787.787,0,0,0-.453-.11Zm.833,2.174,5.551,3.33-5.551,3.33Z" transform="translate(-164.341 -130.926)" fill="#ef6d58"/>
  </g>
</svg>
