<svg id="icon" xmlns="http://www.w3.org/2000/svg" width="16.309" height="16.309" viewBox="0 0 16.309 16.309">
  <path id="Path_49" data-name="Path 49" d="M19.627,5.509A.628.628,0,0,1,19,4.882V3.627A.628.628,0,0,1,19.627,3h1.255a.628.628,0,0,1,.627.627V4.882a.628.628,0,0,1-.627.627Z" transform="translate(-7.082 -1.118)" fill="#fff"/>
  <path id="Path_50" data-name="Path 50" d="M11.579,9.188a2.376,2.376,0,0,0-1.238.353,1.184,1.184,0,0,1,.354-.058A1.213,1.213,0,1,1,9.483,10.7a1.2,1.2,0,0,1,.059-.354,2.365,2.365,0,0,0-.354,1.238,2.392,2.392,0,1,0,2.391-2.391Z" transform="translate(-3.425 -3.425)" fill="#fff"/>
  <g id="Group_65" data-name="Group 65" transform="translate(3.136 3.136)">
    <path id="Path_51" data-name="Path 51" d="M10.018,6.255a3.764,3.764,0,1,1-3.764,3.764,3.764,3.764,0,0,1,3.764-3.764m0-1.255a5.018,5.018,0,1,0,5.018,5.018A5.024,5.024,0,0,0,10.018,5Z" transform="translate(-5 -5)" fill="#fff"/>
  </g>
  <path id="Path_52" data-name="Path 52" d="M13.251,0H3.058A3.058,3.058,0,0,0,0,3.058V13.251a3.058,3.058,0,0,0,3.058,3.058H13.251a3.058,3.058,0,0,0,3.058-3.058V3.058A3.058,3.058,0,0,0,13.251,0Zm1.8,5.646h-4.1a3.764,3.764,0,1,1-5.6,0h-4.1V3.058a1.806,1.806,0,0,1,1.8-1.8H13.251a1.805,1.805,0,0,1,1.8,1.8Z" fill="#fff"/>
</svg>
