<svg xmlns="http://www.w3.org/2000/svg" width="81.896" height="138.811" viewBox="0 0 81.896 138.811">
  <g id="Group_6214" data-name="Group 6214" transform="translate(-936.164 -1163.191)">
    <path id="Combined_Shape" data-name="Combined Shape" d="M119.654,0a21.052,21.052,0,0,1,0,7.609,23.123,23.123,0,0,1-7.021,13.755,23.991,23.991,0,0,1-10.864,5.651,23.12,23.12,0,0,1-1.131,7.812,32.774,32.774,0,0,1-9.361,12.291A50.6,50.6,0,0,1,58.218,57.947a32.138,32.138,0,0,1-11.9-1.184,22.527,22.527,0,0,1-4.779,2.648A35.685,35.685,0,0,1,23.99,61.751,31.6,31.6,0,0,1,1.155,48.826l-.277.049v-.437Q.424,47.791,0,47.118H10.824L2.262,48.63a21.661,21.661,0,0,0,3.59,2.878,35.1,35.1,0,0,0,26.33,7.9,26.035,26.035,0,0,0,11.9-3.4,32.175,32.175,0,0,1-13.36-9.478,13.175,13.175,0,0,1,0-14.926,12.872,12.872,0,0,1,11.7-4.975,13.459,13.459,0,0,1,10.532,8.195,16.686,16.686,0,0,1,0,14.34A22.534,22.534,0,0,1,49.372,54.1a38.894,38.894,0,0,0,17.623.919A45.631,45.631,0,0,0,93.617,41.265a25.763,25.763,0,0,0,4.974-12.291q.216-.744.374-1.5l-.374.036a18.717,18.717,0,0,1-14.628-4.1,10.245,10.245,0,0,1-4.1-10.243,8.192,8.192,0,0,1,4.389-4.1,9.647,9.647,0,0,1,8.191,0,18.436,18.436,0,0,1,8.191,11.413,23.123,23.123,0,0,1,.965,4.331A21.052,21.052,0,0,0,104.734,24a21.654,21.654,0,0,0,10.532-9.658A23.419,23.419,0,0,0,117.606,0ZM98.591,17.852a16.4,16.4,0,0,0-4.1-4.975A9.656,9.656,0,0,0,88.059,9.95a6.731,6.731,0,0,0-5.559,7.9A10.824,10.824,0,0,0,90.984,24a21.053,21.053,0,0,0,8.327,1.1A19.914,19.914,0,0,0,98.591,17.852ZM53.537,43.314a13.757,13.757,0,0,0-3.8-11.413A10.237,10.237,0,0,0,39.2,29.266a8.779,8.779,0,0,0-6.436,9.072A16.1,16.1,0,0,0,40.08,50.045a38.9,38.9,0,0,0,7.549,3.509A17.856,17.856,0,0,0,53.537,43.314ZM.314,54.84v-.292a23.92,23.92,0,0,0,0-2.63,15.1,15.1,0,0,1,0-2.63A13.121,13.121,0,0,1,.314,54.84Zm0,2.921V54.84A20.512,20.512,0,0,1,.314,57.761Zm0,2.045v0Z" transform="translate(1018.06 1183.825) rotate(100)" fill="#36374d"/>
    <g id="Group_6064" data-name="Group 6064" transform="translate(12.682 12.682)">
      <path id="Path_591" data-name="Path 591" d="M29.849,43.038h0A15.391,15.391,0,0,1,14.458,27.647,14.386,14.386,0,0,1,28.844,13.261h13.4c1.64,0,1.977.523,1.977,2.163l.012,13.228A14.386,14.386,0,0,1,29.849,43.038" transform="translate(926.971 1137.248)" fill="#36374d"/>
      <path id="Path_592" data-name="Path 592" d="M25.708,35.026h0a11.25,11.25,0,0,1-11.25-11.25A10.515,10.515,0,0,1,24.973,13.261h9.8c1.2,0,1.445.382,1.445,1.581l.009,9.669A10.515,10.515,0,0,1,25.708,35.026" transform="translate(930.977 1141.254)" fill="#ef6d58"/>
      <path id="Path_593" data-name="Path 593" d="M22.44,28.7h0a7.982,7.982,0,0,1-7.982-7.982,7.461,7.461,0,0,1,7.461-7.461H28.87c.85,0,1.025.271,1.025,1.122l.006,6.86A7.461,7.461,0,0,1,22.44,28.7" transform="translate(934.138 1144.415)" fill="#f7cc47"/>
    </g>
  </g>
</svg>
