<svg xmlns="http://www.w3.org/2000/svg" width="64.322" height="62.245" viewBox="0 0 64.322 62.245">
  <g id="Group_6021" data-name="Group 6021" transform="translate(0 0)">
    <path id="Path_209" data-name="Path 209" d="M286.3,349.153a6.651,6.651,0,0,0-9.41,0l-9.638,9.638h0a4.149,4.149,0,0,0,.57,6.349,4.315,4.315,0,0,0,5.467-.643l8.3-8.3,8.4,8.4h0a4.213,4.213,0,0,0,5.27.622,4.15,4.15,0,0,0,.674-6.422Z" transform="translate(-249.432 -303.63)" fill="#f7cc47"/>
    <path id="Path_210" data-name="Path 210" d="M286.3,231.553a6.65,6.65,0,0,0-9.41,0l-9.638,9.638a4.15,4.15,0,0,0,.57,6.349,4.317,4.317,0,0,0,5.467-.643l8.3-8.3L290,247a4.213,4.213,0,0,0,5.27.622,4.15,4.15,0,0,0,.674-6.422Z" transform="translate(-249.432 -207.816)" fill="#ef6d58"/>
    <path id="Path_211" data-name="Path 211" d="M286.3,113.953a6.65,6.65,0,0,0-9.41,0l-9.638,9.638a4.15,4.15,0,0,0,.57,6.349,4.314,4.314,0,0,0,5.467-.643l8.3-8.3,8.4,8.4a4.212,4.212,0,0,0,5.27.623,4.15,4.15,0,0,0,.674-6.422Z" transform="translate(-249.432 -112.002)" fill="#ef6d58"/>
    <path id="Path_212" data-name="Path 212" d="M482.951,112a4.15,4.15,0,0,0-4.149,4.149V170.1a4.15,4.15,0,0,0,8.3,0V116.149a4.151,4.151,0,0,0-4.15-4.149Z" transform="translate(-422.779 -112)" fill="#28293e"/>
    <path id="Path_213" data-name="Path 213" d="M180.548,112a4.151,4.151,0,0,0-4.15,4.149V170.1a4.15,4.15,0,0,0,8.3,0V116.149A4.15,4.15,0,0,0,180.548,112Z" transform="translate(-176.398 -112)" fill="#28293e"/>
  </g>
</svg>
