<svg xmlns="http://www.w3.org/2000/svg" width="56.809" height="56.811" viewBox="0 0 56.809 56.811">
  <g id="noun-dev-ops-4890394" transform="translate(-75.348 -2.48)">
    <path id="Path_25749" data-name="Path 25749" d="M225.7,29.723A13.5,13.5,0,0,0,239.064,16.1a13.37,13.37,0,1,0-26.734,0A13.5,13.5,0,0,0,225.7,29.723Zm0-6.644a6.835,6.835,0,0,0,6.684-6.977,6.69,6.69,0,1,0-13.367,0A6.835,6.835,0,0,0,225.7,23.078Z" transform="translate(-122.947)" fill="#28293e" fill-rule="evenodd"/>
    <path id="Path_25750" data-name="Path 25750" d="M82.035,310.764q0,.835,0,1.716H75.353q0-.816,0-1.631c-.008-3.1-.017-6.151.254-8.891a19.661,19.661,0,0,1,2.948-9.273c3.9-5.774,11.545-8.111,24.193-8.111,11.378,0,19.76,3.463,21.949,6.645-3.074,0-6.582,2.142-7.574,2.682-2.549-2.317-8.116-2.682-14.375-2.682-12.405,0-16.786,2.421-18.646,5.172a13.224,13.224,0,0,0-1.844,6.217c-.235,2.378-.229,5.036-.221,8.157Z" transform="translate(0 -253.189)" fill="#28293e"/>
    <path id="Path_25751" data-name="Path 25751" d="M264.229,385.474a4.841,4.841,0,0,0,0,5.5,2.224,2.224,0,0,0,1.838.913.443.443,0,0,0,.045,0c.031,0,.074-.009.13-.02a3.869,3.869,0,0,0,.454-.12,10.763,10.763,0,0,0,1.386-.576,32.621,32.621,0,0,0,3.451-2.01c.563-.369,1.1-.739,1.6-1.088a26.984,26.984,0,0,0-2.712-1.946,8.7,8.7,0,0,0-4.355-1.562,2.224,2.224,0,0,0-1.838.913Zm17.58,2.75c.426.313.884.64,1.359.966a29.572,29.572,0,0,0,3.285,1.994,9.889,9.889,0,0,0,1.32.565,3.656,3.656,0,0,0,.43.116c.053.01.093.016.122.019s.042,0,.042,0a1.765,1.765,0,0,0,1.535-.921,5.184,5.184,0,0,0,0-5.484,1.765,1.765,0,0,0-1.535-.921l-.042,0c-.029,0-.069.009-.122.019a3.646,3.646,0,0,0-.43.116,9.948,9.948,0,0,0-1.32.565,29.637,29.637,0,0,0-3.285,1.994c-.475.326-.933.653-1.359.966Zm-4.416,3.4c-.789.578-1.8,1.292-2.894,2.01a37.918,37.918,0,0,1-4.05,2.35,10.673,10.673,0,0,1-4.382,1.264c-5.437,0-8.086-4.907-8.086-9.023s2.649-9.022,8.086-9.022a13.95,13.95,0,0,1,7.2,2.366,35.778,35.778,0,0,1,4.259,3.158c.722-.553,1.616-1.215,2.585-1.879a34.858,34.858,0,0,1,3.914-2.366,10.241,10.241,0,0,1,4.347-1.28,7.145,7.145,0,0,1,6.009,3.29,10.509,10.509,0,0,1,0,11.465,7.146,7.146,0,0,1-6.009,3.29,10.248,10.248,0,0,1-4.347-1.28,34.78,34.78,0,0,1-3.914-2.366c-1.027-.7-1.97-1.405-2.714-1.978Z" transform="translate(-163.92 -338.121)" fill="#ef6d58" fill-rule="evenodd"/>
  </g>
</svg>
