<svg xmlns="http://www.w3.org/2000/svg" xmlns:xlink="http://www.w3.org/1999/xlink" width="113.848" height="113.848" viewBox="0 0 113.848 113.848">
  <defs>
    <clipPath id="clip-path">
      <rect id="Rectangle_1650" data-name="Rectangle 1650" width="50.018" height="110.988" transform="translate(0 0)" fill="#fff"/>
    </clipPath>
    <clipPath id="clip-path-2">
      <path id="Path_5028" data-name="Path 5028" d="M55.094,106.591h0A55.094,55.094,0,0,1,0,51.5,51.5,51.5,0,0,1,51.5,0H95.961a10.631,10.631,0,0,1,10.63,10.63V55.094a51.5,51.5,0,0,1-51.5,51.5" transform="translate(0 0)" fill="#36374d"/>
    </clipPath>
  </defs>
  <g id="Mask_Group_31" data-name="Mask Group 31" transform="translate(78.48) rotate(45)" clip-path="url(#clip-path)">
    <g id="Mask_Group_30" data-name="Mask Group 30" transform="translate(-27.809 -19.978) rotate(45)" clip-path="url(#clip-path-2)">
      <g id="Group_6159" data-name="Group 6159" transform="translate(5.821 -29.291)">
        <path id="Path_4971" data-name="Path 4971" d="M7.887,15.258h0A7.887,7.887,0,0,1,0,7.372,7.372,7.372,0,0,1,7.372,0h6.365a1.522,1.522,0,0,1,1.522,1.522V7.887a7.372,7.372,0,0,1-7.372,7.372" transform="translate(17.649 86.291)" fill="#36374d" opacity="0.454"/>
        <path id="Path_4972" data-name="Path 4972" d="M7.887,15.258h0A7.887,7.887,0,0,1,0,7.372,7.372,7.372,0,0,1,7.372,0h6.365a1.522,1.522,0,0,1,1.522,1.522V7.887a7.372,7.372,0,0,1-7.372,7.372" transform="translate(17.649 120.11)" fill="#36374d" opacity="0.454"/>
        <path id="Path_4973" data-name="Path 4973" d="M7.887,15.258h0A7.887,7.887,0,0,1,0,7.372,7.372,7.372,0,0,1,7.372,0h6.365a1.522,1.522,0,0,1,1.522,1.522V7.887a7.372,7.372,0,0,1-7.372,7.372" transform="translate(52.946 103.201)" fill="#36374d" opacity="0.454"/>
        <path id="Path_4974" data-name="Path 4974" d="M7.887,15.258h0A7.887,7.887,0,0,1,0,7.372,7.372,7.372,0,0,1,7.372,0h6.365a1.522,1.522,0,0,1,1.522,1.522V7.887a7.372,7.372,0,0,1-7.372,7.372" transform="translate(70.595 120.981)" fill="#36374d" opacity="0.454"/>
        <path id="Path_4975" data-name="Path 4975" d="M7.887,15.258h0A7.887,7.887,0,0,1,0,7.372,7.372,7.372,0,0,1,7.372,0h6.365a1.522,1.522,0,0,1,1.522,1.522V7.887a7.372,7.372,0,0,1-7.372,7.372" transform="translate(88.243 120.11)" fill="#36374d" opacity="0.454"/>
        <path id="Path_4976" data-name="Path 4976" d="M7.887,15.258h0A7.887,7.887,0,0,1,0,7.372,7.372,7.372,0,0,1,7.372,0h6.365a1.522,1.522,0,0,1,1.522,1.522V7.887a7.372,7.372,0,0,1-7.372,7.372" transform="translate(123.541 137.02)" fill="#36374d" opacity="0.454"/>
        <path id="Path_4977" data-name="Path 4977" d="M7.887,15.258h0A7.887,7.887,0,0,1,0,7.372,7.372,7.372,0,0,1,7.372,0h6.365a1.522,1.522,0,0,1,1.522,1.522V7.887a7.372,7.372,0,0,1-7.372,7.372" transform="translate(17.649 51.6)" fill="#36374d" opacity="0.454"/>
        <path id="Path_4978" data-name="Path 4978" d="M7.887,15.258h0A7.887,7.887,0,0,1,0,7.372,7.372,7.372,0,0,1,7.372,0h6.365a1.522,1.522,0,0,1,1.522,1.522V7.887a7.372,7.372,0,0,1-7.372,7.372" transform="translate(52.946 34.69)" fill="#36374d" opacity="0.454"/>
        <path id="Path_4979" data-name="Path 4979" d="M7.887,15.258h0A7.887,7.887,0,0,1,0,7.372,7.372,7.372,0,0,1,7.372,0h6.365a1.522,1.522,0,0,1,1.522,1.522V7.887a7.372,7.372,0,0,1-7.372,7.372" transform="translate(88.243 34.69)" fill="#36374d" opacity="0.454"/>
        <path id="Path_4980" data-name="Path 4980" d="M7.887,15.258h0A7.887,7.887,0,0,1,0,7.372,7.372,7.372,0,0,1,7.372,0h6.365a1.522,1.522,0,0,1,1.522,1.522V7.887a7.372,7.372,0,0,1-7.372,7.372" transform="translate(17.649 16.91)" fill="#36374d" opacity="0.454"/>
        <path id="Path_4981" data-name="Path 4981" d="M7.887,15.258h0A7.887,7.887,0,0,1,0,7.372,7.372,7.372,0,0,1,7.372,0h6.365a1.522,1.522,0,0,1,1.522,1.522V7.887a7.372,7.372,0,0,1-7.372,7.372" transform="translate(52.946 68.51)" fill="#36374d" opacity="0.454"/>
        <path id="Path_4982" data-name="Path 4982" d="M7.887,15.258h0A7.887,7.887,0,0,1,0,7.372,7.372,7.372,0,0,1,7.372,0h6.365a1.522,1.522,0,0,1,1.522,1.522V7.887a7.372,7.372,0,0,1-7.372,7.372" transform="translate(88.243 85.42)" fill="#36374d" opacity="0.454"/>
        <path id="Path_4983" data-name="Path 4983" d="M7.887,15.258h0A7.887,7.887,0,0,1,0,7.372,7.372,7.372,0,0,1,7.372,0h6.365a1.522,1.522,0,0,1,1.522,1.522V7.887a7.372,7.372,0,0,1-7.372,7.372" transform="translate(123.541 102.33)" fill="#36374d" opacity="0.454"/>
        <path id="Path_4984" data-name="Path 4984" d="M7.887,0h0A7.887,7.887,0,0,0,0,7.887a7.372,7.372,0,0,0,7.372,7.372h6.365a1.522,1.522,0,0,0,1.522-1.522V7.372A7.372,7.372,0,0,0,7.887,0" transform="translate(35.297 69.381)" fill="#36374d" opacity="0.454"/>
        <path id="Path_4985" data-name="Path 4985" d="M7.887,0h0A7.887,7.887,0,0,0,0,7.887a7.372,7.372,0,0,0,7.372,7.372h6.365a1.522,1.522,0,0,0,1.522-1.522V7.372A7.372,7.372,0,0,0,7.887,0" transform="translate(0 69.381)" fill="#36374d" opacity="0.454"/>
        <path id="Path_4986" data-name="Path 4986" d="M7.887,0h0A7.887,7.887,0,0,0,0,7.887a7.372,7.372,0,0,0,7.372,7.372h6.365a1.522,1.522,0,0,0,1.522-1.522V7.372A7.372,7.372,0,0,0,7.887,0" transform="translate(35.297 103.201)" fill="#36374d" opacity="0.454"/>
        <path id="Path_4987" data-name="Path 4987" d="M7.887,0h0A7.887,7.887,0,0,0,0,7.887a7.372,7.372,0,0,0,7.372,7.372h6.365a1.522,1.522,0,0,0,1.522-1.522V7.372A7.372,7.372,0,0,0,7.887,0" transform="translate(0 103.201)" fill="#36374d" opacity="0.454"/>
        <path id="Path_4988" data-name="Path 4988" d="M7.887,0h0A7.887,7.887,0,0,0,0,7.887a7.372,7.372,0,0,0,7.372,7.372h6.365a1.522,1.522,0,0,0,1.522-1.522V7.372A7.372,7.372,0,0,0,7.887,0" transform="translate(70.595 86.291)" fill="#36374d" opacity="0.454"/>
        <path id="Path_4989" data-name="Path 4989" d="M7.887,0h0A7.887,7.887,0,0,0,0,7.887a7.372,7.372,0,0,0,7.372,7.372h6.365a1.522,1.522,0,0,0,1.522-1.522V7.372A7.372,7.372,0,0,0,7.887,0" transform="translate(105.892 103.201)" fill="#36374d" opacity="0.454"/>
        <path id="Path_4990" data-name="Path 4990" d="M7.887,0h0A7.887,7.887,0,0,0,0,7.887a7.372,7.372,0,0,0,7.372,7.372h6.365a1.522,1.522,0,0,0,1.522-1.522V7.372A7.372,7.372,0,0,0,7.887,0" transform="translate(141.189 120.11)" fill="#36374d" opacity="0.454"/>
        <path id="Path_4991" data-name="Path 4991" d="M7.887,0h0A7.887,7.887,0,0,0,0,7.887a7.372,7.372,0,0,0,7.372,7.372h6.365a1.522,1.522,0,0,0,1.522-1.522V7.372A7.372,7.372,0,0,0,7.887,0" transform="translate(35.297 34.69)" fill="#36374d" opacity="0.454"/>
        <path id="Path_4992" data-name="Path 4992" d="M7.887,0h0A7.887,7.887,0,0,0,0,7.887a7.372,7.372,0,0,0,7.372,7.372h6.365a1.522,1.522,0,0,0,1.522-1.522V7.372A7.372,7.372,0,0,0,7.887,0" transform="translate(0 34.69)" fill="#36374d" opacity="0.454"/>
        <path id="Path_4993" data-name="Path 4993" d="M7.887,0h0A7.887,7.887,0,0,0,0,7.887a7.372,7.372,0,0,0,7.372,7.372h6.365a1.522,1.522,0,0,0,1.522-1.522V7.372A7.372,7.372,0,0,0,7.887,0" transform="translate(70.595 17.781)" fill="#36374d" opacity="0.454"/>
        <path id="Path_4994" data-name="Path 4994" d="M7.887,0h0A7.887,7.887,0,0,0,0,7.887a7.372,7.372,0,0,0,7.372,7.372h6.365a1.522,1.522,0,0,0,1.522-1.522V7.372A7.372,7.372,0,0,0,7.887,0" transform="translate(35.297 0)" fill="#36374d" opacity="0.454"/>
        <path id="Path_4995" data-name="Path 4995" d="M7.887,0h0A7.887,7.887,0,0,0,0,7.887a7.372,7.372,0,0,0,7.372,7.372h6.365a1.522,1.522,0,0,0,1.522-1.522V7.372A7.372,7.372,0,0,0,7.887,0" transform="translate(70.595 51.6)" fill="#36374d" opacity="0.454"/>
        <path id="Path_4996" data-name="Path 4996" d="M7.887,0h0A7.887,7.887,0,0,0,0,7.887a7.372,7.372,0,0,0,7.372,7.372h6.365a1.522,1.522,0,0,0,1.522-1.522V7.372A7.372,7.372,0,0,0,7.887,0" transform="translate(105.892 51.6)" fill="#36374d" opacity="0.454"/>
        <path id="Path_4997" data-name="Path 4997" d="M7.887,0h0A7.887,7.887,0,0,0,0,7.887a7.372,7.372,0,0,0,7.372,7.372h6.365a1.522,1.522,0,0,0,1.522-1.522V7.372A7.372,7.372,0,0,0,7.887,0" transform="translate(105.892 68.51)" fill="#36374d" opacity="0.454"/>
        <path id="Path_4998" data-name="Path 4998" d="M7.887,0h0A7.887,7.887,0,0,0,0,7.887a7.372,7.372,0,0,0,7.372,7.372h6.365a1.522,1.522,0,0,0,1.522-1.522V7.372A7.372,7.372,0,0,0,7.887,0" transform="translate(141.189 85.42)" fill="#36374d" opacity="0.454"/>
        <path id="Path_4999" data-name="Path 4999" d="M7.887,15.258h0A7.887,7.887,0,0,1,0,7.372,7.372,7.372,0,0,1,7.372,0h6.365a1.522,1.522,0,0,1,1.522,1.522V7.887a7.372,7.372,0,0,1-7.372,7.372" transform="translate(17.649 69.381)" fill="#36374d"/>
        <path id="Path_5000" data-name="Path 5000" d="M7.887,15.258h0A7.887,7.887,0,0,1,0,7.372,7.372,7.372,0,0,1,7.372,0h6.365a1.522,1.522,0,0,1,1.522,1.522V7.887a7.372,7.372,0,0,1-7.372,7.372" transform="translate(17.649 103.201)" fill="#36374d"/>
        <path id="Path_5001" data-name="Path 5001" d="M7.887,15.258h0A7.887,7.887,0,0,1,0,7.372,7.372,7.372,0,0,1,7.372,0h6.365a1.522,1.522,0,0,1,1.522,1.522V7.887a7.372,7.372,0,0,1-7.372,7.372" transform="translate(52.946 86.291)" fill="#36374d"/>
        <path id="Path_5002" data-name="Path 5002" d="M7.887,15.258h0A7.887,7.887,0,0,1,0,7.372,7.372,7.372,0,0,1,7.372,0h6.365a1.522,1.522,0,0,1,1.522,1.522V7.887a7.372,7.372,0,0,1-7.372,7.372" transform="translate(88.243 103.201)" fill="#36374d"/>
        <path id="Path_5003" data-name="Path 5003" d="M7.887,15.258h0A7.887,7.887,0,0,1,0,7.372,7.372,7.372,0,0,1,7.372,0h6.365a1.522,1.522,0,0,1,1.522,1.522V7.887a7.372,7.372,0,0,1-7.372,7.372" transform="translate(123.541 120.11)" fill="#36374d"/>
        <path id="Path_5004" data-name="Path 5004" d="M7.887,15.258h0A7.887,7.887,0,0,1,0,7.372,7.372,7.372,0,0,1,7.372,0h6.365a1.522,1.522,0,0,1,1.522,1.522V7.887a7.372,7.372,0,0,1-7.372,7.372" transform="translate(17.649 34.69)" fill="#36374d"/>
        <path id="Path_5005" data-name="Path 5005" d="M7.887,15.258h0A7.887,7.887,0,0,1,0,7.372,7.372,7.372,0,0,1,7.372,0h6.365a1.522,1.522,0,0,1,1.522,1.522V7.887a7.372,7.372,0,0,1-7.372,7.372" transform="translate(52.946 17.781)" fill="#36374d"/>
        <path id="Path_5006" data-name="Path 5006" d="M7.887,15.258h0A7.887,7.887,0,0,1,0,7.372,7.372,7.372,0,0,1,7.372,0h6.365a1.522,1.522,0,0,1,1.522,1.522V7.887a7.372,7.372,0,0,1-7.372,7.372" transform="translate(17.649 0)" fill="#36374d"/>
        <path id="Path_5007" data-name="Path 5007" d="M7.887,15.258h0A7.887,7.887,0,0,1,0,7.372,7.372,7.372,0,0,1,7.372,0h6.365a1.522,1.522,0,0,1,1.522,1.522V7.887a7.372,7.372,0,0,1-7.372,7.372" transform="translate(52.946 51.6)" fill="#36374d"/>
        <path id="Path_5008" data-name="Path 5008" d="M7.887,15.258h0A7.887,7.887,0,0,1,0,7.372,7.372,7.372,0,0,1,7.372,0h6.365a1.522,1.522,0,0,1,1.522,1.522V7.887a7.372,7.372,0,0,1-7.372,7.372" transform="translate(88.243 51.6)" fill="#36374d"/>
        <path id="Path_5009" data-name="Path 5009" d="M7.887,15.258h0A7.887,7.887,0,0,1,0,7.372,7.372,7.372,0,0,1,7.372,0h6.365a1.522,1.522,0,0,1,1.522,1.522V7.887a7.372,7.372,0,0,1-7.372,7.372" transform="translate(88.243 68.51)" fill="#36374d"/>
        <path id="Path_5010" data-name="Path 5010" d="M7.887,15.258h0A7.887,7.887,0,0,1,0,7.372,7.372,7.372,0,0,1,7.372,0h6.365a1.522,1.522,0,0,1,1.522,1.522V7.887a7.372,7.372,0,0,1-7.372,7.372" transform="translate(123.541 85.42)" fill="#36374d"/>
        <path id="Path_5011" data-name="Path 5011" d="M7.887,0h0A7.887,7.887,0,0,0,0,7.887a7.372,7.372,0,0,0,7.372,7.372h6.365a1.522,1.522,0,0,0,1.522-1.522V7.372A7.372,7.372,0,0,0,7.887,0" transform="translate(35.297 86.291)" fill="#36374d"/>
        <path id="Path_5012" data-name="Path 5012" d="M7.887,0h0A7.887,7.887,0,0,0,0,7.887a7.372,7.372,0,0,0,7.372,7.372h6.365a1.522,1.522,0,0,0,1.522-1.522V7.372A7.372,7.372,0,0,0,7.887,0" transform="translate(0 86.291)" fill="#36374d"/>
        <path id="Path_5013" data-name="Path 5013" d="M7.887,0h0A7.887,7.887,0,0,0,0,7.887a7.372,7.372,0,0,0,7.372,7.372h6.365a1.522,1.522,0,0,0,1.522-1.522V7.372A7.372,7.372,0,0,0,7.887,0" transform="translate(35.297 120.11)" fill="#36374d"/>
        <path id="Path_5014" data-name="Path 5014" d="M7.887,0h0A7.887,7.887,0,0,0,0,7.887a7.372,7.372,0,0,0,7.372,7.372h6.365a1.522,1.522,0,0,0,1.522-1.522V7.372A7.372,7.372,0,0,0,7.887,0" transform="translate(0 120.11)" fill="#36374d"/>
        <path id="Path_5015" data-name="Path 5015" d="M7.887,0h0A7.887,7.887,0,0,0,0,7.887a7.372,7.372,0,0,0,7.372,7.372h6.365a1.522,1.522,0,0,0,1.522-1.522V7.372A7.372,7.372,0,0,0,7.887,0" transform="translate(52.946 120.11)" fill="#36374d"/>
        <path id="Path_5016" data-name="Path 5016" d="M7.887,0h0A7.887,7.887,0,0,0,0,7.887a7.372,7.372,0,0,0,7.372,7.372h6.365a1.522,1.522,0,0,0,1.522-1.522V7.372A7.372,7.372,0,0,0,7.887,0" transform="translate(70.595 103.201)" fill="#36374d"/>
        <path id="Path_5017" data-name="Path 5017" d="M7.887,0h0A7.887,7.887,0,0,0,0,7.887a7.372,7.372,0,0,0,7.372,7.372h6.365a1.522,1.522,0,0,0,1.522-1.522V7.372A7.372,7.372,0,0,0,7.887,0" transform="translate(105.892 120.11)" fill="#36374d"/>
        <path id="Path_5018" data-name="Path 5018" d="M7.887,0h0A7.887,7.887,0,0,0,0,7.887a7.372,7.372,0,0,0,7.372,7.372h6.365a1.522,1.522,0,0,0,1.522-1.522V7.372A7.372,7.372,0,0,0,7.887,0" transform="translate(141.189 137.02)" fill="#36374d"/>
        <path id="Path_5019" data-name="Path 5019" d="M7.887,0h0A7.887,7.887,0,0,0,0,7.887a7.372,7.372,0,0,0,7.372,7.372h6.365a1.522,1.522,0,0,0,1.522-1.522V7.372A7.372,7.372,0,0,0,7.887,0" transform="translate(35.297 51.6)" fill="#36374d"/>
        <path id="Path_5020" data-name="Path 5020" d="M7.887,0h0A7.887,7.887,0,0,0,0,7.887a7.372,7.372,0,0,0,7.372,7.372h6.365a1.522,1.522,0,0,0,1.522-1.522V7.372A7.372,7.372,0,0,0,7.887,0" transform="translate(0 51.6)" fill="#36374d"/>
        <path id="Path_5021" data-name="Path 5021" d="M7.887,0h0A7.887,7.887,0,0,0,0,7.887a7.372,7.372,0,0,0,7.372,7.372h6.365a1.522,1.522,0,0,0,1.522-1.522V7.372A7.372,7.372,0,0,0,7.887,0" transform="translate(70.595 34.69)" fill="#36374d"/>
        <path id="Path_5022" data-name="Path 5022" d="M7.887,0h0A7.887,7.887,0,0,0,0,7.887a7.372,7.372,0,0,0,7.372,7.372h6.365a1.522,1.522,0,0,0,1.522-1.522V7.372A7.372,7.372,0,0,0,7.887,0" transform="translate(88.243 16.91)" fill="#36374d"/>
        <path id="Path_5023" data-name="Path 5023" d="M7.887,0h0A7.887,7.887,0,0,0,0,7.887a7.372,7.372,0,0,0,7.372,7.372h6.365a1.522,1.522,0,0,0,1.522-1.522V7.372A7.372,7.372,0,0,0,7.887,0" transform="translate(105.892 34.69)" fill="#36374d"/>
        <path id="Path_5024" data-name="Path 5024" d="M7.887,0h0A7.887,7.887,0,0,0,0,7.887a7.372,7.372,0,0,0,7.372,7.372h6.365a1.522,1.522,0,0,0,1.522-1.522V7.372A7.372,7.372,0,0,0,7.887,0" transform="translate(35.297 16.91)" fill="#36374d"/>
        <path id="Path_5025" data-name="Path 5025" d="M7.887,0h0A7.887,7.887,0,0,0,0,7.887a7.372,7.372,0,0,0,7.372,7.372h6.365a1.522,1.522,0,0,0,1.522-1.522V7.372A7.372,7.372,0,0,0,7.887,0" transform="translate(70.595 68.51)" fill="#36374d"/>
        <path id="Path_5026" data-name="Path 5026" d="M7.887,0h0A7.887,7.887,0,0,0,0,7.887a7.372,7.372,0,0,0,7.372,7.372h6.365a1.522,1.522,0,0,0,1.522-1.522V7.372A7.372,7.372,0,0,0,7.887,0" transform="translate(105.892 85.42)" fill="#36374d"/>
        <path id="Path_5027" data-name="Path 5027" d="M7.887,0h0A7.887,7.887,0,0,0,0,7.887a7.372,7.372,0,0,0,7.372,7.372h6.365a1.522,1.522,0,0,0,1.522-1.522V7.372A7.372,7.372,0,0,0,7.887,0" transform="translate(141.189 102.33)" fill="#36374d"/>
      </g>
    </g>
  </g>
</svg>
